<svg width="22" height="8" viewBox="0 0 22 8" fill="none" xmlns="http://www.w3.org/2000/svg">
<path d="M0.660156 3.5C0.384014 3.5 0.160156 3.72386 0.160156 4C0.160156 4.27614 0.384014 4.5 0.660156 4.5V3.5ZM21.0137 4.35355C21.209 4.15829 21.209 3.84171 21.0137 3.64645L17.8317 0.464466C17.6365 0.269204 17.3199 0.269204 17.1246 0.464466C16.9294 0.659728 16.9294 0.976311 17.1246 1.17157L19.9531 4L17.1246 6.82843C16.9294 7.02369 16.9294 7.34027 17.1246 7.53553C17.3199 7.7308 17.6365 7.7308 17.8317 7.53553L21.0137 4.35355ZM0.660156 4.5L20.6602 4.5V3.5L0.660156 3.5V4.5Z" fill="white"/>
</svg>
