<svg width="238" height="174" viewBox="0 0 238 174" fill="none" xmlns="http://www.w3.org/2000/svg">
<path d="M166.006 89.1639C165.585 94.1717 164.284 100.824 160.38 103.403C159.423 104.038 154.831 106.841 151.616 108.522C145.989 109.905 145.683 102.618 145.683 102.618V77.7282L119.925 63.0785C115.562 60.6119 112.003 53.9598 112.003 48.2793L107.142 6.53504C108.099 5.48864 113.036 2.7605 114.72 1.82621C116.136 1.0414 117.935 1.07877 119.925 2.19992L228.774 63.5643C233.138 66.0308 236.697 72.683 236.697 78.3635V118.575C236.697 122.014 235.204 123.957 233.405 125.078C231.109 126.573 228.583 128.442 226.708 129.189L165.93 89.1265L166.006 89.1639Z" fill="#CFF2F4"/>
<path d="M226.633 130.535L167.003 91.2571C166.391 96.2276 164.821 101.908 161.071 104.375C160.152 104.973 155.521 107.813 152.23 109.569L151.923 109.681C149.704 110.205 148.173 109.569 147.331 108.934C144.69 107.028 144.498 102.842 144.498 102.655V78.4012L119.353 64.0879C114.645 61.4345 110.818 54.3339 110.818 48.2423L105.919 6.08698L106.263 5.67589C107.144 4.70423 110.052 3.0225 113.191 1.22866L114.148 0.705452C115.985 -0.340956 118.281 -0.228841 120.578 1.07917L229.427 62.4435C234.134 65.0969 238 72.1975 238 78.2891V118.501C238 121.865 236.699 124.368 234.134 126.013C233.522 126.424 232.871 126.835 232.221 127.283C230.422 128.517 228.699 129.638 227.245 130.236L226.633 130.46V130.535ZM164.936 86.9967L226.901 127.807C228.049 127.246 229.465 126.274 230.843 125.378C231.493 124.929 232.144 124.481 232.795 124.069C234.632 122.874 235.55 121.08 235.55 118.538V78.3265C235.55 73.0945 232.182 66.7786 228.24 64.5363L119.353 3.20936C118.281 2.61141 116.712 2.05083 115.372 2.83564L114.416 3.39622C112.923 4.25576 109.67 6.08698 108.445 7.02127L113.229 48.1675C113.229 53.5491 116.597 59.8275 120.578 62.0698L146.948 77.0559V102.655C146.986 103.515 147.407 106.056 148.823 107.065C149.436 107.514 150.239 107.626 151.234 107.439C154.449 105.72 158.851 103.029 159.731 102.431C162.449 100.637 164.247 95.9286 164.821 89.0896L164.975 87.0341L164.936 86.9967Z" fill="#222222"/>
<path d="M159.12 93.3507C158.699 98.3585 157.398 105.011 153.494 107.589C147.294 111.7 138.835 106.805 138.835 106.805V81.8776L113.077 67.2279C108.714 64.7614 105.155 58.1092 105.155 52.4287V12.2167C105.155 6.53621 108.714 3.88282 113.077 6.34936L221.926 67.7137C226.29 70.1803 229.849 76.8324 229.849 82.5129V122.725C229.849 128.405 226.29 131.059 221.926 128.592L159.082 93.3133L159.12 93.3507Z" fill="white"/>
<path d="M225.103 130.721C223.916 130.721 222.653 130.348 221.39 129.638L160.115 95.2183C159.502 100.226 157.971 106.019 154.182 108.523C147.446 112.97 138.643 107.999 138.261 107.775C137.916 107.588 137.686 107.215 137.686 106.804V82.5493L112.503 68.2359C107.795 65.5825 103.968 58.5192 103.968 52.4277V12.2157C103.968 8.81486 105.193 6.16147 107.298 4.96558C109.135 3.95654 111.393 4.06865 113.651 5.37666L222.538 66.741C227.246 69.3944 231.073 76.495 231.073 82.5493V122.761C231.073 126.162 229.848 128.815 227.743 130.011C226.94 130.46 226.059 130.684 225.103 130.684V130.721ZM159.119 92.2285C159.311 92.2285 159.541 92.2659 159.694 92.378L222.538 127.657C223.61 128.255 225.179 128.815 226.557 128.068C227.935 127.283 228.738 125.377 228.738 122.799V82.5866C228.738 77.3546 225.37 71.0014 221.39 68.7591L112.503 7.35737C111.431 6.75942 109.862 6.19884 108.484 6.94628C107.106 7.73108 106.302 9.63704 106.302 12.2157V52.4277C106.302 57.6597 109.67 64.0129 113.651 66.2552L139.409 80.9049C139.753 81.0918 139.983 81.4655 139.983 81.8766V106.093C141.897 107.028 148.173 109.681 152.843 106.617C155.56 104.823 157.359 100.077 157.933 93.2376C157.933 92.8639 158.201 92.4901 158.545 92.3033C158.698 92.2285 158.89 92.1912 159.081 92.1912L159.119 92.2285Z" fill="#222222"/>
<path d="M210.481 85.4648C210.251 85.4648 210.06 85.4274 209.83 85.3153L123.869 36.8442C123.256 36.5079 123.065 35.7231 123.409 35.1251C123.754 34.5272 124.558 34.3403 125.17 34.6767L211.132 83.1478C211.744 83.4841 211.935 84.2689 211.591 84.8669C211.361 85.278 210.94 85.5022 210.481 85.5022V85.4648Z" fill="#222222"/>
<path d="M210.481 100.487C210.251 100.487 210.06 100.45 209.83 100.338L123.869 51.8665C123.256 51.5301 123.065 50.7453 123.409 50.1474C123.754 49.5494 124.558 49.3626 125.17 49.6989L211.132 98.1701C211.744 98.5064 211.935 99.2912 211.591 99.8892C211.361 100.3 210.94 100.524 210.481 100.524V100.487Z" fill="#222222"/>
<path d="M13.243 170.673C14.4677 171.197 16.3431 172.43 17.7975 172.916C23.5385 164.993 24.6101 149.633 24.6101 149.633C25.988 149.035 27.4041 148.363 28.8584 147.54C44.206 138.907 56.6448 120.072 56.6448 105.46C56.6448 101.573 58.5967 97.3875 56.3386 95.5189C54.4632 93.9866 51.4014 92.7534 49.526 91.8191C44.4356 89.3152 37.0872 90.1 28.8584 94.6967C13.5492 103.367 1.11035 122.202 1.11035 136.777C1.11035 142.121 2.79437 146.195 5.66487 148.736C7.65507 150.493 13.243 152.922 13.243 152.922V170.711V170.673Z" fill="#CFF2F4"/>
<path d="M17.8353 173.999C17.8353 173.999 17.5674 173.999 17.4526 173.924C16.4958 173.588 15.4241 173.027 14.5056 172.504C13.8932 172.168 13.3191 171.831 12.8215 171.644C12.4005 171.458 12.1709 171.084 12.1709 170.673V153.594C10.6017 152.884 6.65954 151.015 4.93725 149.52C1.7223 146.68 0 142.27 0 136.777C0 121.865 12.7067 102.582 28.3222 93.7618C36.5127 89.1651 44.4352 88.0813 50.0231 90.8468C50.4441 91.0337 50.9034 91.2579 51.401 91.4821C53.2381 92.3417 55.4962 93.3881 57.0654 94.6961C59.0556 96.3405 58.5963 99.106 58.1753 101.759C57.9839 102.993 57.7543 104.263 57.7543 105.459C57.7543 120.37 45.0476 139.654 29.4321 148.474C28.1691 149.184 26.9061 149.819 25.6813 150.343C25.4134 153.407 23.959 166.3 18.7156 173.513C18.486 173.812 18.1798 173.962 17.7971 173.962L17.8353 173.999ZM14.3525 170C14.7352 170.187 15.1179 170.411 15.5389 170.635C16.1513 170.972 16.802 171.308 17.376 171.607C22.4281 163.834 23.4615 149.745 23.4998 149.595C23.4998 149.184 23.7677 148.848 24.1504 148.661C25.49 148.1 26.9061 147.428 28.2839 146.643C43.287 138.197 55.4962 119.735 55.4962 105.497C55.4962 104.114 55.7258 102.768 55.9172 101.46C56.2999 99.1807 56.6061 97.2374 55.5727 96.3778C54.2332 95.2567 52.0899 94.285 50.4058 93.5002C49.9083 93.276 49.4107 93.0518 48.9897 92.8275C44.0525 90.3984 36.9337 91.4448 29.3938 95.7051C14.3907 104.151 2.18157 122.613 2.18157 136.851C2.18157 141.71 3.63596 145.559 6.39163 147.988C7.92256 149.334 12.1709 151.314 13.6635 151.987C14.0463 152.174 14.3142 152.548 14.3142 152.959V170.038L14.3525 170Z" fill="#222222"/>
<path d="M17.8384 172.917C26.1437 164.396 29.2055 151.877 29.2055 151.877C30.5834 151.316 31.9995 150.606 33.4538 149.784C48.8014 141.151 61.2402 122.316 61.2402 107.703C61.2402 93.0908 48.8014 88.3073 33.4538 96.9401C18.1063 105.573 5.66748 124.408 5.66748 139.021C5.66748 148.102 10.4899 153.409 17.8001 154.007V172.879L17.8384 172.917Z" fill="white"/>
<path d="M17.8358 174C17.8358 174 17.5679 174 17.4148 173.925C16.9938 173.776 16.7259 173.365 16.7259 172.916V154.978C9.1095 153.894 4.59326 147.989 4.59326 139.02C4.59326 124.109 17.3 104.825 32.9155 96.0052C41.4504 91.1843 49.6026 90.25 55.267 93.4266C59.8215 96.0052 62.3476 101.088 62.3476 107.703C62.3476 122.614 49.6409 141.898 34.0254 150.717C32.7241 151.427 31.4228 152.1 30.1598 152.661C29.4709 155.165 26.1794 165.928 18.6395 173.664C18.4099 173.888 18.142 174 17.8358 174ZM47.6124 93.7255C43.5937 93.7255 38.8861 95.1457 34.0254 97.8738C19.0223 106.357 6.81311 124.781 6.81311 139.02C6.81311 147.279 10.8701 152.324 17.9506 152.922C18.5247 152.96 18.9457 153.446 18.9457 154.006V170.001C25.5287 161.966 28.1313 151.689 28.1313 151.577C28.2078 151.241 28.4375 150.979 28.7819 150.83C30.1598 150.269 31.5376 149.559 32.9155 148.811C47.9186 140.365 60.1277 121.904 60.1277 107.665C60.1277 101.835 57.9844 97.4253 54.1571 95.2578C52.2817 94.2114 50.0619 93.6882 47.6124 93.6882V93.7255Z" fill="#222222"/>
<path d="M42.7866 118.838C42.7866 121.305 44.3175 122.464 46.2312 121.38C48.1449 120.296 49.6758 117.456 49.6758 114.952C49.6758 112.448 48.1449 111.327 46.2312 112.411C44.3175 113.494 42.7866 116.335 42.7866 118.838Z" fill="#CFF2F4"/>
<path d="M44.8933 122.873C44.3957 122.873 43.8982 122.761 43.4772 122.5C42.3673 121.864 41.7549 120.556 41.7549 118.837C41.7549 115.96 43.5155 112.746 45.7353 111.475C46.9218 110.802 48.1082 110.728 49.1033 111.288C50.2133 111.924 50.8256 113.232 50.8256 114.951C50.8256 117.828 49.0651 121.042 46.8452 122.313C46.1946 122.687 45.5439 122.873 44.9316 122.873H44.8933ZM47.6107 113.119C47.3045 113.119 46.9983 113.269 46.8069 113.381C45.2377 114.278 43.9365 116.782 43.9365 118.875C43.9365 119.921 44.2809 120.482 44.5871 120.668C44.9316 120.855 45.4674 120.668 45.7353 120.482C47.3045 119.585 48.6058 117.081 48.6058 114.988C48.6058 113.942 48.2613 113.381 47.9551 113.194C47.8403 113.119 47.7255 113.119 47.6107 113.119Z" fill="#222222"/>
<path d="M31.9585 124.967C31.9585 127.434 33.4894 128.592 35.4031 127.509C37.3167 126.425 38.8477 123.584 38.8477 121.081C38.8477 118.577 37.3167 117.456 35.4031 118.539C33.4894 119.623 31.9585 122.463 31.9585 124.967Z" fill="#CFF2F4"/>
<path d="M34.0232 129.002C33.5256 129.002 33.0281 128.89 32.6071 128.629C31.4971 127.993 30.8848 126.685 30.8848 124.966C30.8848 122.089 32.6453 118.875 34.8652 117.604C36.0517 116.931 37.2381 116.894 38.2332 117.417C39.3432 118.053 39.9555 119.361 39.9555 121.08C39.9555 123.957 38.195 127.171 35.9751 128.442C35.3245 128.816 34.6738 129.002 34.0614 129.002H34.0232ZM36.7406 119.248C36.4344 119.248 36.1282 119.398 35.9368 119.51C34.3676 120.407 33.0663 122.911 33.0663 125.004C33.0663 126.05 33.4108 126.611 33.717 126.798C34.0614 126.984 34.5973 126.798 34.8652 126.611C36.4344 125.714 37.7357 123.21 37.7357 121.117C37.7357 120.071 37.3912 119.51 37.085 119.323C36.9702 119.248 36.8554 119.248 36.7406 119.248Z" fill="#222222"/>
<path d="M20.8203 130.87C20.8203 133.336 22.3512 134.495 24.2649 133.411C26.1786 132.327 27.7095 129.487 27.7095 126.983C27.7095 124.479 26.1786 123.358 24.2649 124.442C22.3512 125.525 20.8203 128.366 20.8203 130.87Z" fill="#CFF2F4"/>
<path d="M22.8855 134.869C22.3879 134.869 21.8904 134.757 21.4694 134.495C20.3594 133.86 19.7471 132.552 19.7471 130.833C19.7471 127.992 21.5076 124.741 23.7275 123.47C24.914 122.798 26.1004 122.76 27.0955 123.283C28.2055 123.919 28.8178 125.227 28.8178 126.946C28.8178 129.786 27.0573 133.038 24.8374 134.308C24.1868 134.682 23.5361 134.869 22.9237 134.869H22.8855ZM25.6029 125.115C25.2967 125.115 24.9905 125.264 24.7991 125.376C23.2299 126.273 21.9286 128.777 21.9286 130.87C21.9286 131.916 22.2731 132.477 22.5793 132.664C22.9237 132.851 23.4596 132.664 23.7275 132.477C25.2967 131.58 26.598 129.076 26.598 126.983C26.598 125.937 26.2535 125.376 25.9473 125.189C25.8325 125.115 25.7177 125.115 25.6029 125.115Z" fill="#222222"/>
</svg>
