<svg width="32" height="32" viewBox="0 0 32 32" fill="none" xmlns="http://www.w3.org/2000/svg">
<mask id="mask0_371_2612" style="mask-type:alpha" maskUnits="userSpaceOnUse" x="0" y="0" width="32" height="32">
<rect width="32" height="32" fill="#D9D9D9"/>
</mask>
<g mask="url(#mask0_371_2612)">
<path d="M16 29.3327L15.6667 25.3327H15.3333C12.1778 25.3327 9.5 24.2327 7.3 22.0327C5.1 19.8327 4 17.1549 4 13.9993C4 10.8438 5.1 8.16602 7.3 5.96602C9.5 3.76602 12.1778 2.66602 15.3333 2.66602C16.9111 2.66602 18.3833 2.96046 19.75 3.54935C21.1167 4.13824 22.3167 4.94935 23.35 5.98268C24.3833 7.01602 25.1944 8.21602 25.7833 9.58268C26.3722 10.9493 26.6667 12.4216 26.6667 13.9993C26.6667 15.666 26.3944 17.266 25.85 18.7993C25.3056 20.3327 24.5611 21.7549 23.6167 23.066C22.6722 24.3771 21.55 25.566 20.25 26.6327C18.95 27.6993 17.5333 28.5993 16 29.3327ZM18.6667 24.466C20.2444 23.1327 21.5278 21.5716 22.5167 19.7827C23.5056 17.9938 24 16.066 24 13.9993C24 11.5771 23.1611 9.52713 21.4833 7.84935C19.8056 6.17157 17.7556 5.33268 15.3333 5.33268C12.9111 5.33268 10.8611 6.17157 9.18333 7.84935C7.50556 9.52713 6.66667 11.5771 6.66667 13.9993C6.66667 16.4216 7.50556 18.4716 9.18333 20.1493C10.8611 21.8271 12.9111 22.666 15.3333 22.666H18.6667V24.466ZM15.3 21.2993C15.6778 21.2993 16 21.166 16.2667 20.8993C16.5333 20.6327 16.6667 20.3105 16.6667 19.9327C16.6667 19.5549 16.5333 19.2327 16.2667 18.966C16 18.6993 15.6778 18.566 15.3 18.566C14.9222 18.566 14.6 18.6993 14.3333 18.966C14.0667 19.2327 13.9333 19.5549 13.9333 19.9327C13.9333 20.3105 14.0667 20.6327 14.3333 20.8993C14.6 21.166 14.9222 21.2993 15.3 21.2993ZM14.3333 17.066H16.3333C16.3333 16.3993 16.4 15.9327 16.5333 15.666C16.6667 15.3993 17.0889 14.9105 17.8 14.1993C18.2 13.7993 18.5333 13.366 18.8 12.8993C19.0667 12.4327 19.2 11.9327 19.2 11.3993C19.2 10.266 18.8167 9.41602 18.05 8.84935C17.2833 8.28268 16.3778 7.99935 15.3333 7.99935C14.3556 7.99935 13.5333 8.27157 12.8667 8.81602C12.2 9.36046 11.7333 10.0216 11.4667 10.7993L13.3333 11.5327C13.4444 11.1549 13.6556 10.7827 13.9667 10.416C14.2778 10.0493 14.7333 9.86602 15.3333 9.86602C15.9333 9.86602 16.3833 10.0327 16.6833 10.366C16.9833 10.6993 17.1333 11.066 17.1333 11.466C17.1333 11.8438 17.0222 12.1827 16.8 12.4827C16.5778 12.7827 16.3111 13.0882 16 13.3993C15.2222 14.066 14.75 14.5938 14.5833 14.9827C14.4167 15.3716 14.3333 16.066 14.3333 17.066Z" fill="#222222"/>
</g>
</svg>
