<svg width="200" height="204" viewBox="0 0 200 204" fill="none" xmlns="http://www.w3.org/2000/svg">
<g clip-path="url(#clip0_605_20141)">
<path d="M194.83 198.835C189.352 204.307 180.473 204.307 174.994 198.835L112.979 136.899L132.816 117.087L194.83 179.023C200.309 184.495 200.309 193.363 194.83 198.835Z" fill="white"/>
<path d="M184.916 203.999C181.05 203.999 177.184 202.529 174.244 199.593L111.475 136.902L132.817 115.582L195.587 178.272C201.471 184.149 201.471 193.712 195.587 199.588C192.643 202.529 188.781 203.995 184.916 203.995V203.999ZM114.491 136.902L175.75 198.084C180.802 203.13 189.025 203.13 194.081 198.084C199.133 193.038 199.133 184.827 194.081 179.781L132.822 118.599L114.496 136.907L114.491 136.902Z" fill="#222222"/>
<path d="M132.821 117.085L112.984 136.899L127.028 150.926L146.865 131.113L132.821 117.085Z" fill="#222222"/>
<path d="M127.027 152.435L111.475 136.902L132.817 115.582L148.374 131.12L127.027 152.435ZM114.491 136.902L127.027 149.422L145.358 131.12L132.822 118.599L114.496 136.907L114.491 136.902Z" fill="#222222"/>
<path d="M133.297 133.141C163.547 102.926 163.547 53.9385 133.297 23.7237C103.046 -6.49116 54.0006 -6.49116 23.75 23.7237C-6.50053 53.9385 -6.50053 102.926 23.75 133.141C54.0006 163.356 103.046 163.356 133.297 133.141Z" fill="white"/>
<path d="M78.5313 156.864C35.2271 156.864 0 121.682 0 78.432C0 35.1826 35.2271 0 78.5313 0C121.836 0 157.063 35.1826 157.063 78.432C157.063 121.682 121.836 156.864 78.5313 156.864ZM78.5313 2.13073C36.4048 2.13073 2.13342 36.3587 2.13342 78.432C2.13342 120.505 36.4048 154.733 78.5313 154.733C120.658 154.733 154.929 120.505 154.929 78.432C154.929 36.3587 120.658 2.13073 78.5313 2.13073Z" fill="#222222"/>
<path d="M78.5275 141.02C113.138 141.02 141.195 112.999 141.195 78.4325C141.195 43.8661 113.138 15.8445 78.5275 15.8445C43.9174 15.8445 15.8604 43.8661 15.8604 78.4325C15.8604 112.999 43.9174 141.02 78.5275 141.02Z" fill="#FFFF91"/>
<path d="M109.349 23.9285L23.957 109.213C29.2778 118.601 36.9539 126.485 46.1916 132.05L132.22 46.1306C126.643 36.9088 118.754 29.2382 109.354 23.9242L109.349 23.9285Z" fill="white"/>
<path d="M78.5288 142.086C43.3871 142.086 14.7949 113.53 14.7949 78.4331C14.7949 43.3358 43.3871 14.7798 78.5288 14.7798C113.671 14.7798 142.263 43.3358 142.263 78.4331C142.263 113.53 113.671 142.086 78.5288 142.086ZM78.5288 16.9105C44.5605 16.9105 16.9283 44.5077 16.9283 78.4331C16.9283 112.359 44.5605 139.956 78.5288 139.956C112.497 139.956 140.129 112.359 140.129 78.4331C140.129 44.5077 112.497 16.9105 78.5288 16.9105Z" fill="#222222"/>
<mask id="mask0_605_20141" style="mask-type:luminance" maskUnits="userSpaceOnUse" x="15" y="15" width="127" height="127">
<path d="M78.5275 141.02C113.138 141.02 141.195 112.999 141.195 78.4325C141.195 43.8661 113.138 15.8445 78.5275 15.8445C43.9174 15.8445 15.8604 43.8661 15.8604 78.4325C15.8604 112.999 43.9174 141.02 78.5275 141.02Z" fill="white"/>
</mask>
<g mask="url(#mask0_605_20141)">
<path d="M79.9311 156.571L63.0728 84.1139L65.1507 83.6324L79.9524 147.243L95.1125 83.3L97.1862 83.7901L79.9311 156.571Z" fill="#222222"/>
<path d="M79.9415 91.4693L67.5335 98.5688L64.1157 83.8711" fill="white"/>
<path d="M66.8148 100.201L63.0728 84.1136L65.1507 83.632L68.2442 96.932L79.4105 90.5441L80.4687 92.3936L66.8148 100.201Z" fill="#222222"/>
<path d="M79.9409 91.4693L92.5623 98.6882L95.7709 83.8711" fill="white"/>
<path d="M93.2969 100.333L79.4126 92.3941L80.4708 90.5447L91.8249 97.0391L94.7263 83.6454L96.8128 84.0971L93.2969 100.333Z" fill="#222222"/>
<path d="M122.06 152.97H37.8198V90.6762L79.9422 77.9941L122.064 90.6762V152.97H122.06ZM39.9532 150.839H119.927V92.2572L79.9379 80.2143L39.949 92.2572V150.839H39.9532Z" fill="#222222"/>
<path d="M52.8821 151.905H50.7487V121.239C50.7487 110.291 46.1618 99.7231 38.1572 92.2442L39.6165 90.6888C48.0478 98.5725 52.8821 109.708 52.8821 121.239V151.905Z" fill="#222222"/>
<path d="M109.134 151.905H107V121.239C107 109.703 111.835 98.5682 120.266 90.6888L121.725 92.2442C113.725 99.7273 109.134 110.296 109.134 121.239V151.905Z" fill="#222222"/>
<path d="M90.6656 74.6583V82.3545L79.9388 91.4698L69.2119 82.3545V74.6583" fill="white"/>
<path d="M79.9401 92.8675L68.1465 82.8446V74.6583H70.2799V81.8602L79.9401 90.072L89.6002 81.8602V74.6583H91.7336V82.8446L79.9401 92.8675Z" fill="#222222"/>
<path d="M78.9 152.152L70.8101 117.971L70.8271 117.413L78.9171 91.1536H80.9566L89.0466 117.413L89.0636 117.971L80.978 152.152H78.9ZM72.9563 117.762L79.9411 147.273L86.9259 117.762L79.9411 95.0912L72.9563 117.762Z" fill="#222222"/>
<path d="M85.2158 75.7231H74.6597C65.3921 75.7231 57.8525 68.1931 57.8525 58.9373V48.1217C57.8525 35.9595 67.7602 26.0644 79.9378 26.0644C92.1153 26.0644 102.023 35.9595 102.023 48.1217V58.9373C102.023 68.1931 94.4834 75.7231 85.2158 75.7231ZM79.9378 28.1994C68.9378 28.1994 59.986 37.1399 59.986 48.126V58.9415C59.986 67.0212 66.5697 73.5967 74.6597 73.5967H85.2158C93.3058 73.5967 99.8895 67.0212 99.8895 58.9415V48.126C99.8895 37.1399 90.942 28.1994 79.9378 28.1994Z" fill="#222222"/>
<path d="M59.9873 64.4009H58.9207C54.4153 64.4009 50.7461 60.7361 50.7461 56.236V55.7118C50.7461 51.2117 54.411 47.5469 58.9207 47.5469H59.9873V64.4009ZM57.8541 49.7714C55.0296 50.2742 52.8793 52.7458 52.8793 55.7118V56.236C52.8793 59.1977 55.0296 61.6693 57.8541 62.1764V49.7714Z" fill="#222222"/>
<path d="M100.961 65.3173H99.894V48.4633H100.961C105.47 48.4633 109.135 52.1281 109.135 56.6282V57.1524C109.135 61.6525 105.47 65.3173 100.961 65.3173ZM102.027 50.6877V63.0928C104.852 62.59 107.002 60.1183 107.002 57.1524V56.6282C107.002 53.6665 104.852 51.1948 102.027 50.6877Z" fill="#222222"/>
<path d="M78.9753 152.357L61.0844 114.012L62.9448 105.05L56.0239 98.5729L57.8672 85.2899L59.9793 85.5797L58.2896 97.776L65.2787 104.313L63.316 113.752L80.9082 151.458L78.9753 152.357Z" fill="#222222"/>
<path d="M81.0925 152.357L79.1597 151.458L96.7519 113.752L94.7891 104.313L101.778 97.776L100.089 85.5797L102.201 85.2899L104.044 98.5729L97.1231 105.05L98.9834 114.012L98.8341 114.332L81.0925 152.357Z" fill="#222222"/>
<mask id="mask1_605_20141" style="mask-type:luminance" maskUnits="userSpaceOnUse" x="58" y="27" width="43" height="48">
<path d="M85.2142 74.6561H74.658C65.9707 74.6561 58.9176 67.6119 58.9176 58.9356V48.12C58.9176 36.5331 68.3345 27.1281 79.9361 27.1281C91.5377 27.1281 100.955 36.5331 100.955 48.12V58.9356C100.955 67.6119 93.9015 74.6561 85.2142 74.6561Z" fill="white"/>
</mask>
<g mask="url(#mask1_605_20141)">
<path d="M59.0592 50.2269H48.9126V20.2561H74.9788V34.3232C74.9788 43.089 67.8361 50.2226 59.0592 50.2226V50.2269ZM51.046 48.0962H59.0592C66.6627 48.0962 72.8454 41.9171 72.8454 34.3274V22.3911H51.046V48.1004V48.0962Z" fill="#222222"/>
<path d="M102.856 48.3855H88.7712C79.9943 48.3855 72.8516 41.2519 72.8516 32.4861V22.3523H102.86V48.3855H102.856ZM74.9807 24.4831V32.4861C74.9807 40.08 81.1676 46.2548 88.7669 46.2548H100.718V24.4831H74.9765H74.9807Z" fill="#222222"/>
</g>
</g>
</g>
<defs>
<clipPath id="clip0_605_20141">
<rect width="200" height="204" fill="white"/>
</clipPath>
</defs>
</svg>
