<svg width="42" height="42" viewBox="0 0 42 42" fill="none" xmlns="http://www.w3.org/2000/svg">
<circle cx="21" cy="21" r="20" stroke="#222222"/>
<path d="M11 20.5C10.7239 20.5 10.5 20.7239 10.5 21C10.5 21.2761 10.7239 21.5 11 21.5V20.5ZM31.3536 21.3536C31.5488 21.1583 31.5488 20.8417 31.3536 20.6464L28.1716 17.4645C27.9763 17.2692 27.6597 17.2692 27.4645 17.4645C27.2692 17.6597 27.2692 17.9763 27.4645 18.1716L30.2929 21L27.4645 23.8284C27.2692 24.0237 27.2692 24.3403 27.4645 24.5355C27.6597 24.7308 27.9763 24.7308 28.1716 24.5355L31.3536 21.3536ZM11 21.5H31V20.5H11V21.5Z" fill="#222222"/>
</svg>
