<svg width="42" height="42" viewBox="0 0 42 42" fill="none" xmlns="http://www.w3.org/2000/svg">
<circle cx="21" cy="21" r="20" fill="#222222" stroke="#222222"/>
<path d="M12.75 25.567C12.5109 25.7051 12.4289 26.0109 12.567 26.25C12.7051 26.4891 13.0109 26.5711 13.25 26.433L12.75 25.567ZM30.8035 16.1294C30.8749 15.8627 30.7167 15.5885 30.4499 15.517L26.1033 14.3524C25.8365 14.2809 25.5624 14.4392 25.4909 14.7059C25.4194 14.9726 25.5777 15.2468 25.8444 15.3183L29.7081 16.3536L28.6729 20.2173C28.6014 20.484 28.7597 20.7582 29.0264 20.8296C29.2931 20.9011 29.5673 20.7428 29.6388 20.4761L30.8035 16.1294ZM13.25 26.433L30.5705 16.433L30.0705 15.567L12.75 25.567L13.25 26.433Z" fill="white"/>
</svg>
