<svg width="331" height="265" viewBox="0 0 331 265" fill="none" xmlns="http://www.w3.org/2000/svg">
<path d="M16.32 239.776V251.776H18.12V239.776H16.32ZM1.44 245.776C1.44 248.656 3.72 250.648 6.888 250.648C10.056 250.648 12.336 248.656 12.336 245.776C12.336 242.872 10.056 240.88 6.888 240.88C3.72 240.88 1.44 242.872 1.44 245.776ZM3.192 245.776C3.192 243.784 4.752 242.392 6.888 242.392C9.024 242.392 10.584 243.784 10.584 245.776C10.584 247.768 9.024 249.136 6.888 249.136C4.752 249.136 3.192 247.768 3.192 245.776ZM4.608 260.464H18.12V252.928H4.608V260.464ZM6.36 259V254.368H16.368V259H6.36ZM36.8166 239.752V252.448H38.6166V239.752H36.8166ZM21.7446 250.504L22.6806 251.896C25.2006 250.984 27.1446 249.088 28.0326 246.664C28.9686 248.92 30.9126 250.672 33.3366 251.512L34.2486 250.096C31.2006 249.064 28.8966 246.496 28.8966 243.64V242.728H33.7206V241.24H22.2246V242.728H27.0726V243.64C27.0726 246.664 24.8646 249.376 21.7446 250.504ZM24.6486 255.088H36.8166V260.752H38.6166V253.6H24.6486V255.088ZM57.2651 239.752V252.184H52.9691V253.504H57.2651V255.736H59.0651V239.752H57.2651ZM41.8091 249.496L42.0731 251.008C43.8251 251.008 45.8411 250.984 47.9531 250.888V254.968H49.7531V250.792C51.6731 250.696 53.6411 250.504 55.5131 250.192L55.3931 248.896C50.9051 249.448 45.6971 249.496 41.8091 249.496ZM43.4891 244.264C43.4891 246.496 45.5771 247.912 48.6491 247.912C51.7211 247.912 53.8091 246.496 53.8091 244.264C53.8091 242.056 51.7211 240.616 48.6491 240.616C45.5771 240.616 43.4891 242.056 43.4891 244.264ZM44.8331 260.272H59.5931V258.784H46.6331V254.176H44.8331V260.272ZM45.1931 244.264C45.1931 242.872 46.6331 241.96 48.6491 241.96C50.6891 241.96 52.0811 242.872 52.0811 244.264C52.0811 245.656 50.6891 246.544 48.6491 246.544C46.6331 246.544 45.1931 245.656 45.1931 244.264ZM76.9809 240.016C72.3729 240.016 69.6129 241.312 69.6129 243.64C69.6129 245.824 72.0129 247.12 76.0689 247.288V248.92H67.5009V250.384H86.4609V248.92H77.8689V247.288C81.9489 247.144 84.3489 245.848 84.3489 243.64C84.3489 241.312 81.5889 240.016 76.9809 240.016ZM69.8049 253.6H82.2609V255.544H69.8769V260.512H84.6609V259.096H71.6289V256.888H84.0129V252.184H69.8049V253.6ZM71.4609 243.64C71.4609 242.224 73.5249 241.384 76.9809 241.384C80.4369 241.384 82.5009 242.224 82.5009 243.64C82.5009 245.104 80.4369 245.92 76.9809 245.92C73.5249 245.92 71.4609 245.104 71.4609 243.64ZM102.325 239.752V260.752H104.125V249.592H107.605V248.056H104.125V239.752H102.325ZM88.8855 255.688H98.6295V241.552H96.8535V247.12H90.6615V241.552H88.8855V255.688ZM90.6615 254.2V248.56H96.8535V254.2H90.6615ZM108.494 251.416V252.904H127.526V251.416H108.494ZM110.918 241.888H123.278V244.264H110.966V249.448H125.51V248.032H112.718V245.632H125.054V240.472H110.918V241.888ZM111.014 260.272H125.534V258.808H112.814V254.608H111.014V260.272ZM143.522 240.28C139.106 240.28 136.178 241.912 136.178 244.48C136.178 247.048 139.106 248.656 143.522 248.656C147.962 248.656 150.866 247.048 150.866 244.48C150.866 241.912 147.962 240.28 143.522 240.28ZM134.066 251.776H140.666V256.192H142.466V251.776H146.354V256.192H148.154V251.776H153.026V250.312H134.066V251.776ZM136.394 260.272H151.058V258.784H138.194V254.44H136.394V260.272ZM138.098 244.48C138.098 242.824 140.282 241.768 143.522 241.768C146.786 241.768 148.97 242.824 148.97 244.48C148.97 246.136 146.786 247.168 143.522 247.168C140.282 247.168 138.098 246.136 138.098 244.48ZM169.922 239.728V260.776H171.722V239.728H169.922ZM155.714 243.208H163.586V247.672H155.762V255.664H157.49C161.066 255.664 164.234 255.544 168.074 254.896L167.882 253.432C164.138 254.032 161.042 254.176 157.562 254.176V249.16H165.386V241.744H155.714V243.208ZM176.211 241.384V242.872H184.827C184.827 244.192 184.779 245.992 184.251 248.512L186.027 248.704C186.579 245.92 186.579 243.832 186.579 242.488V241.384H176.211ZM174.915 250.672L175.131 252.16C178.827 252.16 183.867 252.064 188.211 251.32L188.091 250C185.931 250.312 183.531 250.48 181.203 250.576V246.04H179.427V250.624C177.819 250.672 176.259 250.672 174.915 250.672ZM178.155 260.272H192.003V258.784H179.931V254.128H178.155V260.272ZM189.531 255.568H191.331V248.128H194.403V246.64H191.331V239.752H189.531V255.568ZM215.007 239.776V253.816H216.807V247.648H219.951V246.16H216.807V239.776H215.007ZM200.487 251.728L200.727 253.192C204.375 253.192 209.367 253.168 213.879 252.352L213.735 251.056C211.887 251.32 209.919 251.488 207.951 251.584V250.072C210.375 249.856 211.911 248.728 211.911 247C211.911 245.08 209.991 243.904 207.039 243.904C204.111 243.904 202.191 245.08 202.191 247C202.191 248.752 203.751 249.88 206.175 250.072V251.656C204.135 251.728 202.167 251.728 200.487 251.728ZM201.015 243.064H213.087V241.696H207.951V239.584H206.175V241.696H201.015V243.064ZM203.055 256.336H215.007V260.752H216.807V254.896H203.055V256.336ZM203.895 247C203.895 245.872 205.119 245.152 207.039 245.152C208.983 245.152 210.207 245.872 210.207 247C210.207 248.104 208.983 248.872 207.039 248.872C205.119 248.872 203.895 248.104 203.895 247ZM236.439 239.752V251.272H238.263V239.752H236.439ZM222.111 242.248H229.863V244.984H222.159V250.816H223.839C227.703 250.816 230.559 250.72 234.039 250.144L233.823 248.656C230.463 249.208 227.655 249.328 223.911 249.328V246.4H231.615V240.784H222.111V242.248ZM224.727 260.464H238.263V252.352H236.487V254.896H226.503V252.352H224.727V260.464ZM226.503 258.976V256.336H236.487V258.976H226.503Z" fill="black"/>
<path d="M239.3 197.6C229.6 197.6 223.2 186.9 223.2 170.8C223.2 154.8 229.6 144.1 239.3 144.1C248.9 144.1 255.3 154.8 255.3 170.8C255.3 186.9 248.9 197.6 239.3 197.6ZM211.2 170.8C211.2 192.7 222.8 208.1 239.3 208.1C255.7 208.1 267.3 192.7 267.3 170.8C267.3 149 255.7 133.7 239.3 133.7C222.8 133.7 211.2 149 211.2 170.8Z" fill="#DDDDDD"/>
<path d="M317.853 134.4H306.453L273.753 178.9L274.753 189.2H305.953V207.4H317.853V189.2H326.453V178.9H317.853V134.4ZM287.753 178.9L305.953 154.1V178.9H287.753Z" fill="black"/>
<g clip-path="url(#clip0_605_3540)">
<path d="M125.32 150.447L119.25 156.492L119.18 156.422C118.75 156.781 118.29 157.12 117.77 157.398C106.24 163.682 92.18 163.682 80.65 157.398C75.67 154.68 74.77 147.908 78.79 143.904L93.14 129.613C93.41 129.345 93.71 129.096 94.01 128.867L116.5 106.469L112.81 102.794C109.16 98.4226 103.66 95.6441 97.5 95.6441C97.4 95.6441 97.31 95.6441 97.21 95.6441V95.5843H58.43C58.13 95.5445 57.83 95.5146 57.53 95.5146H27.06C23.44 95.5146 20.5 98.4425 20.5 102.048V148.495C20.5 151.971 23.23 154.799 26.67 155.008H26.74C26.85 155.008 26.95 155.028 27.06 155.028H50.55L100.94 205.211C104.59 209.662 110.14 212.5 116.37 212.5C121.52 212.5 126.2 210.558 129.74 207.362L129.78 207.401L173.83 163.533L173.8 163.503L156.11 181.09L125.34 150.447H125.32Z" fill="#CFF2F4"/>
<path d="M116.36 215C109.65 215 103.36 212.042 99.0798 206.894L49.5098 157.528H27.0598C26.9298 157.528 26.7998 157.528 26.6798 157.508C26.5698 157.508 26.4698 157.508 26.3698 157.488C21.6698 157.13 18.0098 153.216 18.0098 148.505V102.058C18.0098 97.0881 22.0698 93.0349 27.0698 93.0349H57.5498C57.8898 93.0349 58.2298 93.0548 58.6198 93.1046H97.2398C97.4098 93.1046 97.5798 93.1245 97.7398 93.1544C104.3 93.2141 110.46 96.1022 114.69 101.111L118.3 104.707C119.28 105.683 119.28 107.256 118.3 108.232L95.8098 130.629C95.7298 130.709 95.6498 130.779 95.5598 130.848C95.2998 131.048 95.1098 131.207 94.9498 131.376L80.5898 145.667C79.2098 147.041 78.5798 148.924 78.8598 150.846C79.1298 152.718 80.2298 154.311 81.8798 155.208C92.5898 161.043 105.89 161.043 116.6 155.208C116.92 155.028 117.25 154.799 117.59 154.51C117.72 154.401 117.86 154.311 118 154.232L123.58 148.685C124.56 147.709 126.14 147.709 127.12 148.685L156.13 177.575L172.05 161.75C173.03 160.774 174.61 160.784 175.58 161.75C176.56 162.726 176.59 164.33 175.61 165.306L131.56 209.174C131.4 209.333 131.22 209.463 131.03 209.572C126.96 213.078 121.78 215 116.38 215H116.36ZM26.8398 152.529C26.8398 152.529 26.8598 152.529 26.8698 152.529H27.0198L50.5598 152.539C51.2198 152.539 51.8598 152.797 52.3298 153.266L102.72 203.448C102.78 203.508 102.84 203.567 102.89 203.637C106.22 207.69 111.13 210.021 116.38 210.021C120.71 210.021 124.86 208.427 128.07 205.529C128.17 205.44 128.27 205.36 128.38 205.29L152.63 181.14L125.35 153.973L121.05 158.255C120.81 158.494 120.53 158.673 120.23 158.803C119.82 159.101 119.42 159.37 119 159.589C106.81 166.232 91.6698 166.232 79.4798 159.589C76.4298 157.926 74.3998 155.008 73.9098 151.563C73.4098 148.077 74.5498 144.641 77.0498 142.152L91.3998 127.861C91.6898 127.572 91.9998 127.303 92.3798 127.004L112.99 106.479L111.07 104.567C111.02 104.517 110.97 104.458 110.92 104.398C107.6 100.424 102.72 98.1437 97.5298 98.1437H97.2598C97.0798 98.1437 96.8898 98.1437 96.7098 98.0939H58.4498C58.3398 98.0939 58.2198 98.0939 58.1098 98.074C57.9298 98.0442 57.7398 98.0242 57.5498 98.0242H27.0598C24.8198 98.0242 22.9998 99.8367 22.9998 102.067V148.515C22.9998 150.646 24.6798 152.419 26.8098 152.539C26.8098 152.539 26.8198 152.539 26.8298 152.539L26.8398 152.529Z" fill="#231815"/>
<path d="M213.94 95.5345H206.12H135.65V95.5943C135.55 95.5943 135.46 95.5943 135.36 95.5943C128.78 95.5943 122.95 98.7711 119.32 103.681L116.5 106.489L94.0101 128.886C93.7101 129.116 93.4201 129.355 93.1401 129.633L78.7901 143.924C74.7701 147.928 75.6701 154.7 80.6501 157.418C92.1801 163.702 106.24 163.702 117.77 157.418C118.29 157.14 118.75 156.801 119.18 156.442L119.25 156.512L125.32 150.467L156.09 181.11L173.78 163.523L182.35 155.008C182.35 155.008 214.16 155.038 214.26 155.028H214.33C217.77 154.829 220.5 151.991 220.5 148.515V102.067C220.5 98.4624 217.57 95.5345 213.94 95.5345Z" fill="white"/>
<path d="M156.1 183.59C155.46 183.59 154.82 183.351 154.33 182.863L125.32 153.973L121.02 158.255C120.78 158.494 120.5 158.673 120.2 158.803C119.79 159.101 119.39 159.37 118.97 159.589C106.78 166.232 91.64 166.232 79.45 159.589C76.4 157.926 74.37 155.008 73.88 151.563C73.38 148.077 74.52 144.641 77.02 142.152L91.37 127.861C91.66 127.572 91.97 127.303 92.35 127.004L117.42 102.038C121.6 96.4906 128.21 93.1544 135.16 93.0946C135.32 93.0648 135.48 93.0448 135.64 93.0448H205.93C205.99 93.0448 206.05 93.0448 206.11 93.0448H213.93C218.92 93.0448 222.99 97.0881 222.99 102.067V148.515C222.99 153.285 219.25 157.229 214.47 157.508C214.3 157.508 214.22 157.518 183.38 157.498L157.86 182.873C157.37 183.361 156.73 183.6 156.09 183.6L156.1 183.59ZM125.33 147.967C125.97 147.967 126.61 148.206 127.1 148.694L156.11 177.585L180.59 153.246C181.06 152.778 181.69 152.519 182.36 152.519C193.17 152.519 213.73 152.549 214.24 152.539C216.33 152.419 218 150.646 218 148.515V102.067C218 99.8367 216.18 98.0242 213.94 98.0242H206.3C206.24 98.0242 206.18 98.0242 206.12 98.0242H136.15C135.98 98.0641 135.81 98.074 135.63 98.084H135.43C129.86 98.084 124.62 100.723 121.34 105.155C121.27 105.254 121.18 105.354 121.09 105.434L95.78 130.639C95.7 130.719 95.62 130.789 95.53 130.858C95.27 131.057 95.08 131.217 94.92 131.386L80.56 145.677C79.18 147.051 78.55 148.933 78.83 150.856C79.1 152.728 80.2 154.321 81.85 155.217C92.56 161.053 105.86 161.053 116.57 155.217C116.89 155.038 117.22 154.819 117.56 154.52C117.69 154.411 117.83 154.321 117.97 154.242L123.55 148.694C124.04 148.206 124.68 147.967 125.32 147.967H125.33Z" fill="#231815"/>
<path d="M117.01 76.9116C117.01 76.9116 159.89 57.4024 159.89 28.4622C159.89 28.4124 159.89 28.3626 159.89 28.3028C159.89 14.0518 148.29 2.4897 133.97 2.4897C127.48 2.4897 121.55 4.86985 117 8.7936C112.45 4.86985 106.52 2.4897 100.03 2.4897C85.7203 2.4897 74.1104 14.0419 74.1104 28.3028C74.1104 28.3526 74.1104 28.4024 74.1104 28.4622C74.1104 57.4024 116.99 76.9116 116.99 76.9116H117.01Z" fill="#FCF000"/>
<path d="M117.01 79.4013C116.66 79.4013 116.3 79.3216 115.97 79.1722C115.52 78.9631 104.85 74.0733 94.0101 65.4789C79.3601 53.8769 71.6201 41.07 71.6201 28.4522C71.6201 28.4223 71.6201 28.3924 71.6201 28.3626V28.2928C71.6201 12.6874 84.3701 -0.00999451 100.04 -0.00999451C106.17 -0.00999451 112.12 1.96184 117.01 5.5968C121.9 1.9718 127.85 -0.00999451 133.97 -0.00999451C149.64 -0.00999451 162.39 12.6874 162.39 28.2928C162.39 28.3028 162.39 28.3426 162.39 28.3725C162.39 28.4024 162.39 28.4223 162.39 28.4522C162.39 41.07 154.65 53.8769 140 65.4789C129.16 74.0634 118.49 78.9631 118.04 79.1722C117.71 79.3216 117.36 79.4013 117 79.4013H117.01ZM76.6201 28.5916C76.7401 53.1201 110.59 70.9762 117 74.143C123.42 70.9762 157.26 53.0802 157.38 28.5916C157.38 28.5418 157.38 28.492 157.38 28.4323C157.38 28.4123 157.38 28.3128 157.38 28.2928C157.38 15.4361 146.87 4.96939 133.96 4.96939C128.38 4.96939 122.99 6.96115 118.75 10.5662C118.3 11.0144 117.68 11.2932 117 11.2932C116.27 11.2932 115.62 10.9845 115.16 10.4965C110.93 6.93127 105.57 4.96939 100.03 4.96939C87.1201 4.96939 76.6101 15.4361 76.6101 28.2928V28.4522C76.6101 28.4522 76.6101 28.5418 76.6101 28.5816L76.6201 28.5916Z" fill="#231815"/>
</g>
<defs>
<clipPath id="clip0_605_3540">
<rect width="205" height="215" fill="white" transform="translate(18)"/>
</clipPath>
</defs>
</svg>
