<svg width="317" height="268" viewBox="0 0 317 268" fill="none" xmlns="http://www.w3.org/2000/svg">
<path d="M229.3 144.6C219.6 144.6 213.2 133.9 213.2 117.8C213.2 101.8 219.6 91.1 229.3 91.1C238.9 91.1 245.3 101.8 245.3 117.8C245.3 133.9 238.9 144.6 229.3 144.6ZM201.2 117.8C201.2 139.7 212.8 155.1 229.3 155.1C245.7 155.1 257.3 139.7 257.3 117.8C257.3 96 245.7 80.7 229.3 80.7C212.8 80.7 201.2 96 201.2 117.8Z" fill="#DDDDDD"/>
<path d="M265.653 143.9L266.653 154.4H312.653V143.9H282.953C296.153 132.9 311.553 120.4 311.553 105.1C311.553 90.8 301.753 80.7 287.653 80.7C277.853 80.7 267.953 87.3 263.753 96.6L274.153 101.3C276.653 95.7 282.153 91.8 287.653 91.8C294.653 91.8 299.553 97.3 299.553 105.1C299.553 117 280.353 129.8 265.653 143.9Z" fill="black"/>
<path d="M17.7953 247.696V249.16H21.4193V251.776H17.7713V253.24H21.4193V255.136H23.2193V242.752H21.4193V247.696H17.7953ZM6.01125 246.352H17.8193V244.888H12.8993V242.536H11.0993V244.888H6.01125V246.352ZM7.23525 251.2C7.23525 253.48 9.17925 254.968 11.9633 254.968C14.7713 254.968 16.6913 253.48 16.6913 251.2C16.6913 248.92 14.7713 247.432 11.9633 247.432C9.17925 247.432 7.23525 248.92 7.23525 251.2ZM8.93925 251.2C8.93925 249.76 10.1393 248.8 11.9633 248.8C13.7873 248.8 15.0113 249.76 15.0113 251.2C15.0113 252.64 13.7873 253.624 11.9633 253.624C10.1393 253.624 8.93925 252.64 8.93925 251.2ZM9.70725 263.464H23.2193V256.048H21.4433V258.304H11.4833V256.048H9.70725V263.464ZM11.4833 262.024V259.72H21.4433V262.024H11.4833ZM27.3238 244.024V245.512H34.5958V248.488H27.3958V254.68H28.8598C33.1078 254.68 35.1958 254.608 37.8118 254.152L37.6198 252.688C35.1478 253.144 33.1318 253.216 29.1718 253.216V249.904H36.3718V244.024H27.3238ZM29.7238 258.28H41.9398V263.8H43.7398V256.816H29.7238V258.28ZM37.7638 251.704H41.9398V255.664H43.7398V242.776H41.9398V245.896H37.7638V247.384H41.9398V250.24H37.7638V251.704ZM52.7164 243.736C49.5724 243.736 47.3164 245.704 47.3164 248.584C47.3164 251.44 49.5724 253.432 52.7164 253.432C55.5724 253.432 57.7084 251.752 58.0444 249.28H62.4364V254.008H64.2364V242.752H62.4364V247.792H58.0444C57.6604 245.344 55.5484 243.736 52.7164 243.736ZM49.0444 248.584C49.0444 246.616 50.5564 245.248 52.7164 245.248C54.8524 245.248 56.3644 246.616 56.3644 248.584C56.3644 250.528 54.8524 251.896 52.7164 251.896C50.5564 251.896 49.0444 250.528 49.0444 248.584ZM50.8444 263.464H64.2364V255.088H62.4364V257.776H52.6444V255.088H50.8444V263.464ZM52.6444 262V259.216H62.4364V262H52.6444ZM76.0449 251.08V252.568H79.3569V262.648H81.0369V243.256H79.3569V251.08H76.0449ZM67.3329 258.04L68.3889 259.432C70.4769 258.16 71.9889 255.784 72.7329 253.072C73.5009 255.616 75.0129 257.8 77.0769 258.952L78.1089 257.608C75.3009 256.072 73.5729 252.592 73.5729 249.232V248.152H77.4849V246.664H73.5729V243.496H71.8449V246.664H67.8849V248.152H71.8449V249.232C71.8449 252.688 70.1649 256.384 67.3329 258.04ZM83.5569 263.752H85.2849V242.752H83.5569V263.752ZM94.2855 244.12C91.0455 244.12 88.7415 246.136 88.7415 249.04C88.7415 251.704 90.6375 253.576 93.3975 253.912V257.584C91.3815 257.656 89.4375 257.656 87.7575 257.656L88.0455 259.168C91.7175 259.168 96.6615 259.12 101.077 258.376L100.933 257.032C99.1095 257.272 97.1415 257.416 95.1975 257.512V253.912C97.9335 253.552 99.8055 251.68 99.8055 249.04C99.8055 246.136 97.5015 244.12 94.2855 244.12ZM90.4935 249.04C90.4935 247.048 92.0775 245.656 94.2855 245.656C96.4695 245.656 98.0535 247.048 98.0535 249.04C98.0535 251.032 96.4695 252.424 94.2855 252.424C92.0775 252.424 90.4935 251.032 90.4935 249.04ZM102.277 263.752H104.053V252.976H107.461V251.464H104.053V242.752H102.277V263.752ZM113.569 253.168V254.632H132.529V253.168H123.913V250.696H130.297V249.208H117.745V245.2H130.153V243.736H115.969V250.696H122.137V253.168H113.569ZM115.849 259.96C115.849 262.384 118.537 263.728 123.025 263.728C127.489 263.728 130.201 262.384 130.201 259.96C130.201 257.56 127.489 256.192 123.025 256.192C118.537 256.192 115.849 257.56 115.849 259.96ZM117.649 259.96C117.649 258.472 119.689 257.608 123.025 257.608C126.361 257.608 128.377 258.472 128.377 259.96C128.377 261.472 126.361 262.312 123.025 262.312C119.689 262.312 117.649 261.472 117.649 259.96ZM148.538 242.776V258.16H150.338V250.648H153.458V249.16H150.338V242.776H148.538ZM134.978 254.632H144.65V244.264H142.874V247.84H136.754V244.264H134.978V254.632ZM136.754 253.168V249.256H142.874V253.168H136.754ZM137.33 263.272H151.298V261.784H139.106V256.696H137.33V263.272ZM154.946 244.912V246.424H159.794V249.256C159.794 252.832 157.154 256.816 154.226 258.28L155.282 259.696C157.61 258.472 159.722 255.76 160.682 252.712C161.618 255.52 163.61 258.016 165.962 259.192L166.994 257.752C163.994 256.336 161.546 252.592 161.546 249.256V246.424H166.25V244.912H154.946ZM168.842 263.752H170.642V252.808H174.122V251.296H170.642V242.752H168.842V263.752ZM181.262 244.384V245.872H189.878C189.878 247.192 189.83 248.992 189.302 251.512L191.078 251.704C191.63 248.92 191.63 246.832 191.63 245.488V244.384H181.262ZM179.966 253.672L180.182 255.16C183.878 255.16 188.918 255.064 193.262 254.32L193.142 253C190.982 253.312 188.582 253.48 186.254 253.576V249.04H184.478V253.624C182.87 253.672 181.31 253.672 179.966 253.672ZM183.206 263.272H197.054V261.784H184.982V257.128H183.206V263.272ZM194.582 258.568H196.382V251.128H199.454V249.64H196.382V242.752H194.582V258.568ZM208.551 253.888V255.352H212.463V262.648H214.167V243.304H212.463V248.632H209.223C209.415 247.6 209.511 246.52 209.511 245.44H201.471V246.928H207.735C207.399 251.344 205.095 255.184 200.583 257.896L201.639 259.216C205.599 256.84 207.879 253.648 208.887 250.096H212.463V253.888H208.551ZM216.663 263.752H218.391V242.752H216.663V263.752ZM240.555 242.776V256.816H242.355V250.648H245.499V249.16H242.355V242.776H240.555ZM226.035 254.728L226.275 256.192C229.923 256.192 234.915 256.168 239.427 255.352L239.283 254.056C237.435 254.32 235.467 254.488 233.499 254.584V253.072C235.923 252.856 237.459 251.728 237.459 250C237.459 248.08 235.539 246.904 232.587 246.904C229.659 246.904 227.739 248.08 227.739 250C227.739 251.752 229.299 252.88 231.723 253.072V254.656C229.683 254.728 227.715 254.728 226.035 254.728ZM226.563 246.064H238.635V244.696H233.499V242.584H231.723V244.696H226.563V246.064ZM228.603 259.336H240.555V263.752H242.355V257.896H228.603V259.336ZM229.443 250C229.443 248.872 230.667 248.152 232.587 248.152C234.531 248.152 235.755 248.872 235.755 250C235.755 251.104 234.531 251.872 232.587 251.872C230.667 251.872 229.443 251.104 229.443 250ZM261.987 242.752V254.272H263.811V242.752H261.987ZM247.659 245.248H255.411V247.984H247.707V253.816H249.387C253.251 253.816 256.107 253.72 259.587 253.144L259.371 251.656C256.011 252.208 253.203 252.328 249.459 252.328V249.4H257.163V243.784H247.659V245.248ZM250.275 263.464H263.811V255.352H262.035V257.896H252.051V255.352H250.275V263.464ZM252.051 261.976V259.336H262.035V261.976H252.051Z" fill="black"/>
<g clip-path="url(#clip0_605_3521)">
<path d="M122.967 121.629C125.729 124.391 130.206 124.391 132.968 121.629C135.731 118.867 135.731 114.389 132.968 111.627L105.536 84.1967L105.576 84.1568L138.443 117.022C141.205 119.784 145.682 119.784 148.445 117.022C151.207 114.26 151.207 109.783 148.445 107.021L143.548 102.125C146.331 104.358 150.399 104.189 152.982 101.616C155.744 98.8544 155.744 94.3773 152.982 91.6153L125.549 64.1846L125.569 64.1646L130.794 69.3895C133.826 72.4207 138.732 72.4207 141.764 69.3895C144.795 66.3583 144.795 61.4524 141.764 58.4212L135.551 52.2092C135.451 51.9998 135.322 51.8003 135.142 51.6209L115.897 30.0632C113.443 27.6102 110.133 26.5633 106.942 26.9023L87.078 25.5562L87.048 25.5961L65.3992 3.96857L28.8125 40.5528L54.6495 66.3882L60.164 78.892L60.2836 78.7624C60.6426 79.4006 61.0913 80.0088 61.6398 80.5473L83.9169 102.823C84.0964 103.002 84.3058 103.132 84.5152 103.232L98.6353 117.351C101.398 120.113 105.875 120.113 108.637 117.351C111.399 114.589 111.399 110.112 108.637 107.35L95.4942 94.2078L95.5241 94.1779L122.957 121.609L122.967 121.629Z" fill="white"/>
<path d="M127.962 126.185C125.41 126.185 123.006 125.188 121.201 123.383L112.835 115.018C112.406 116.523 111.599 117.939 110.412 119.126C106.682 122.855 100.61 122.855 96.8801 119.126L83.0192 105.266C82.7001 105.076 82.4209 104.857 82.1616 104.598L59.8845 82.3221C59.4558 81.8933 59.0569 81.4147 58.6979 80.9062C58.3489 80.6469 58.0697 80.3079 57.8902 79.8991L52.5552 67.824L27.0473 42.3077C26.5786 41.8391 26.3193 41.2109 26.3193 40.5428C26.3193 39.8748 26.5786 39.2466 27.0473 38.7779L63.634 2.20365C64.6112 1.22647 66.1867 1.22647 67.164 2.20365L88.0849 23.1232L106.892 24.3895C110.9 24.0405 114.809 25.4465 117.651 28.2883C117.681 28.3182 117.721 28.3581 117.751 28.388L136.967 49.9058C137.186 50.1351 137.386 50.3944 137.565 50.6835L143.528 56.6463C145.463 58.5807 146.53 61.1533 146.53 63.8954C146.53 66.6374 145.463 69.21 143.528 71.1444C142.192 72.4805 140.547 73.4079 138.752 73.8466L154.747 89.8404C158.476 93.5696 158.476 99.6421 154.747 103.371C153.58 104.538 152.184 105.346 150.708 105.784C152.204 107.519 153.012 109.703 153.012 112.006C153.012 114.559 152.014 116.962 150.209 118.767C148.405 120.572 146.001 121.569 143.449 121.569C141.115 121.569 138.921 120.741 137.176 119.225C136.738 120.781 135.91 122.207 134.733 123.383C132.928 125.188 130.525 126.185 127.972 126.185H127.962ZM95.5438 91.705C96.182 91.705 96.8103 91.9443 97.2889 92.4229L124.721 119.854C125.589 120.721 126.736 121.2 127.962 121.2C129.189 121.2 130.336 120.721 131.203 119.854C132.071 118.986 132.549 117.839 132.549 116.613C132.549 115.387 132.071 114.24 131.203 113.372L103.771 85.9417C102.793 84.9645 102.793 83.389 103.771 82.4118C104.748 81.4347 106.363 81.3948 107.341 82.372L140.208 115.237C141.075 116.104 142.222 116.583 143.449 116.583C144.675 116.583 145.822 116.104 146.689 115.237C147.557 114.369 148.036 113.223 148.036 111.996C148.036 110.77 147.557 109.623 146.689 108.756L141.803 103.87C140.866 102.933 140.826 101.427 141.713 100.44C142.601 99.4526 144.097 99.3329 145.134 100.161C146.959 101.626 149.581 101.487 151.237 99.8315C153.022 98.0467 153.022 95.1451 151.237 93.3602L123.804 65.9295C122.837 64.9623 122.827 63.4068 123.774 62.4296C124.243 61.951 124.881 61.6718 125.549 61.6618C126.227 61.6818 126.865 61.9111 127.334 62.3797L132.559 67.6046C133.556 68.6018 134.873 69.1502 136.279 69.1502C137.685 69.1502 139.001 68.6018 139.998 67.6046C140.995 66.6075 141.544 65.2913 141.544 63.8854C141.544 62.4795 140.995 61.1633 139.998 60.1661L133.786 53.9541C133.596 53.7646 133.437 53.5453 133.317 53.296C133.307 53.286 133.297 53.2761 133.287 53.2561L114.091 31.7582C112.267 29.9634 109.764 29.086 107.201 29.3552C107.061 29.3751 106.912 29.3751 106.772 29.3552L87.2174 28.039C87.2174 28.039 87.1974 28.039 87.1874 28.039C86.4695 28.0789 85.7714 27.8296 85.2728 27.331L65.399 7.48837L32.3423 40.5528L56.4243 64.6332C56.6437 64.8526 56.8232 65.1118 56.9429 65.391L62.0784 77.0274C62.2279 77.177 62.3576 77.3565 62.4673 77.5459C62.7365 78.0245 63.0556 78.4433 63.4146 78.8023L85.6219 101.008C85.8612 101.128 86.1005 101.297 86.28 101.477L100.4 115.596C102.185 117.381 105.097 117.381 106.882 115.596C108.667 113.811 108.667 110.909 106.882 109.115L93.7389 95.9727C93.2703 95.504 93.011 94.8758 93.011 94.2078C93.011 93.5397 93.2703 92.9115 93.7389 92.4429C94.2276 91.9543 94.8857 91.695 95.5438 91.695V91.705Z" fill="#231815"/>
<path d="M148.016 106.163C145.563 106.163 143.12 105.236 141.255 103.371L111.529 73.6472C110.552 72.67 110.552 71.0946 111.529 70.1174C112.506 69.1402 114.082 69.1402 115.059 70.1174L144.785 99.8415C146.57 101.626 149.482 101.626 151.267 99.8415C153.052 98.0567 153.052 95.155 151.267 93.3702L122.378 64.4837C121.401 63.5065 121.401 61.9311 122.378 60.9539C123.355 59.9767 124.931 59.9767 125.908 60.9539L154.797 89.8404C158.526 93.5696 158.526 99.6421 154.797 103.371C152.932 105.236 150.479 106.163 148.036 106.163H148.016Z" fill="#231815"/>
<path d="M132.759 73.8266C132.121 73.8266 131.482 73.5873 130.994 73.0987L120.125 62.2302C119.147 61.253 119.147 59.6775 120.125 58.7004C121.102 57.7232 122.677 57.7232 123.655 58.7004L134.524 69.5689C135.501 70.5461 135.501 72.1216 134.524 73.0987C134.035 73.5873 133.397 73.8266 132.759 73.8266Z" fill="#231815"/>
<path d="M145.363 96.1521C142.601 93.3901 138.123 93.3901 135.361 96.1521C132.599 98.9141 132.599 103.391 135.361 106.153L162.794 133.584L162.754 133.624L129.886 100.759C127.124 97.9968 122.647 97.9968 119.885 100.759C117.123 103.521 117.123 107.998 119.885 110.76L124.781 115.656C121.999 113.422 117.93 113.592 115.348 116.164C112.585 118.926 112.585 123.403 115.348 126.165L142.78 153.596L142.76 153.616L137.535 148.391C134.503 145.36 129.597 145.36 126.566 148.391C123.534 151.422 123.534 156.328 126.566 159.359L132.778 165.571C132.878 165.781 133.008 165.98 133.187 166.16L152.433 187.717C154.886 190.17 158.197 191.217 161.388 190.878L181.251 192.224L181.281 192.185L202.91 213.812L239.497 177.228L213.66 151.392L208.145 138.889L208.026 139.018C207.667 138.38 207.218 137.772 206.67 137.233L184.393 114.958C184.213 114.778 184.004 114.649 183.794 114.549L169.674 100.43C166.912 97.6677 162.435 97.6677 159.672 100.43C156.91 103.192 156.91 107.669 159.672 110.431L172.815 123.573L172.785 123.603L145.353 96.172L145.363 96.1521Z" fill="#FCF000"/>
<path d="M202.92 216.305C202.282 216.305 201.644 216.066 201.155 215.577L180.234 194.657L161.428 193.391C157.419 193.75 153.51 192.334 150.668 189.492C150.638 189.462 150.598 189.423 150.568 189.393L131.352 167.875C131.133 167.645 130.934 167.386 130.754 167.097L124.791 161.134C120.792 157.136 120.792 150.635 124.791 146.646C126.157 145.28 127.812 144.383 129.568 143.944L113.563 127.94C109.833 124.211 109.833 118.139 113.563 114.409C114.729 113.243 116.125 112.435 117.601 111.996C116.106 110.261 115.298 108.078 115.298 105.774C115.298 103.222 116.295 100.819 118.1 99.0138C119.905 97.2091 122.308 96.2119 124.861 96.2119C127.194 96.2119 129.388 97.0395 131.133 98.5552C131.572 96.9997 132.4 95.5738 133.576 94.3972C135.381 92.5924 137.784 91.5953 140.337 91.5953C142.89 91.5953 145.293 92.5924 147.098 94.3972L155.464 102.763C155.893 101.257 156.701 99.8414 157.888 98.6549C161.617 94.9257 167.69 94.9257 171.419 98.6549L185.28 112.515C185.599 112.704 185.888 112.934 186.138 113.183L208.405 135.449C208.834 135.877 209.233 136.356 209.592 136.864C209.941 137.114 210.22 137.463 210.399 137.872L215.734 149.947L241.242 175.453C241.711 175.922 241.97 176.55 241.97 177.218C241.97 177.886 241.711 178.514 241.242 178.983L204.655 215.567C204.167 216.056 203.529 216.295 202.89 216.295L202.92 216.305ZM181.281 189.712C181.94 189.712 182.588 189.951 183.047 190.42L202.91 210.282L235.967 177.228L211.885 153.147C211.666 152.928 211.486 152.669 211.367 152.39L206.231 140.753C206.081 140.604 205.952 140.424 205.842 140.235C205.573 139.756 205.254 139.337 204.895 138.978L182.678 116.773C182.448 116.653 182.199 116.483 182.019 116.304L167.899 102.185C166.114 100.4 163.213 100.4 161.418 102.185C159.633 103.97 159.633 106.871 161.418 108.666L174.56 121.808C175.029 122.277 175.288 122.905 175.288 123.573C175.288 124.241 175.029 124.869 174.56 125.338C173.583 126.315 171.978 126.335 171.01 125.368L143.578 97.9369C142.71 97.0695 141.564 96.5908 140.337 96.5908C139.111 96.5908 137.964 97.0695 137.096 97.9369C136.229 98.8044 135.75 99.9511 135.75 101.178C135.75 102.404 136.229 103.551 137.096 104.418L164.529 131.849C164.997 132.318 165.257 132.956 165.257 133.614C165.257 134.272 164.988 134.91 164.519 135.379C163.542 136.346 161.926 136.386 160.959 135.409L128.092 102.544C127.224 101.676 126.077 101.198 124.851 101.198C123.624 101.198 122.478 101.676 121.61 102.544C120.742 103.411 120.264 104.558 120.264 105.784C120.264 107.011 120.742 108.157 121.61 109.025L126.496 113.911C127.434 114.848 127.473 116.354 126.586 117.341C125.698 118.328 124.203 118.448 123.166 117.62C121.341 116.154 118.718 116.294 117.063 117.949C115.278 119.734 115.278 122.636 117.063 124.43L144.495 151.861C145.463 152.828 145.473 154.384 144.525 155.361C144.057 155.84 143.418 156.119 142.75 156.129C142.082 156.129 141.434 155.879 140.965 155.411L135.74 150.186C133.686 148.132 130.345 148.132 128.301 150.186C126.247 152.24 126.247 155.58 128.301 157.624L134.514 163.836C134.703 164.026 134.863 164.245 134.982 164.495L135.012 164.525L154.208 186.022C156.033 187.817 158.536 188.695 161.098 188.425C161.238 188.405 161.388 188.405 161.527 188.425L181.082 189.742C181.082 189.742 181.102 189.742 181.112 189.742C181.162 189.742 181.212 189.742 181.252 189.742L181.281 189.712Z" fill="#231815"/>
<path d="M144.196 157.555C143.558 157.555 142.92 157.315 142.431 156.827L113.543 127.94C109.813 124.211 109.813 118.139 113.543 114.409C115.348 112.605 117.751 111.607 120.304 111.607C122.856 111.607 125.26 112.605 127.065 114.409L156.791 144.133C157.768 145.111 157.768 146.686 156.791 147.663C155.813 148.64 154.238 148.64 153.261 147.663L123.534 117.939C122.667 117.072 121.52 116.593 120.294 116.593C119.067 116.593 117.92 117.072 117.053 117.939C115.268 119.724 115.268 122.626 117.053 124.42L145.941 153.307C146.918 154.284 146.918 155.86 145.941 156.837C145.453 157.325 144.814 157.565 144.176 157.565L144.196 157.555Z" fill="#231815"/>
<path d="M146.44 159.818C145.802 159.818 145.163 159.579 144.675 159.09L133.795 148.212C132.818 147.234 132.818 145.659 133.795 144.682C134.773 143.705 136.348 143.705 137.325 144.682L148.205 155.56C149.182 156.538 149.182 158.113 148.205 159.09C147.716 159.579 147.078 159.818 146.44 159.818Z" fill="#231815"/>
<path d="M120.543 96.6108C117.781 99.3728 117.781 103.85 120.543 106.612C123.305 109.374 127.782 109.374 130.545 106.612L157.977 79.1812L158.017 79.2211L125.15 112.086C122.388 114.848 122.388 119.325 125.15 122.087C127.912 124.849 132.389 124.849 135.152 122.087L140.048 117.191C137.814 119.973 137.984 124.042 140.556 126.624C143.319 129.386 147.796 129.386 150.558 126.624L177.991 99.1933L178.011 99.2133L172.785 104.438C169.754 107.469 169.754 112.375 172.785 115.406C175.817 118.438 180.723 118.438 183.754 115.406L189.967 109.194C190.176 109.095 190.376 108.965 190.555 108.786L212.114 89.5412C214.567 87.0883 215.614 83.7779 215.275 80.5871L216.622 60.7245L216.582 60.6946L238.211 39.0671L201.624 2.46289L175.787 28.2982L163.282 33.8123L163.412 33.9319C162.774 34.2909 162.165 34.7396 161.627 35.288L139.35 57.5636C139.17 57.7431 139.041 57.9525 138.941 58.1619L124.821 72.2811C122.059 75.0431 122.059 79.5202 124.821 82.2822C127.583 85.0442 132.06 85.0442 134.823 82.2822L147.965 69.1402L147.995 69.1701L120.563 96.6008L120.543 96.6108Z" fill="#CFF2F4"/>
<path d="M145.562 131.181C143.109 131.181 140.666 130.244 138.802 128.379C137.635 127.212 136.827 125.816 136.388 124.341C134.653 125.826 132.469 126.644 130.156 126.644C127.603 126.644 125.2 125.647 123.395 123.842C119.825 120.272 119.676 114.559 122.936 110.81C121.381 110.371 119.955 109.543 118.778 108.367C115.049 104.638 115.049 98.5651 118.778 94.8359L127.144 86.4701C125.639 86.0413 124.223 85.2337 123.036 84.0471C119.307 80.3179 119.307 74.2454 123.036 70.5162L136.897 56.6562C137.086 56.3372 137.306 56.058 137.565 55.7987L159.842 33.5231C160.271 33.0943 160.75 32.6955 161.258 32.3365C161.517 31.9875 161.856 31.7083 162.265 31.5289L174.341 26.1943L199.859 0.697964C200.796 -0.239328 202.452 -0.239328 203.389 0.697964L239.976 37.2822C240.444 37.7509 240.704 38.3791 240.704 39.0471C240.704 39.7152 240.444 40.3434 239.976 40.812L219.055 61.7316L217.788 80.5472C218.147 84.5556 216.731 88.4643 213.889 91.3061C213.86 91.336 213.82 91.3759 213.79 91.4058L192.271 110.62C192.041 110.84 191.782 111.039 191.493 111.219L185.53 117.181C183.595 119.116 181.022 120.183 178.28 120.183C175.538 120.183 172.965 119.116 171.03 117.181C169.694 115.845 168.767 114.2 168.328 112.405L152.333 128.399C150.469 130.264 148.015 131.191 145.572 131.201L145.562 131.181ZM140.048 114.699C140.646 114.699 141.235 114.908 141.713 115.337C142.7 116.224 142.82 117.72 141.992 118.757C140.527 120.581 140.666 123.204 142.322 124.859C144.107 126.644 147.008 126.644 148.793 124.859L176.226 97.4284C177.203 96.4512 178.779 96.4512 179.756 97.4284C180.733 98.4056 180.743 100.001 179.776 100.968L174.551 106.193C173.553 107.19 173.005 108.506 173.005 109.912C173.005 111.318 173.553 112.634 174.551 113.632C175.548 114.629 176.864 115.177 178.27 115.177C179.676 115.177 181.002 114.629 181.99 113.632L188.202 107.42C188.391 107.23 188.611 107.071 188.86 106.951C188.87 106.941 188.88 106.931 188.89 106.921L210.389 87.7265C212.184 85.9017 213.062 83.399 212.793 80.8364C212.773 80.6968 212.773 80.5472 212.793 80.4076L214.109 60.8641C214.109 60.8641 214.109 60.8441 214.109 60.8342C214.069 60.1262 214.308 59.4183 214.817 58.9097L234.681 39.0471L201.624 5.99266L177.542 30.0731C177.323 30.2924 177.063 30.4719 176.784 30.5916L165.147 35.7267C164.998 35.8763 164.818 36.0059 164.629 36.1156C164.15 36.3848 163.731 36.7039 163.372 37.0629L141.165 59.2687C141.045 59.508 140.876 59.7473 140.696 59.9268L126.576 74.046C124.791 75.8308 124.791 78.7324 126.576 80.5273C128.361 82.3121 131.263 82.3121 133.048 80.5273L146.191 67.3852C146.659 66.9166 147.278 66.6175 147.966 66.6573C148.634 66.6573 149.272 66.9266 149.731 67.4052C150.688 68.3824 150.708 69.9678 149.731 70.935L122.298 98.3657C120.513 100.151 120.513 103.052 122.298 104.847C123.166 105.714 124.312 106.193 125.539 106.193C126.765 106.193 127.912 105.714 128.78 104.847L156.212 77.4162C157.18 76.449 158.755 76.4391 159.732 77.4063C160.201 77.8749 160.49 78.533 160.49 79.1911C160.49 79.8492 160.251 80.5173 159.782 80.9859L126.915 113.851C125.13 115.636 125.13 118.537 126.915 120.332C127.783 121.2 128.929 121.678 130.156 121.678C131.382 121.678 132.529 121.2 133.397 120.332L138.293 115.436C138.782 114.948 139.42 114.708 140.058 114.708L140.048 114.699Z" fill="#231815"/>
<path d="M145.563 131.231C143.01 131.231 140.607 130.234 138.802 128.429C136.997 126.624 136 124.221 136 121.668C136 119.116 136.997 116.713 138.802 114.908L168.528 85.1838C169.505 84.2066 171.08 84.2066 172.058 85.1838C173.035 86.161 173.035 87.7364 172.058 88.7136L142.332 118.438C141.464 119.305 140.985 120.452 140.985 121.678C140.985 122.905 141.464 124.051 142.332 124.919C143.199 125.786 144.346 126.265 145.572 126.265C146.799 126.265 147.946 125.786 148.813 124.919L177.702 96.0325C178.679 95.0553 180.255 95.0553 181.232 96.0325C182.209 97.0096 182.209 98.5851 181.232 99.5623L152.343 128.449C150.538 130.254 148.135 131.251 145.582 131.251L145.563 131.231Z" fill="#231815"/>
<path d="M170.841 108.895C170.203 108.895 169.565 108.656 169.076 108.167C168.099 107.19 168.099 105.615 169.076 104.638L179.955 93.769C180.933 92.7918 182.508 92.7918 183.485 93.769C184.463 94.7462 184.463 96.3216 183.485 97.2988L172.606 108.167C172.118 108.656 171.479 108.895 170.841 108.895Z" fill="#231815"/>
<path d="M146.161 121.369C148.923 118.607 148.923 114.13 146.161 111.368C143.399 108.606 138.921 108.606 136.159 111.368L108.727 138.799L108.687 138.759L141.554 105.894C144.316 103.132 144.316 98.6548 141.554 95.8928C138.792 93.1308 134.314 93.1308 131.552 95.8928L126.656 100.789C128.89 98.0067 128.72 93.9385 126.147 91.3559C123.385 88.5939 118.908 88.5939 116.146 91.3559L88.7131 118.787L88.6932 118.767L93.9184 113.542C96.9498 110.511 96.9498 105.605 93.9184 102.574C90.887 99.5423 85.9808 99.5423 82.9494 102.574L76.7369 108.786C76.5275 108.885 76.3281 109.015 76.1486 109.194L54.5895 128.439C52.1364 130.892 51.0894 134.202 51.4284 137.393L50.0822 157.255L50.1221 157.285L28.4932 178.913L65.0798 215.497L90.9169 189.662L103.422 184.148L103.292 184.028C103.93 183.669 104.538 183.22 105.077 182.672L127.354 160.396C127.533 160.217 127.663 160.008 127.763 159.798L141.883 145.679C144.645 142.917 144.645 138.44 141.883 135.678C139.121 132.916 134.643 132.916 131.881 135.678L118.738 148.82L118.708 148.79L146.141 121.359L146.161 121.369Z" fill="#CFF2F4"/>
<path d="M65.0796 218C64.4414 218 63.8032 217.761 63.3146 217.272L26.7279 180.688C26.2593 180.219 26 179.591 26 178.923C26 178.255 26.2593 177.627 26.7279 177.158L47.6489 156.239L48.9153 137.423C48.5563 133.414 49.9723 129.506 52.8143 126.664C52.8442 126.634 52.8841 126.594 52.914 126.564L74.4332 107.35C74.6626 107.13 74.9218 106.931 75.211 106.752L81.1742 100.789C83.1087 98.8544 85.6815 97.7874 88.4237 97.7874C91.166 97.7874 93.7387 98.8544 95.6732 100.789C97.0095 102.125 97.9369 103.77 98.3756 105.565L114.37 89.5712C116.175 87.7664 118.579 86.7693 121.131 86.7693C123.684 86.7693 126.087 87.7664 127.892 89.5712C129.059 90.7378 129.867 92.1338 130.305 93.6095C134.055 90.3888 139.739 90.5484 143.299 94.1081C146.869 97.6778 147.018 103.391 143.757 107.15C145.283 107.579 146.719 108.397 147.916 109.583C151.645 113.313 151.645 119.385 147.916 123.114L139.549 131.48C141.085 131.919 142.491 132.746 143.648 133.903C147.377 137.632 147.377 143.705 143.648 147.434L129.777 161.304C129.587 161.623 129.368 161.902 129.109 162.161L106.832 184.437C106.403 184.866 105.924 185.265 105.416 185.624C105.156 185.973 104.817 186.252 104.409 186.431L92.3327 191.766L66.8247 217.272C66.3361 217.761 65.6979 218 65.0597 218H65.0796ZM32.023 178.933L65.0796 211.987L89.1616 187.907C89.381 187.688 89.6403 187.508 89.9195 187.389L101.557 182.253C101.706 182.104 101.886 181.974 102.075 181.864C102.554 181.595 102.973 181.276 103.332 180.917L125.539 158.711C125.659 158.482 125.828 158.233 126.008 158.053L140.128 143.934C141.913 142.149 141.913 139.248 140.128 137.453C139.26 136.585 138.113 136.107 136.887 136.107C135.66 136.107 134.514 136.585 133.646 137.453L120.503 150.595C119.526 151.572 117.95 151.572 116.973 150.595C115.996 149.618 115.976 148.022 116.953 147.045L144.386 119.614C146.171 117.83 146.171 114.928 144.386 113.133C142.601 111.348 139.699 111.348 137.914 113.133L110.481 140.564C109.514 141.531 107.939 141.541 106.961 140.574C106.493 140.105 106.204 139.447 106.204 138.789C106.204 138.131 106.443 137.463 106.911 136.994L139.779 104.129C141.564 102.344 141.564 99.4427 139.779 97.6479C137.994 95.863 135.092 95.863 133.307 97.6479L128.411 102.544C127.473 103.481 125.968 103.521 124.98 102.633C123.993 101.746 123.874 100.25 124.701 99.2133C126.167 97.3886 126.028 94.7662 124.372 93.111C123.505 92.2435 122.358 91.7649 121.131 91.7649C119.905 91.7649 118.758 92.2435 117.891 93.111L90.458 120.542C89.9893 121.01 89.3611 121.26 88.673 121.27C88.0049 121.27 87.3667 120.99 86.898 120.512C85.9507 119.535 85.9407 117.959 86.908 116.992L92.1332 111.767C94.1874 109.713 94.1874 106.373 92.1332 104.329C91.1361 103.331 89.8198 102.783 88.4137 102.783C87.0077 102.783 85.6815 103.331 84.6942 104.329L78.4818 110.541C78.2923 110.73 78.063 110.89 77.8237 111.009C77.8137 111.019 77.8037 111.029 77.7937 111.039L56.2944 130.234C54.4995 132.058 53.622 134.561 53.8912 137.124C53.9112 137.263 53.9112 137.413 53.8912 137.553L52.575 157.096C52.575 157.096 52.575 157.116 52.575 157.126C52.6148 157.834 52.3755 158.542 51.867 159.05L32.003 178.913L32.023 178.933Z" fill="#231815"/>
<path d="M96.4211 133.534C95.7829 133.534 95.1447 133.295 94.656 132.806C93.6788 131.829 93.6788 130.254 94.656 129.276L124.382 99.5523C125.25 98.6848 125.728 97.5381 125.728 96.3117C125.728 95.0852 125.25 93.9385 124.382 93.071C123.515 92.2035 122.368 91.7249 121.141 91.7249C119.915 91.7249 118.768 92.2035 117.9 93.071L89.012 121.958C88.0347 122.935 86.4592 122.935 85.482 121.958C84.5047 120.98 84.5047 119.405 85.482 118.428L114.37 89.5412C116.175 87.7364 118.578 86.7393 121.131 86.7393C123.684 86.7393 126.087 87.7364 127.892 89.5412C129.697 91.346 130.694 93.7491 130.694 96.3017C130.694 98.8543 129.697 101.257 127.892 103.062L98.1661 132.786C97.6775 133.275 97.0393 133.514 96.4011 133.514L96.4211 133.534Z" fill="#231815"/>
<path d="M84.9833 124.939C84.3451 124.939 83.7069 124.7 83.2183 124.211C82.241 123.234 82.241 121.658 83.2183 120.681L94.0976 109.813C95.0748 108.835 96.6503 108.835 97.6276 109.813C98.6048 110.79 98.6048 112.365 97.6276 113.342L86.7483 124.211C86.2597 124.7 85.6215 124.939 84.9833 124.939Z" fill="#231815"/>
</g>
<defs>
<clipPath id="clip0_605_3521">
<rect width="216" height="218" fill="white" transform="translate(26)"/>
</clipPath>
</defs>
</svg>
