<svg width="401" height="303" viewBox="0 0 401 303" fill="none" xmlns="http://www.w3.org/2000/svg">
<circle cx="300" cy="125" r="101" fill="url(#paint0_radial_822_2431)"/>
<path d="M104.408 278.784V280.248H116.744V280.296C116.744 281.904 116.744 283.752 116.168 286.296H101.96V287.784H110.576V291.72H103.952V293.184H116.864V298.752H118.64V291.72H112.352V287.784H120.992V286.296H117.968C118.496 283.776 118.496 281.904 118.496 280.296V278.784H104.408ZM136.761 277.728V298.752H138.585V287.832H141.969V286.32H138.585V277.728H136.761ZM122.625 293.328L123.633 294.72C130.401 291.336 133.185 285.936 133.185 280.008H123.585V281.496H131.361C130.953 286.488 128.025 290.616 122.625 293.328ZM149.241 279.12C146.001 279.12 143.697 281.136 143.697 284.04C143.697 286.704 145.593 288.576 148.353 288.912V292.584C146.337 292.656 144.393 292.656 142.713 292.656L143.001 294.168C146.673 294.168 151.617 294.12 156.033 293.376L155.889 292.032C154.065 292.272 152.097 292.416 150.153 292.512V288.912C152.889 288.552 154.761 286.68 154.761 284.04C154.761 281.136 152.457 279.12 149.241 279.12ZM145.449 284.04C145.449 282.048 147.033 280.656 149.241 280.656C151.425 280.656 153.009 282.048 153.009 284.04C153.009 286.032 151.425 287.424 149.241 287.424C147.033 287.424 145.449 286.032 145.449 284.04ZM157.233 298.752H159.009V287.976H162.417V286.464H159.009V277.752H157.233V298.752ZM173.709 279.6V283.416C173.709 287.256 171.237 291.288 168.237 292.8L169.341 294.264C171.693 292.992 173.685 290.304 174.621 287.184C175.533 290.136 177.477 292.632 179.757 293.832L180.861 292.416C177.909 290.952 175.461 287.112 175.461 283.416V279.6H173.709ZM182.805 298.752H184.605V287.832H188.109V286.296H184.605V277.752H182.805V298.752ZM204.237 277.752V298.752H206.037V277.752H204.237ZM189.093 293.16L189.357 294.696C193.221 294.696 198.333 294.648 202.989 293.856L202.869 292.512C200.949 292.776 198.885 292.92 196.845 293.016V290.76C199.317 290.472 200.949 289.032 200.949 286.944C200.949 284.592 198.909 283.056 195.909 283.056C192.909 283.056 190.917 284.592 190.917 286.944C190.917 289.056 192.525 290.496 195.021 290.76V293.088C192.909 293.16 190.869 293.16 189.093 293.16ZM189.549 281.808H202.317V280.344H196.845V277.752H195.021V280.344H189.549V281.808ZM192.597 286.944C192.597 285.432 193.965 284.448 195.909 284.448C197.901 284.448 199.245 285.432 199.245 286.944C199.245 288.432 197.901 289.392 195.909 289.392C193.965 289.392 192.597 288.432 192.597 286.944ZM225.574 277.752V298.752H227.302V277.752H225.574ZM209.758 286.8C209.758 291.288 211.51 294.096 214.198 294.096C216.79 294.096 218.518 291.552 218.662 287.448H221.422V297.672H223.126V278.232H221.422V285.96H218.662C218.446 281.976 216.766 279.528 214.198 279.528C211.51 279.528 209.758 282.336 209.758 286.8ZM211.414 286.8C211.414 283.368 212.494 281.208 214.198 281.208C215.95 281.208 217.03 283.368 217.03 286.8C217.03 290.232 215.95 292.416 214.198 292.416C212.494 292.416 211.414 290.232 211.414 286.8ZM251.098 277.752V286.2H248.026V278.232H246.346V297.648H248.026V287.712H251.098V298.752H252.826V277.752H251.098ZM235.834 293.52H237.178C240.37 293.52 242.482 293.424 245.002 292.896L244.786 291.408C242.506 291.888 240.49 292.008 237.61 292.008V281.808H243.61V280.32H235.834V293.52ZM270.01 277.776V293.52H271.81V286.224H274.954V284.712H271.81V277.776H270.01ZM255.61 281.808H268.018V280.344H262.714V277.776H260.914V280.344H255.61V281.808ZM256.81 286.92C256.81 289.272 258.826 290.808 261.802 290.808C264.778 290.808 266.818 289.272 266.818 286.92C266.818 284.544 264.778 283.008 261.802 283.008C258.826 283.008 256.81 284.544 256.81 286.92ZM258.514 286.92C258.514 285.408 259.834 284.424 261.802 284.424C263.77 284.424 265.09 285.408 265.09 286.92C265.09 288.408 263.77 289.392 261.802 289.392C259.834 289.392 258.514 288.408 258.514 286.92ZM258.802 298.272H272.794V296.784H260.578V292.248H258.802V298.272ZM281.662 280.56V282.024H285.502V282.264C285.502 284.976 283.918 287.544 281.254 288.648L282.142 289.992C284.23 289.104 285.694 287.376 286.414 285.264C287.158 287.208 288.622 288.792 290.662 289.608L291.502 288.24C288.886 287.232 287.23 284.808 287.23 282.264V282.024H291.022V280.56H287.23V277.992H285.502V280.56H281.662ZM284.686 293.256H296.95V298.752H298.75V291.768H284.686V293.256ZM292.534 290.496H294.262V284.88H297.022V290.64H298.75V277.776H297.022V283.392H294.262V278.16H292.534V290.496ZM316.943 277.776V289.776H318.743V277.776H316.943ZM302.063 283.776C302.063 286.656 304.343 288.648 307.511 288.648C310.679 288.648 312.959 286.656 312.959 283.776C312.959 280.872 310.679 278.88 307.511 278.88C304.343 278.88 302.063 280.872 302.063 283.776ZM303.815 283.776C303.815 281.784 305.375 280.392 307.511 280.392C309.647 280.392 311.207 281.784 311.207 283.776C311.207 285.768 309.647 287.136 307.511 287.136C305.375 287.136 303.815 285.768 303.815 283.776ZM305.231 298.464H318.743V290.928H305.231V298.464ZM306.983 297V292.368H316.991V297H306.983Z" fill="black"/>
<path d="M32.3 126.6C22.6 126.6 16.2 115.9 16.2 99.8C16.2 83.8 22.6 73.1 32.3 73.1C41.9 73.1 48.3 83.8 48.3 99.8C48.3 115.9 41.9 126.6 32.3 126.6ZM4.2 99.8C4.2 121.7 15.8 137.1 32.3 137.1C48.7 137.1 60.3 121.7 60.3 99.8C60.3 78 48.7 62.7 32.3 62.7C15.8 62.7 4.2 78 4.2 99.8Z" fill="#DDDDDD"/>
<path d="M106.153 98.6C112.153 94.9 115.953 88.3 115.953 82.7C115.953 71 106.253 62.8 92.5531 62.8C78.6531 62.8 68.9531 71.4 68.9531 83.6H80.9531C80.9531 77.6 85.7531 73.4 92.5531 73.4C99.5531 73.4 104.453 77.6 104.453 83.5C104.453 89.5 99.4531 93.7 92.2531 93.7H86.9531V103.6H92.0531C99.9531 103.6 105.553 108.3 105.553 114.9C105.553 121.6 99.8531 126.4 91.8531 126.4C84.1531 126.4 78.7531 121.6 78.7531 114.9H66.7531C66.7531 127.8 77.0531 137 91.8531 137C106.753 137 117.153 128.2 117.153 115.8C117.153 109.6 112.853 102.5 106.153 98.6Z" fill="black"/>
<g clip-path="url(#clip0_822_2431)">
<path d="M252.92 189.815C252.92 177.64 262.79 167.774 274.97 167.774H282.08C276.33 163.795 272.56 157.168 272.56 149.651C272.56 137.476 282.43 127.61 294.61 127.61H306.83C300.02 98.601 280.58 74.4806 254.61 61.3358C239.2 83.2771 209.51 96.8517 209.51 96.8517C209.51 96.8517 179.82 83.2771 164.41 61.3358C143.41 71.9715 126.65 89.7745 117.41 111.546H155.92C168.1 111.546 177.97 121.412 177.97 133.587C177.97 145.762 168.1 155.628 155.92 155.628H148.81C154.56 159.607 158.33 166.234 158.33 173.751C158.33 185.927 148.46 195.793 136.28 195.793H120.35C136.87 228.26 170.58 250.511 209.51 250.511C241.62 250.511 270.17 235.367 288.46 211.856H274.97C262.79 211.856 252.92 201.99 252.92 189.815Z" fill="#CFF2F4"/>
<path d="M209.5 253C170.73 253 135.71 231.509 118.11 196.912C117.72 196.143 117.75 195.213 118.21 194.473C118.67 193.733 119.47 193.284 120.34 193.284H136.27C147.05 193.284 155.82 184.517 155.82 173.741C155.82 167.334 152.66 161.326 147.38 157.668C146.48 157.048 146.09 155.908 146.42 154.869C146.75 153.829 147.71 153.119 148.81 153.119H155.92C166.7 153.119 175.47 144.353 175.47 133.577C175.47 122.801 166.7 114.035 155.92 114.035H117.4C116.56 114.035 115.78 113.615 115.32 112.915C114.86 112.216 114.78 111.336 115.1 110.556C124.54 88.3151 141.64 70.0423 163.27 59.0867C164.38 58.5269 165.73 58.8668 166.45 59.8764C179.68 78.7189 204.18 91.4339 209.51 94.0528C214.84 91.4339 239.33 78.7089 252.57 59.8764C253.28 58.8568 254.64 58.5269 255.75 59.0867C282.85 72.8012 302.36 97.5615 309.28 127.02C309.45 127.76 309.28 128.549 308.81 129.139C308.34 129.739 307.61 130.089 306.85 130.089H294.63C283.85 130.089 275.08 138.855 275.08 149.631C275.08 156.038 278.24 162.046 283.52 165.705C284.42 166.324 284.81 167.464 284.48 168.503C284.15 169.543 283.19 170.253 282.09 170.253H274.98C264.2 170.253 255.43 179.019 255.43 189.795C255.43 200.571 264.2 209.337 274.98 209.337H288.47C289.43 209.337 290.3 209.877 290.72 210.737C291.14 211.596 291.03 212.616 290.45 213.366C270.86 238.546 241.36 252.98 209.52 252.98L209.5 253ZM124.51 198.282C141.8 229.059 174 248.002 209.5 248.002C238.04 248.002 264.6 235.797 283.17 214.345H274.96C261.42 214.345 250.41 203.34 250.41 189.805C250.41 176.27 261.42 165.265 274.96 165.265H275.69C272.09 160.916 270.06 155.409 270.06 149.641C270.06 136.106 281.07 125.101 294.61 125.101H303.62C296.62 99.1208 279.22 77.2595 255.36 64.5345C239.47 85.7161 211.74 98.5611 210.54 99.1108C209.88 99.4107 209.12 99.4107 208.46 99.1108C207.26 98.5611 179.53 85.7161 163.64 64.5345C145.08 74.4406 130.19 90.0944 121.26 109.037H155.91C169.45 109.037 180.46 120.043 180.46 133.577C180.46 147.112 169.45 158.118 155.91 158.118H155.18C158.78 162.466 160.81 167.974 160.81 173.741C160.81 187.276 149.8 198.282 136.26 198.282H124.5H124.51Z" fill="#231815"/>
<path d="M263.67 35.2261C263.67 17.1532 249.01 2.49902 230.93 2.49902C222.73 2.49902 215.25 5.51783 209.5 10.4959C203.76 5.51783 196.27 2.49902 188.07 2.49902C169.99 2.49902 155.33 17.1532 155.33 35.2261C155.33 35.2961 155.33 35.356 155.33 35.426C155.33 44.9422 158.99 53.6488 164.39 61.3358C179.8 83.2771 209.49 96.8517 209.49 96.8517C209.49 96.8517 239.18 83.2771 254.59 61.3358C259.99 53.6488 263.65 44.9422 263.65 35.426C263.65 35.356 263.65 35.2961 263.65 35.2261H263.67Z" fill="white"/>
<path d="M209.5 99.3507C209.15 99.3507 208.79 99.2708 208.46 99.1208C207.22 98.551 177.97 85.0064 162.35 62.7652C156.04 53.7787 152.83 44.5724 152.83 35.416C152.83 35.376 152.83 35.346 152.83 35.306V35.2161C152.83 15.7937 168.64 -0.0100098 188.07 -0.0100098C195.83 -0.0100098 203.36 2.55898 209.5 7.25712C215.63 2.54898 223.16 -0.0100098 230.93 -0.0100098C250.36 -0.0100098 266.17 15.7937 266.17 35.2161V35.316C266.17 35.316 266.17 35.386 266.17 35.416C266.17 44.5724 262.97 53.7787 256.65 62.7652C241.03 85.0064 211.78 98.551 210.54 99.1208C210.21 99.2708 209.85 99.3507 209.5 99.3507ZM157.83 35.5859C157.87 43.6427 160.76 51.8295 166.44 59.9063C179.67 78.7389 204.17 91.4638 209.5 94.0828C214.83 91.4638 239.32 78.7389 252.56 59.9063C258.24 51.8295 261.13 43.6427 261.17 35.5859C261.17 35.5259 261.17 35.456 261.17 35.396C261.17 35.376 261.17 35.276 261.17 35.2561L263.67 35.2361H261.18C261.18 18.5726 247.62 5.00801 230.94 5.00801C223.67 5.00801 216.65 7.62697 211.15 12.3951C210.21 13.2048 208.81 13.2048 207.88 12.3951C202.38 7.63697 195.35 5.00801 188.09 5.00801C171.42 5.00801 157.85 18.5626 157.85 35.2361C157.85 35.266 157.85 35.386 157.85 35.416C157.85 35.476 157.85 35.5359 157.85 35.5959L157.83 35.5859Z" fill="#221714"/>
<path d="M177.96 133.587C177.96 121.412 168.09 111.546 155.91 111.546H117.4C112.32 123.531 109.5 136.706 109.5 150.54C109.5 150.93 109.53 151.32 109.53 151.71C109.55 153.02 109.56 154.329 109.63 155.628C110.35 170.033 114.15 183.627 120.34 195.793H136.27C148.45 195.793 158.32 185.927 158.32 173.751C158.32 166.234 154.55 159.607 148.8 155.628H155.91C168.09 155.628 177.96 145.762 177.96 133.587Z" fill="#FCF000"/>
<path d="M136.27 198.282H120.34C119.4 198.282 118.54 197.752 118.11 196.912C111.55 184.027 107.85 170.173 107.13 155.748C107.07 154.449 107.05 153.159 107.03 151.74C107.03 151.58 107.03 151.42 107.02 151.26C107.02 151.02 107 150.78 107 150.54C107 136.676 109.72 123.231 115.1 110.566C115.49 109.647 116.4 109.047 117.4 109.047H155.91C169.45 109.047 180.46 120.053 180.46 133.587C180.46 147.122 169.45 158.127 155.91 158.127H155.18C158.78 162.476 160.81 167.984 160.81 173.751C160.81 187.286 149.8 198.292 136.26 198.292L136.27 198.282ZM121.89 193.284H136.27C147.05 193.284 155.82 184.517 155.82 173.741C155.82 167.334 152.66 161.326 147.38 157.668C146.48 157.048 146.09 155.908 146.42 154.869C146.75 153.829 147.71 153.119 148.81 153.119H155.92C166.7 153.119 175.47 144.353 175.47 133.577C175.47 122.801 166.7 114.035 155.92 114.035H119.07C114.38 125.63 112 137.895 112 150.53C112 150.71 112 150.9 112.01 151.08C112.01 151.28 112.02 151.48 112.03 151.68C112.05 153.049 112.07 154.279 112.13 155.499C112.79 168.703 116.07 181.408 121.89 193.284Z" fill="#221714"/>
<path d="M306.83 127.61H294.61C282.43 127.61 272.56 137.476 272.56 149.651C272.56 157.168 276.33 163.795 282.08 167.774H274.97C262.79 167.774 252.92 177.64 252.92 189.815C252.92 201.99 262.79 211.856 274.97 211.856H288.46C297.5 200.241 304.03 186.586 307.24 171.692C307.52 170.393 307.76 169.093 307.99 167.774C308.96 162.176 309.5 156.418 309.5 150.54C309.5 142.644 308.56 134.977 306.83 127.61Z" fill="#FCF000"/>
<path d="M288.45 214.355H274.96C261.42 214.355 250.41 203.35 250.41 189.815C250.41 176.28 261.42 165.275 274.96 165.275H275.69C272.09 160.926 270.06 155.419 270.06 149.651C270.06 136.116 281.07 125.111 294.61 125.111H306.83C307.99 125.111 309 125.91 309.26 127.04C311.08 134.777 312 142.684 312 150.54C312 156.358 311.48 162.296 310.45 168.204C310.18 169.753 309.93 171.032 309.68 172.212C306.48 187.076 299.82 201.32 290.43 213.386C289.96 213.995 289.23 214.345 288.46 214.345L288.45 214.355ZM274.96 170.273C264.18 170.273 255.41 179.039 255.41 189.815C255.41 200.591 264.18 209.357 274.96 209.357H287.22C295.76 198.092 301.83 184.907 304.79 171.162C305.03 170.043 305.26 168.823 305.52 167.344C306.5 161.726 306.99 156.068 306.99 150.54C306.99 143.723 306.26 136.856 304.81 130.109H294.59C283.81 130.109 275.04 138.875 275.04 149.651C275.04 156.058 278.2 162.066 283.48 165.724C284.38 166.344 284.77 167.484 284.44 168.523C284.11 169.563 283.15 170.273 282.05 170.273H274.94H274.96Z" fill="#221714"/>
</g>
<defs>
<radialGradient id="paint0_radial_822_2431" cx="0" cy="0" r="1" gradientUnits="userSpaceOnUse" gradientTransform="translate(300 125) rotate(90) scale(101)">
<stop stop-color="#FFFF00" stop-opacity="0.5"/>
<stop offset="1" stop-color="#FFFF00" stop-opacity="0"/>
</radialGradient>
<clipPath id="clip0_822_2431">
<rect width="205" height="253" fill="white" transform="translate(107)"/>
</clipPath>
</defs>
</svg>
