<svg width="404" height="265" viewBox="0 0 404 265" fill="none" xmlns="http://www.w3.org/2000/svg">
<circle cx="101" cy="164" r="101" fill="url(#paint0_radial_822_2432)"/>
<path d="M89.32 239.776V251.776H91.12V239.776H89.32ZM74.44 245.776C74.44 248.656 76.72 250.648 79.888 250.648C83.056 250.648 85.336 248.656 85.336 245.776C85.336 242.872 83.056 240.88 79.888 240.88C76.72 240.88 74.44 242.872 74.44 245.776ZM76.192 245.776C76.192 243.784 77.752 242.392 79.888 242.392C82.024 242.392 83.584 243.784 83.584 245.776C83.584 247.768 82.024 249.136 79.888 249.136C77.752 249.136 76.192 247.768 76.192 245.776ZM77.608 260.464H91.12V252.928H77.608V260.464ZM79.36 259V254.368H89.368V259H79.36ZM109.817 239.752V252.448H111.617V239.752H109.817ZM94.7446 250.504L95.6806 251.896C98.2006 250.984 100.145 249.088 101.033 246.664C101.969 248.92 103.913 250.672 106.337 251.512L107.249 250.096C104.201 249.064 101.897 246.496 101.897 243.64V242.728H106.721V241.24H95.2246V242.728H100.073V243.64C100.073 246.664 97.8646 249.376 94.7446 250.504ZM97.6486 255.088H109.817V260.752H111.617V253.6H97.6486V255.088ZM130.265 239.752V252.184H125.969V253.504H130.265V255.736H132.065V239.752H130.265ZM114.809 249.496L115.073 251.008C116.825 251.008 118.841 250.984 120.953 250.888V254.968H122.753V250.792C124.673 250.696 126.641 250.504 128.513 250.192L128.393 248.896C123.905 249.448 118.697 249.496 114.809 249.496ZM116.489 244.264C116.489 246.496 118.577 247.912 121.649 247.912C124.721 247.912 126.809 246.496 126.809 244.264C126.809 242.056 124.721 240.616 121.649 240.616C118.577 240.616 116.489 242.056 116.489 244.264ZM117.833 260.272H132.593V258.784H119.633V254.176H117.833V260.272ZM118.193 244.264C118.193 242.872 119.633 241.96 121.649 241.96C123.689 241.96 125.081 242.872 125.081 244.264C125.081 245.656 123.689 246.544 121.649 246.544C119.633 246.544 118.193 245.656 118.193 244.264ZM149.981 240.016C145.373 240.016 142.613 241.312 142.613 243.64C142.613 245.824 145.013 247.12 149.069 247.288V248.92H140.501V250.384H159.461V248.92H150.869V247.288C154.949 247.144 157.349 245.848 157.349 243.64C157.349 241.312 154.589 240.016 149.981 240.016ZM142.805 253.6H155.261V255.544H142.877V260.512H157.661V259.096H144.629V256.888H157.013V252.184H142.805V253.6ZM144.461 243.64C144.461 242.224 146.525 241.384 149.981 241.384C153.437 241.384 155.501 242.224 155.501 243.64C155.501 245.104 153.437 245.92 149.981 245.92C146.525 245.92 144.461 245.104 144.461 243.64ZM175.325 239.752V260.752H177.125V249.592H180.605V248.056H177.125V239.752H175.325ZM161.885 255.688H171.629V241.552H169.853V247.12H163.661V241.552H161.885V255.688ZM163.661 254.2V248.56H169.853V254.2H163.661ZM181.494 251.416V252.904H200.526V251.416H181.494ZM183.918 241.888H196.278V244.264H183.966V249.448H198.51V248.032H185.718V245.632H198.054V240.472H183.918V241.888ZM184.014 260.272H198.534V258.808H185.814V254.608H184.014V260.272ZM216.522 240.28C212.106 240.28 209.178 241.912 209.178 244.48C209.178 247.048 212.106 248.656 216.522 248.656C220.962 248.656 223.866 247.048 223.866 244.48C223.866 241.912 220.962 240.28 216.522 240.28ZM207.066 251.776H213.666V256.192H215.466V251.776H219.354V256.192H221.154V251.776H226.026V250.312H207.066V251.776ZM209.394 260.272H224.058V258.784H211.194V254.44H209.394V260.272ZM211.098 244.48C211.098 242.824 213.282 241.768 216.522 241.768C219.786 241.768 221.97 242.824 221.97 244.48C221.97 246.136 219.786 247.168 216.522 247.168C213.282 247.168 211.098 246.136 211.098 244.48ZM242.922 239.728V260.776H244.722V239.728H242.922ZM228.714 243.208H236.586V247.672H228.762V255.664H230.49C234.066 255.664 237.234 255.544 241.074 254.896L240.882 253.432C237.138 254.032 234.042 254.176 230.562 254.176V249.16H238.386V241.744H228.714V243.208ZM249.211 241.384V242.872H257.827C257.827 244.192 257.779 245.992 257.251 248.512L259.027 248.704C259.579 245.92 259.579 243.832 259.579 242.488V241.384H249.211ZM247.915 250.672L248.131 252.16C251.827 252.16 256.867 252.064 261.211 251.32L261.091 250C258.931 250.312 256.531 250.48 254.203 250.576V246.04H252.427V250.624C250.819 250.672 249.259 250.672 247.915 250.672ZM251.155 260.272H265.003V258.784H252.931V254.128H251.155V260.272ZM262.531 255.568H264.331V248.128H267.403V246.64H264.331V239.752H262.531V255.568ZM288.007 239.776V253.816H289.807V247.648H292.951V246.16H289.807V239.776H288.007ZM273.487 251.728L273.727 253.192C277.375 253.192 282.367 253.168 286.879 252.352L286.735 251.056C284.887 251.32 282.919 251.488 280.951 251.584V250.072C283.375 249.856 284.911 248.728 284.911 247C284.911 245.08 282.991 243.904 280.039 243.904C277.111 243.904 275.191 245.08 275.191 247C275.191 248.752 276.751 249.88 279.175 250.072V251.656C277.135 251.728 275.167 251.728 273.487 251.728ZM274.015 243.064H286.087V241.696H280.951V239.584H279.175V241.696H274.015V243.064ZM276.055 256.336H288.007V260.752H289.807V254.896H276.055V256.336ZM276.895 247C276.895 245.872 278.119 245.152 280.039 245.152C281.983 245.152 283.207 245.872 283.207 247C283.207 248.104 281.983 248.872 280.039 248.872C278.119 248.872 276.895 248.104 276.895 247ZM309.439 239.752V251.272H311.263V239.752H309.439ZM295.111 242.248H302.863V244.984H295.159V250.816H296.839C300.703 250.816 303.559 250.72 307.039 250.144L306.823 248.656C303.463 249.208 300.655 249.328 296.911 249.328V246.4H304.615V240.784H295.111V242.248ZM297.727 260.464H311.263V252.352H309.487V254.896H299.503V252.352H297.727V260.464ZM299.503 258.976V256.336H309.487V258.976H299.503Z" fill="black"/>
<path d="M312.3 197.6C302.6 197.6 296.2 186.9 296.2 170.8C296.2 154.8 302.6 144.1 312.3 144.1C321.9 144.1 328.3 154.8 328.3 170.8C328.3 186.9 321.9 197.6 312.3 197.6ZM284.2 170.8C284.2 192.7 295.8 208.1 312.3 208.1C328.7 208.1 340.3 192.7 340.3 170.8C340.3 149 328.7 133.7 312.3 133.7C295.8 133.7 284.2 149 284.2 170.8Z" fill="#DDDDDD"/>
<path d="M390.853 134.4H379.453L346.753 178.9L347.753 189.2H378.953V207.4H390.853V189.2H399.453V178.9H390.853V134.4ZM360.753 178.9L378.953 154.1V178.9H360.753Z" fill="black"/>
<g clip-path="url(#clip0_822_2432)">
<path d="M198.32 150.447L192.25 156.492L192.18 156.422C191.75 156.781 191.29 157.12 190.77 157.398C179.24 163.682 165.18 163.682 153.65 157.398C148.67 154.68 147.77 147.908 151.79 143.904L166.14 129.613C166.41 129.345 166.71 129.096 167.01 128.867L189.5 106.469L185.81 102.794C182.16 98.4225 176.66 95.644 170.5 95.644C170.4 95.644 170.31 95.644 170.21 95.644V95.5843H131.43C131.13 95.5445 130.83 95.5146 130.53 95.5146H100.06C96.44 95.5146 93.5 98.4425 93.5 102.048V148.495C93.5 151.971 96.23 154.799 99.67 155.008H99.74C99.85 155.008 99.95 155.028 100.06 155.028H123.55L173.94 205.21C177.59 209.662 183.14 212.5 189.37 212.5C194.52 212.5 199.2 210.558 202.74 207.362L202.78 207.401L246.83 163.533L246.8 163.503L229.11 181.09L198.34 150.447H198.32Z" fill="#CFF2F4"/>
<path d="M189.36 215C182.65 215 176.36 212.042 172.08 206.894L122.51 157.528H100.06C99.9298 157.528 99.7998 157.528 99.6798 157.508C99.5698 157.508 99.4698 157.508 99.3698 157.488C94.6698 157.13 91.0098 153.216 91.0098 148.505V102.058C91.0098 97.0881 95.0698 93.0349 100.07 93.0349H130.55C130.89 93.0349 131.23 93.0548 131.62 93.1046H170.24C170.41 93.1046 170.58 93.1245 170.74 93.1544C177.3 93.2141 183.46 96.1022 187.69 101.111L191.3 104.707C192.28 105.682 192.28 107.256 191.3 108.232L168.81 130.629C168.73 130.709 168.65 130.779 168.56 130.848C168.3 131.048 168.11 131.207 167.95 131.376L153.59 145.667C152.21 147.041 151.58 148.924 151.86 150.846C152.13 152.718 153.23 154.311 154.88 155.207C165.59 161.043 178.89 161.043 189.6 155.207C189.92 155.028 190.25 154.799 190.59 154.51C190.72 154.401 190.86 154.311 191 154.232L196.58 148.684C197.56 147.709 199.14 147.709 200.12 148.684L229.13 177.575L245.05 161.75C246.03 160.774 247.61 160.784 248.58 161.75C249.56 162.726 249.59 164.33 248.61 165.306L204.56 209.174C204.4 209.333 204.22 209.463 204.03 209.572C199.96 213.078 194.78 215 189.38 215H189.36ZM99.8398 152.529C99.8398 152.529 99.8598 152.529 99.8698 152.529H100.02L123.56 152.539C124.22 152.539 124.86 152.797 125.33 153.266L175.72 203.448C175.78 203.508 175.84 203.567 175.89 203.637C179.22 207.69 184.13 210.021 189.38 210.021C193.71 210.021 197.86 208.427 201.07 205.529C201.17 205.44 201.27 205.36 201.38 205.29L225.63 181.14L198.35 153.973L194.05 158.255C193.81 158.494 193.53 158.673 193.23 158.803C192.82 159.101 192.42 159.37 192 159.589C179.81 166.232 164.67 166.232 152.48 159.589C149.43 157.926 147.4 155.008 146.91 151.563C146.41 148.077 147.55 144.641 150.05 142.152L164.4 127.861C164.69 127.572 165 127.303 165.38 127.004L185.99 106.479L184.07 104.567C184.02 104.517 183.97 104.458 183.92 104.398C180.6 100.424 175.72 98.1437 170.53 98.1437H170.26C170.08 98.1437 169.89 98.1437 169.71 98.0939H131.45C131.34 98.0939 131.22 98.0939 131.11 98.074C130.93 98.0441 130.74 98.0242 130.55 98.0242H100.06C97.8198 98.0242 95.9998 99.8367 95.9998 102.067V148.515C95.9998 150.646 97.6798 152.419 99.8098 152.539C99.8098 152.539 99.8198 152.539 99.8298 152.539L99.8398 152.529Z" fill="#231815"/>
<path d="M286.94 95.5345H279.12H208.65V95.5943C208.55 95.5943 208.46 95.5943 208.36 95.5943C201.78 95.5943 195.95 98.7711 192.32 103.681L189.5 106.489L167.01 128.886C166.71 129.116 166.42 129.355 166.14 129.633L151.79 143.924C147.77 147.928 148.67 154.7 153.65 157.418C165.18 163.702 179.24 163.702 190.77 157.418C191.29 157.14 191.75 156.801 192.18 156.442L192.25 156.512L198.32 150.467L229.09 181.11L246.78 163.523L255.35 155.008C255.35 155.008 287.16 155.038 287.26 155.028H287.33C290.77 154.829 293.5 151.991 293.5 148.515V102.068C293.5 98.4624 290.57 95.5345 286.94 95.5345Z" fill="white"/>
<path d="M229.1 183.59C228.46 183.59 227.82 183.351 227.33 182.863L198.32 153.973L194.02 158.255C193.78 158.494 193.5 158.673 193.2 158.803C192.79 159.101 192.39 159.37 191.97 159.589C179.78 166.232 164.64 166.232 152.45 159.589C149.4 157.926 147.37 155.008 146.88 151.563C146.38 148.077 147.52 144.641 150.02 142.152L164.37 127.861C164.66 127.572 164.97 127.303 165.35 127.004L190.42 102.038C194.6 96.4906 201.21 93.1544 208.16 93.0947C208.32 93.0648 208.48 93.0449 208.64 93.0449H278.93C278.99 93.0449 279.05 93.0449 279.11 93.0449H286.93C291.92 93.0449 295.99 97.0881 295.99 102.068V148.515C295.99 153.285 292.25 157.229 287.47 157.508C287.3 157.508 287.22 157.518 256.38 157.498L230.86 182.873C230.37 183.361 229.73 183.6 229.09 183.6L229.1 183.59ZM198.33 147.968C198.97 147.968 199.61 148.207 200.1 148.694L229.11 177.585L253.59 153.246C254.06 152.778 254.69 152.519 255.36 152.519C266.17 152.519 286.73 152.549 287.24 152.539C289.33 152.419 291 150.646 291 148.515V102.068C291 99.8367 289.18 98.0242 286.94 98.0242H279.3C279.24 98.0242 279.18 98.0242 279.12 98.0242H209.15C208.98 98.0641 208.81 98.074 208.63 98.084H208.43C202.86 98.084 197.62 100.723 194.34 105.155C194.27 105.254 194.18 105.354 194.09 105.434L168.78 130.639C168.7 130.719 168.62 130.789 168.53 130.858C168.27 131.058 168.08 131.217 167.92 131.386L153.56 145.677C152.18 147.051 151.55 148.934 151.83 150.856C152.1 152.728 153.2 154.321 154.85 155.217C165.56 161.053 178.86 161.053 189.57 155.217C189.89 155.038 190.22 154.819 190.56 154.52C190.69 154.411 190.83 154.321 190.97 154.242L196.55 148.694C197.04 148.207 197.68 147.968 198.32 147.968H198.33Z" fill="#231815"/>
<path d="M190.01 76.9116C190.01 76.9116 232.89 57.4024 232.89 28.4622C232.89 28.4124 232.89 28.3626 232.89 28.3028C232.89 14.0518 221.29 2.48969 206.97 2.48969C200.48 2.48969 194.55 4.86983 190 8.79359C185.45 4.86983 179.52 2.48969 173.03 2.48969C158.72 2.48969 147.11 14.0419 147.11 28.3028C147.11 28.3526 147.11 28.4024 147.11 28.4622C147.11 57.4024 189.99 76.9116 189.99 76.9116H190.01Z" fill="#FCF000"/>
<path d="M190.01 79.4013C189.66 79.4013 189.3 79.3216 188.97 79.1722C188.52 78.9631 177.85 74.0733 167.01 65.4789C152.36 53.8769 144.62 41.0699 144.62 28.4522C144.62 28.4223 144.62 28.3924 144.62 28.3625V28.2928C144.62 12.6874 157.37 -0.0100098 173.04 -0.0100098C179.17 -0.0100098 185.12 1.96183 190.01 5.59678C194.9 1.97179 200.85 -0.0100098 206.97 -0.0100098C222.64 -0.0100098 235.39 12.6874 235.39 28.2928C235.39 28.3028 235.39 28.3426 235.39 28.3725C235.39 28.4024 235.39 28.4223 235.39 28.4522C235.39 41.0699 227.65 53.8769 213 65.4789C202.16 74.0634 191.49 78.9631 191.04 79.1722C190.71 79.3216 190.36 79.4013 190 79.4013H190.01ZM149.62 28.5916C149.74 53.1201 183.59 70.9761 190 74.143C196.42 70.9761 230.26 53.0802 230.38 28.5916C230.38 28.5418 230.38 28.492 230.38 28.4323C230.38 28.4123 230.38 28.3127 230.38 28.2928C230.38 15.4361 219.87 4.96938 206.96 4.96938C201.38 4.96938 195.99 6.96113 191.75 10.5662C191.3 11.0144 190.68 11.2932 190 11.2932C189.27 11.2932 188.62 10.9845 188.16 10.4965C183.93 6.93126 178.57 4.96938 173.03 4.96938C160.12 4.96938 149.61 15.4361 149.61 28.2928V28.4522C149.61 28.4522 149.61 28.5418 149.61 28.5816L149.62 28.5916Z" fill="#231815"/>
</g>
<defs>
<radialGradient id="paint0_radial_822_2432" cx="0" cy="0" r="1" gradientUnits="userSpaceOnUse" gradientTransform="translate(101 164) rotate(90) scale(101)">
<stop stop-color="#FFFF00" stop-opacity="0.5"/>
<stop offset="1" stop-color="#FFFF00" stop-opacity="0"/>
</radialGradient>
<clipPath id="clip0_822_2432">
<rect width="205" height="215" fill="white" transform="translate(91)"/>
</clipPath>
</defs>
</svg>
