<svg width="322" height="243" viewBox="0 0 322 243" fill="none" xmlns="http://www.w3.org/2000/svg">
<path d="M122.296 217.728V238.776H124.096V217.728H122.296ZM107.728 226.68C107.728 231.144 109.936 234 113.056 234C116.152 234 118.36 231.144 118.36 226.68C118.36 222.216 116.152 219.384 113.056 219.384C109.936 219.384 107.728 222.216 107.728 226.68ZM109.48 226.68C109.48 223.248 110.944 220.992 113.056 220.992C115.144 220.992 116.632 223.248 116.632 226.68C116.632 230.112 115.144 232.392 113.056 232.392C110.944 232.392 109.48 230.112 109.48 226.68ZM127.409 221.4V222.864H137.849V221.4H133.529V218.352H131.753V221.4H127.409ZM128.153 229.08C128.153 231.912 130.025 233.856 132.641 233.856C135.257 233.856 137.153 231.912 137.153 229.08C137.153 226.296 135.257 224.328 132.641 224.328C130.025 224.328 128.153 226.296 128.153 229.08ZM129.761 229.08C129.761 227.208 130.961 225.84 132.641 225.84C134.321 225.84 135.545 227.208 135.545 229.08C135.545 230.976 134.321 232.32 132.641 232.32C130.961 232.32 129.761 230.976 129.761 229.08ZM138.953 237.696H140.657V228.12H143.465V238.752H145.169V217.752H143.465V226.632H140.657V218.256H138.953V237.696ZM149.129 219.384V220.872H157.745C157.745 222.192 157.697 223.992 157.169 226.512L158.945 226.704C159.497 223.92 159.497 221.832 159.497 220.488V219.384H149.129ZM147.833 228.672L148.049 230.16C151.745 230.16 156.785 230.064 161.129 229.32L161.009 228C158.849 228.312 156.449 228.48 154.121 228.576V224.04H152.345V228.624C150.737 228.672 149.177 228.672 147.833 228.672ZM151.073 238.272H164.921V236.784H152.849V232.128H151.073V238.272ZM162.449 233.568H164.249V226.128H167.321V224.64H164.249V217.752H162.449V233.568ZM176.418 228.888V230.352H180.33V237.648H182.034V218.304H180.33V223.632H177.09C177.282 222.6 177.378 221.52 177.378 220.44H169.338V221.928H175.602C175.266 226.344 172.962 230.184 168.45 232.896L169.506 234.216C173.466 231.84 175.746 228.648 176.754 225.096H180.33V228.888H176.418ZM184.53 238.752H186.258V217.752H184.53V238.752ZM189.354 219.912V221.424H194.202V224.256C194.202 227.832 191.562 231.816 188.634 233.28L189.69 234.696C192.018 233.472 194.13 230.76 195.09 227.712C196.026 230.52 198.018 233.016 200.37 234.192L201.402 232.752C198.402 231.336 195.954 227.592 195.954 224.256V221.424H200.658V219.912H189.354ZM203.25 238.752H205.05V227.808H208.53V226.296H205.05V217.752H203.25V238.752ZM229.854 217.776V233.136H231.654V217.776H229.854ZM214.734 228.672L215.694 230.112C218.166 229.104 220.062 227.016 220.95 224.424C221.862 226.848 223.734 228.792 226.134 229.728L227.094 228.288C223.998 227.136 221.814 224.256 221.814 221.064V218.904H220.014V221.064C220.014 224.376 217.854 227.448 214.734 228.672ZM218.238 238.272H232.326V236.784H220.038V231.744H218.238V238.272ZM236.575 219.72V221.16H245.311V223.8H236.647V229.368H241.039V233.016C238.951 233.064 236.911 233.088 235.087 233.088L235.327 234.624C239.335 234.624 244.375 234.552 248.983 233.832L248.839 232.488C246.919 232.728 244.879 232.872 242.839 232.944V229.368H247.663V227.928H238.399V225.192H247.087V219.72H236.575ZM250.231 238.776H252.031V217.728H250.231V238.776ZM260.815 218.952V221.136C260.815 224.4 258.631 227.184 255.487 228.336L256.423 229.8C258.943 228.84 260.863 226.896 261.751 224.352C262.663 226.584 264.463 228.312 266.767 229.176L267.751 227.76C264.727 226.704 262.591 224.064 262.591 221.064V218.952H260.815ZM258.823 234.768C258.823 237.288 261.487 238.704 265.831 238.704C270.151 238.704 272.791 237.288 272.791 234.768C272.791 232.272 270.151 230.808 265.831 230.808C261.487 230.808 258.823 232.272 258.823 234.768ZM260.647 234.768C260.647 233.184 262.591 232.248 265.831 232.248C269.023 232.248 271.015 233.184 271.015 234.768C271.015 236.328 269.023 237.288 265.831 237.288C262.591 237.288 260.647 236.328 260.647 234.768ZM266.239 223.776H270.895V230.184H272.695V217.752H270.895V222.264H266.239V223.776ZM283.459 219.144V220.608H295.723V220.968C295.723 222.936 295.723 225.168 295.075 228.168H281.035V229.68H289.579V238.8H291.403V229.68H300.019V228.168H296.899C297.499 225.12 297.499 222.96 297.499 220.968V219.144H283.459ZM301.532 228.336V229.8H310.124V232.248H303.644V233.712H316.364V238.68H318.14V232.248H311.924V229.8H320.492V228.336H301.532ZM302.708 225.744L303.26 227.112C306.644 226.752 309.74 225.48 311.012 223.344C312.284 225.48 315.38 226.752 318.764 227.112L319.34 225.744C315.476 225.36 312.116 223.704 311.996 221.256H318.572V219.816H311.924V217.632H310.124V219.816H303.5V221.256H310.052C309.932 223.704 306.572 225.36 302.708 225.744Z" fill="black"/>
<path d="M32.3 138.6C22.6 138.6 16.2 127.9 16.2 111.8C16.2 95.8 22.6 85.1 32.3 85.1C41.9 85.1 48.3 95.8 48.3 111.8C48.3 127.9 41.9 138.6 32.3 138.6ZM4.2 111.8C4.2 133.7 15.8 149.1 32.3 149.1C48.7 149.1 60.3 133.7 60.3 111.8C60.3 90 48.7 74.7 32.3 74.7C15.8 74.7 4.2 90 4.2 111.8Z" fill="#DDDDDD"/>
<path d="M96.0531 75.4H84.0531L66.0531 84.6L70.5531 94.8L84.0531 88.1V148.3L96.0531 148.4V75.4Z" fill="#222222"/>
<g clip-path="url(#clip0_688_1963)">
<path d="M187.14 34.52C196.22 34.52 203.58 27.3521 203.58 18.51C203.58 9.66792 196.22 2.5 187.14 2.5C178.061 2.5 170.7 9.66792 170.7 18.51C170.7 27.3521 178.061 34.52 187.14 34.52Z" fill="white"/>
<path d="M187.14 37.02C176.7 37.02 168.2 28.72 168.2 18.51C168.2 8.3 176.7 0 187.14 0C197.58 0 206.08 8.3 206.08 18.51C206.08 28.72 197.59 37.02 187.14 37.02ZM187.14 5C179.46 5 173.2 11.06 173.2 18.51C173.2 25.96 179.45 32.02 187.14 32.02C194.83 32.02 201.08 25.96 201.08 18.51C201.08 11.06 194.83 5 187.14 5Z" fill="#231815"/>
<path d="M241.87 34.52C250.95 34.52 258.31 27.3521 258.31 18.51C258.31 9.66792 250.95 2.5 241.87 2.5C232.791 2.5 225.43 9.66792 225.43 18.51C225.43 27.3521 232.791 34.52 241.87 34.52Z" fill="white"/>
<path d="M241.87 37.02C231.43 37.02 222.93 28.72 222.93 18.51C222.93 8.3 231.43 0 241.87 0C252.31 0 260.81 8.3 260.81 18.51C260.81 28.72 252.32 37.02 241.87 37.02ZM241.87 5C234.19 5 227.93 11.06 227.93 18.51C227.93 25.96 234.18 32.02 241.87 32.02C249.56 32.02 255.81 25.96 255.81 18.51C255.81 11.06 249.56 5 241.87 5Z" fill="#231815"/>
<path d="M307.43 11.1699C302.04 9.44995 296.24 12.3099 294.48 17.5599C289.1 33.5699 275.53 45.21 259.16 48.72H220.79C211.78 54.25 205.65 63.8299 205.11 74.8399C206.01 70.5799 209.88 67.37 214.52 67.37C219.82 67.37 224.12 71.5599 224.12 76.7299V106.5H224.1V170.94H260.6V68.82C285.3 64.64 305.99 47.5899 314 23.78C315.77 18.53 312.83 12.8799 307.44 11.1599L307.43 11.1699Z" fill="#CFF2F4"/>
<path d="M260.59 173.44H224.09C222.71 173.44 221.59 172.32 221.59 170.94V106.5C221.59 106.38 221.59 106.27 221.61 106.16V76.73C221.61 72.95 218.42 69.88 214.51 69.88C211.14 69.88 208.22 72.19 207.55 75.36C207.28 76.64 206.08 77.49 204.78 77.33C203.49 77.16 202.54 76.03 202.6 74.73C203.17 63.26 209.47 52.75 219.47 46.61C219.86 46.37 220.32 46.24 220.78 46.24H258.89C274.43 42.81 287.15 31.55 292.11 16.78C294.31 10.25 301.52 6.68001 308.19 8.81001C311.48 9.86001 314.13 12.11 315.67 15.14C317.17 18.1 317.41 21.46 316.36 24.6C308.37 48.36 288.07 65.95 263.09 70.93V170.97C263.09 172.35 261.97 173.47 260.59 173.47V173.44ZM226.59 168.44H258.09V68.82C258.09 67.6 258.97 66.56 260.17 66.36C284.28 62.28 304 45.66 311.62 22.99C312.25 21.13 312.1 19.14 311.21 17.38C310.28 15.55 308.67 14.19 306.67 13.55C302.58 12.25 298.18 14.4 296.85 18.35C291.3 34.86 277.05 47.43 259.68 51.16C259.51 51.2 259.33 51.22 259.16 51.22H221.51C215.94 54.81 211.77 60 209.5 65.94C211.04 65.25 212.74 64.87 214.51 64.87C221.18 64.87 226.61 70.19 226.61 76.72V106.49C226.61 106.61 226.61 106.72 226.59 106.83V168.43V168.44Z" fill="#231815"/>
<path d="M220.78 48.7201H169.85C153.47 45.2101 139.91 33.5601 134.53 17.5601C132.76 12.3101 126.96 9.45007 121.58 11.1701C116.19 12.8901 113.26 18.5401 115.02 23.7901C123.03 47.6001 143.72 64.6501 168.42 68.8301V170.95H204.77L204.9 76.7301C204.9 76.0801 204.97 75.4501 205.1 74.8401C205.64 63.8301 211.77 54.2601 220.78 48.7201Z" fill="#FCF000"/>
<path d="M204.77 173.44H168.42C167.04 173.44 165.92 172.32 165.92 170.94V70.9C140.94 65.93 120.64 48.35 112.65 24.58C111.59 21.44 111.84 18.08 113.34 15.12C114.88 12.09 117.53 9.84004 120.82 8.79004C127.49 6.66004 134.71 10.24 136.9 16.76C141.87 31.53 154.58 42.79 170.12 46.22H220.78C221.9 46.22 222.88 46.96 223.19 48.04C223.5 49.12 223.05 50.26 222.09 50.85C213.5 56.13 208.08 65.14 207.59 74.96C207.59 75.09 207.57 75.22 207.54 75.35C207.45 75.8 207.4 76.26 207.4 76.72L207.27 170.94C207.27 172.32 206.15 173.44 204.77 173.44ZM170.92 168.44H202.27L202.4 76.72C202.4 75.98 202.47 75.24 202.61 74.52C203.1 65.63 207.03 57.34 213.45 51.22H169.85C169.67 51.22 169.5 51.2 169.33 51.16C151.96 47.43 137.71 34.86 132.16 18.35C130.83 14.4 126.43 12.24 122.34 13.55C120.34 14.19 118.73 15.55 117.8 17.38C116.91 19.14 116.76 21.13 117.39 22.99C125.02 45.66 144.73 62.28 168.84 66.36C170.04 66.56 170.92 67.61 170.92 68.82V168.44Z" fill="#231815"/>
<path d="M186.52 173.44C185.14 173.44 184.02 172.32 184.02 170.94V113.16C184.02 111.78 185.14 110.66 186.52 110.66C187.9 110.66 189.02 111.78 189.02 113.16V170.94C189.02 172.32 187.9 173.44 186.52 173.44Z" fill="#231815"/>
<path d="M242.26 173.44C240.88 173.44 239.76 172.32 239.76 170.94V113.16C239.76 111.78 240.88 110.66 242.26 110.66C243.64 110.66 244.76 111.78 244.76 113.16V170.94C244.76 172.32 243.64 173.44 242.26 173.44Z" fill="#231815"/>
<path d="M288.65 173.59H140.36C138.98 173.59 137.86 172.47 137.86 171.09C137.86 169.71 138.98 168.59 140.36 168.59H288.65C290.03 168.59 291.15 169.71 291.15 171.09C291.15 172.47 290.03 173.59 288.65 173.59Z" fill="#231815"/>
</g>
<defs>
<clipPath id="clip0_688_1963">
<rect width="205.01" height="173.59" fill="white" transform="translate(112)"/>
</clipPath>
</defs>
</svg>
