<svg width="403" height="268" viewBox="0 0 403 268" fill="none" xmlns="http://www.w3.org/2000/svg">
<circle cx="101" cy="108" r="101" fill="url(#paint0_radial_822_2430)"/>
<path d="M315.3 144.6C305.6 144.6 299.2 133.9 299.2 117.8C299.2 101.8 305.6 91.1 315.3 91.1C324.9 91.1 331.3 101.8 331.3 117.8C331.3 133.9 324.9 144.6 315.3 144.6ZM287.2 117.8C287.2 139.7 298.8 155.1 315.3 155.1C331.7 155.1 343.3 139.7 343.3 117.8C343.3 96 331.7 80.7 315.3 80.7C298.8 80.7 287.2 96 287.2 117.8Z" fill="#DDDDDD"/>
<path d="M351.653 143.9L352.653 154.4H398.653V143.9H368.953C382.153 132.9 397.553 120.4 397.553 105.1C397.553 90.8 387.753 80.7 373.653 80.7C363.853 80.7 353.953 87.3 349.753 96.6L360.153 101.3C362.653 95.7 368.153 91.8 373.653 91.8C380.653 91.8 385.553 97.3 385.553 105.1C385.553 117 366.353 129.8 351.653 143.9Z" fill="black"/>
<path d="M103.795 247.696V249.16H107.419V251.776H103.771V253.24H107.419V255.136H109.219V242.752H107.419V247.696H103.795ZM92.0113 246.352H103.819V244.888H98.8993V242.536H97.0993V244.888H92.0113V246.352ZM93.2353 251.2C93.2353 253.48 95.1793 254.968 97.9633 254.968C100.771 254.968 102.691 253.48 102.691 251.2C102.691 248.92 100.771 247.432 97.9633 247.432C95.1793 247.432 93.2353 248.92 93.2353 251.2ZM94.9392 251.2C94.9392 249.76 96.1393 248.8 97.9633 248.8C99.7873 248.8 101.011 249.76 101.011 251.2C101.011 252.64 99.7873 253.624 97.9633 253.624C96.1393 253.624 94.9392 252.64 94.9392 251.2ZM95.7073 263.464H109.219V256.048H107.443V258.304H97.4833V256.048H95.7073V263.464ZM97.4833 262.024V259.72H107.443V262.024H97.4833ZM113.324 244.024V245.512H120.596V248.488H113.396V254.68H114.86C119.108 254.68 121.196 254.608 123.812 254.152L123.62 252.688C121.148 253.144 119.132 253.216 115.172 253.216V249.904H122.372V244.024H113.324ZM115.724 258.28H127.94V263.8H129.74V256.816H115.724V258.28ZM123.764 251.704H127.94V255.664H129.74V242.776H127.94V245.896H123.764V247.384H127.94V250.24H123.764V251.704ZM138.716 243.736C135.572 243.736 133.316 245.704 133.316 248.584C133.316 251.44 135.572 253.432 138.716 253.432C141.572 253.432 143.708 251.752 144.044 249.28H148.436V254.008H150.236V242.752H148.436V247.792H144.044C143.66 245.344 141.548 243.736 138.716 243.736ZM135.044 248.584C135.044 246.616 136.556 245.248 138.716 245.248C140.852 245.248 142.364 246.616 142.364 248.584C142.364 250.528 140.852 251.896 138.716 251.896C136.556 251.896 135.044 250.528 135.044 248.584ZM136.844 263.464H150.236V255.088H148.436V257.776H138.644V255.088H136.844V263.464ZM138.644 262V259.216H148.436V262H138.644ZM162.045 251.08V252.568H165.357V262.648H167.037V243.256H165.357V251.08H162.045ZM153.333 258.04L154.389 259.432C156.477 258.16 157.989 255.784 158.733 253.072C159.501 255.616 161.013 257.8 163.077 258.952L164.109 257.608C161.301 256.072 159.573 252.592 159.573 249.232V248.152H163.485V246.664H159.573V243.496H157.845V246.664H153.885V248.152H157.845V249.232C157.845 252.688 156.165 256.384 153.333 258.04ZM169.557 263.752H171.285V242.752H169.557V263.752ZM180.285 244.12C177.045 244.12 174.741 246.136 174.741 249.04C174.741 251.704 176.637 253.576 179.397 253.912V257.584C177.381 257.656 175.437 257.656 173.757 257.656L174.045 259.168C177.717 259.168 182.661 259.12 187.077 258.376L186.933 257.032C185.109 257.272 183.141 257.416 181.197 257.512V253.912C183.933 253.552 185.805 251.68 185.805 249.04C185.805 246.136 183.501 244.12 180.285 244.12ZM176.493 249.04C176.493 247.048 178.077 245.656 180.285 245.656C182.469 245.656 184.053 247.048 184.053 249.04C184.053 251.032 182.469 252.424 180.285 252.424C178.077 252.424 176.493 251.032 176.493 249.04ZM188.277 263.752H190.053V252.976H193.461V251.464H190.053V242.752H188.277V263.752ZM199.569 253.168V254.632H218.529V253.168H209.913V250.696H216.297V249.208H203.745V245.2H216.153V243.736H201.969V250.696H208.137V253.168H199.569ZM201.849 259.96C201.849 262.384 204.537 263.728 209.025 263.728C213.489 263.728 216.201 262.384 216.201 259.96C216.201 257.56 213.489 256.192 209.025 256.192C204.537 256.192 201.849 257.56 201.849 259.96ZM203.649 259.96C203.649 258.472 205.689 257.608 209.025 257.608C212.361 257.608 214.377 258.472 214.377 259.96C214.377 261.472 212.361 262.312 209.025 262.312C205.689 262.312 203.649 261.472 203.649 259.96ZM234.538 242.776V258.16H236.338V250.648H239.458V249.16H236.338V242.776H234.538ZM220.978 254.632H230.65V244.264H228.874V247.84H222.754V244.264H220.978V254.632ZM222.754 253.168V249.256H228.874V253.168H222.754ZM223.33 263.272H237.298V261.784H225.106V256.696H223.33V263.272ZM240.946 244.912V246.424H245.794V249.256C245.794 252.832 243.154 256.816 240.226 258.28L241.282 259.696C243.61 258.472 245.722 255.76 246.682 252.712C247.618 255.52 249.61 258.016 251.962 259.192L252.994 257.752C249.994 256.336 247.546 252.592 247.546 249.256V246.424H252.25V244.912H240.946ZM254.842 263.752H256.642V252.808H260.122V251.296H256.642V242.752H254.842V263.752ZM267.262 244.384V245.872H275.878C275.878 247.192 275.83 248.992 275.302 251.512L277.078 251.704C277.63 248.92 277.63 246.832 277.63 245.488V244.384H267.262ZM265.966 253.672L266.182 255.16C269.878 255.16 274.918 255.064 279.262 254.32L279.142 253C276.982 253.312 274.582 253.48 272.254 253.576V249.04H270.478V253.624C268.87 253.672 267.31 253.672 265.966 253.672ZM269.206 263.272H283.054V261.784H270.982V257.128H269.206V263.272ZM280.582 258.568H282.382V251.128H285.454V249.64H282.382V242.752H280.582V258.568ZM294.551 253.888V255.352H298.463V262.648H300.167V243.304H298.463V248.632H295.223C295.415 247.6 295.511 246.52 295.511 245.44H287.471V246.928H293.735C293.399 251.344 291.095 255.184 286.583 257.896L287.639 259.216C291.599 256.84 293.879 253.648 294.887 250.096H298.463V253.888H294.551ZM302.663 263.752H304.391V242.752H302.663V263.752ZM326.555 242.776V256.816H328.355V250.648H331.499V249.16H328.355V242.776H326.555ZM312.035 254.728L312.275 256.192C315.923 256.192 320.915 256.168 325.427 255.352L325.283 254.056C323.435 254.32 321.467 254.488 319.499 254.584V253.072C321.923 252.856 323.459 251.728 323.459 250C323.459 248.08 321.539 246.904 318.587 246.904C315.659 246.904 313.739 248.08 313.739 250C313.739 251.752 315.299 252.88 317.723 253.072V254.656C315.683 254.728 313.715 254.728 312.035 254.728ZM312.563 246.064H324.635V244.696H319.499V242.584H317.723V244.696H312.563V246.064ZM314.603 259.336H326.555V263.752H328.355V257.896H314.603V259.336ZM315.443 250C315.443 248.872 316.667 248.152 318.587 248.152C320.531 248.152 321.755 248.872 321.755 250C321.755 251.104 320.531 251.872 318.587 251.872C316.667 251.872 315.443 251.104 315.443 250ZM347.987 242.752V254.272H349.811V242.752H347.987ZM333.659 245.248H341.411V247.984H333.707V253.816H335.387C339.251 253.816 342.107 253.72 345.587 253.144L345.371 251.656C342.011 252.208 339.203 252.328 335.459 252.328V249.4H343.163V243.784H333.659V245.248ZM336.275 263.464H349.811V255.352H348.035V257.896H338.051V255.352H336.275V263.464ZM338.051 261.976V259.336H348.035V261.976H338.051Z" fill="black"/>
<g clip-path="url(#clip0_822_2430)">
<path d="M208.967 121.629C211.729 124.391 216.206 124.391 218.968 121.629C221.731 118.866 221.731 114.389 218.968 111.627L191.536 84.1967L191.576 84.1568L224.443 117.022C227.205 119.784 231.682 119.784 234.445 117.022C237.207 114.26 237.207 109.783 234.445 107.021L229.548 102.125C232.331 104.358 236.399 104.189 238.982 101.616C241.744 98.8543 241.744 94.3773 238.982 91.6152L211.549 64.1845L211.569 64.1646L216.794 69.3895C219.826 72.4207 224.732 72.4207 227.764 69.3895C230.795 66.3582 230.795 61.4524 227.764 58.4212L221.551 52.2091C221.451 51.9997 221.322 51.8003 221.142 51.6208L201.897 30.0631C199.443 27.6102 196.133 26.5632 192.942 26.9023L173.078 25.5562L173.048 25.596L151.399 3.96854L114.812 40.5528L140.65 66.3882L146.164 78.892L146.284 78.7624C146.643 79.4005 147.091 80.0088 147.64 80.5472L169.917 102.823C170.096 103.002 170.306 103.132 170.515 103.232L184.635 117.351C187.398 120.113 191.875 120.113 194.637 117.351C197.399 114.589 197.399 110.112 194.637 107.35L181.494 94.2078L181.524 94.1778L208.957 121.609L208.967 121.629Z" fill="white"/>
<path d="M213.962 126.185C211.41 126.185 209.006 125.188 207.201 123.383L198.835 115.018C198.406 116.523 197.599 117.939 196.412 119.126C192.682 122.855 186.61 122.855 182.88 119.126L169.019 105.266C168.7 105.076 168.421 104.857 168.162 104.598L145.885 82.3221C145.456 81.8933 145.057 81.4147 144.698 80.9062C144.349 80.6469 144.07 80.3079 143.89 79.8991L138.555 67.824L113.047 42.3077C112.579 41.8391 112.319 41.2109 112.319 40.5428C112.319 39.8748 112.579 39.2466 113.047 38.7779L149.634 2.20363C150.611 1.22645 152.187 1.22645 153.164 2.20363L174.085 23.1232L192.892 24.3895C196.9 24.0405 200.809 25.4465 203.651 28.2882C203.681 28.3182 203.721 28.358 203.751 28.388L222.967 49.9058C223.186 50.1351 223.386 50.3944 223.565 50.6835L229.528 56.6463C231.463 58.5807 232.53 61.1533 232.53 63.8953C232.53 66.6374 231.463 69.21 229.528 71.1444C228.192 72.4805 226.547 73.4079 224.752 73.8466L240.747 89.8404C244.476 93.5696 244.476 99.642 240.747 103.371C239.58 104.538 238.184 105.346 236.708 105.784C238.204 107.519 239.012 109.703 239.012 112.006C239.012 114.559 238.014 116.962 236.209 118.767C234.405 120.572 232.001 121.569 229.449 121.569C227.115 121.569 224.921 120.741 223.176 119.225C222.738 120.781 221.91 122.207 220.733 123.383C218.928 125.188 216.525 126.185 213.972 126.185H213.962ZM181.544 91.705C182.182 91.705 182.81 91.9443 183.289 92.4229L210.721 119.854C211.589 120.721 212.736 121.2 213.962 121.2C215.189 121.2 216.336 120.721 217.203 119.854C218.071 118.986 218.549 117.839 218.549 116.613C218.549 115.387 218.071 114.24 217.203 113.372L189.771 85.9416C188.793 84.9645 188.793 83.389 189.771 82.4118C190.748 81.4347 192.363 81.3948 193.341 82.3719L226.208 115.237C227.075 116.104 228.222 116.583 229.449 116.583C230.675 116.583 231.822 116.104 232.689 115.237C233.557 114.369 234.036 113.223 234.036 111.996C234.036 110.77 233.557 109.623 232.689 108.756L227.803 103.87C226.866 102.933 226.826 101.427 227.713 100.44C228.601 99.4526 230.097 99.3329 231.134 100.161C232.959 101.626 235.581 101.487 237.237 99.8315C239.022 98.0467 239.022 95.145 237.237 93.3602L209.804 65.9295C208.837 64.9623 208.827 63.4068 209.774 62.4296C210.243 61.951 210.881 61.6718 211.549 61.6618C212.227 61.6817 212.865 61.9111 213.334 62.3797L218.559 67.6046C219.556 68.6017 220.873 69.1502 222.279 69.1502C223.685 69.1502 225.001 68.6017 225.998 67.6046C226.995 66.6075 227.544 65.2913 227.544 63.8854C227.544 62.4794 226.995 61.1632 225.998 60.1661L219.786 53.9541C219.596 53.7646 219.437 53.5453 219.317 53.296C219.307 53.286 219.297 53.276 219.287 53.2561L200.091 31.7582C198.267 29.9634 195.764 29.0859 193.201 29.3552C193.061 29.3751 192.912 29.3751 192.772 29.3552L173.217 28.039C173.217 28.039 173.197 28.039 173.187 28.039C172.469 28.0789 171.771 27.8296 171.273 27.331L151.399 7.48836L118.342 40.5528L142.424 64.6332C142.644 64.8526 142.823 65.1118 142.943 65.391L148.078 77.0274C148.228 77.177 148.358 77.3564 148.467 77.5459C148.736 78.0245 149.056 78.4433 149.415 78.8023L171.622 101.008C171.861 101.128 172.101 101.297 172.28 101.477L186.4 115.596C188.185 117.381 191.097 117.381 192.882 115.596C194.667 113.811 194.667 110.909 192.882 109.115L179.739 95.9726C179.27 95.504 179.011 94.8758 179.011 94.2077C179.011 93.5397 179.27 92.9115 179.739 92.4428C180.228 91.9543 180.886 91.695 181.544 91.695V91.705Z" fill="#231815"/>
<path d="M234.016 106.163C231.563 106.163 229.12 105.236 227.255 103.371L197.529 73.6472C196.552 72.67 196.552 71.0946 197.529 70.1174C198.506 69.1402 200.082 69.1402 201.059 70.1174L230.785 99.8415C232.57 101.626 235.482 101.626 237.267 99.8415C239.052 98.0566 239.052 95.155 237.267 93.3702L208.378 64.4837C207.401 63.5065 207.401 61.931 208.378 60.9539C209.355 59.9767 210.931 59.9767 211.908 60.9539L240.797 89.8404C244.526 93.5696 244.526 99.642 240.797 103.371C238.932 105.236 236.479 106.163 234.036 106.163H234.016Z" fill="#231815"/>
<path d="M218.759 73.8266C218.121 73.8266 217.482 73.5873 216.994 73.0987L206.125 62.2302C205.147 61.253 205.147 59.6775 206.125 58.7004C207.102 57.7232 208.677 57.7232 209.655 58.7004L220.524 69.5689C221.501 70.5461 221.501 72.1216 220.524 73.0987C220.035 73.5873 219.397 73.8266 218.759 73.8266Z" fill="#231815"/>
<path d="M231.363 96.1521C228.601 93.3901 224.123 93.3901 221.361 96.1521C218.599 98.9142 218.599 103.391 221.361 106.153L248.794 133.584L248.754 133.624L215.886 100.759C213.124 97.9968 208.647 97.9968 205.885 100.759C203.123 103.521 203.123 107.998 205.885 110.76L210.781 115.656C207.999 113.422 203.93 113.592 201.348 116.164C198.585 118.926 198.585 123.403 201.348 126.165L228.78 153.596L228.76 153.616L223.535 148.391C220.503 145.36 215.597 145.36 212.566 148.391C209.534 151.422 209.534 156.328 212.566 159.359L218.778 165.572C218.878 165.781 219.008 165.98 219.187 166.16L238.433 187.718C240.886 190.17 244.197 191.217 247.388 190.878L267.251 192.224L267.281 192.185L288.91 213.812L325.497 177.228L299.66 151.393L294.145 138.889L294.026 139.018C293.667 138.38 293.218 137.772 292.67 137.233L270.393 114.958C270.213 114.778 270.004 114.649 269.794 114.549L255.674 100.43C252.912 97.6678 248.435 97.6678 245.672 100.43C242.91 103.192 242.91 107.669 245.672 110.431L258.815 123.573L258.785 123.603L231.353 96.1721L231.363 96.1521Z" fill="#FCF000"/>
<path d="M288.92 216.305C288.282 216.305 287.644 216.066 287.155 215.577L266.234 194.657L247.428 193.391C243.419 193.75 239.51 192.334 236.668 189.492C236.638 189.462 236.598 189.423 236.568 189.393L217.352 167.875C217.133 167.646 216.934 167.386 216.754 167.097L210.791 161.134C206.792 157.136 206.792 150.635 210.791 146.646C212.157 145.28 213.812 144.383 215.568 143.944L199.563 127.94C195.833 124.211 195.833 118.139 199.563 114.409C200.729 113.243 202.125 112.435 203.601 111.996C202.106 110.261 201.298 108.078 201.298 105.774C201.298 103.222 202.295 100.819 204.1 99.0139C205.905 97.2091 208.308 96.212 210.861 96.212C213.194 96.212 215.388 97.0396 217.133 98.5552C217.572 96.9997 218.4 95.5738 219.576 94.3972C221.381 92.5924 223.784 91.5953 226.337 91.5953C228.89 91.5953 231.293 92.5924 233.098 94.3972L241.464 102.763C241.893 101.257 242.701 99.8415 243.888 98.6549C247.617 94.9257 253.69 94.9257 257.419 98.6549L271.28 112.515C271.599 112.704 271.888 112.934 272.138 113.183L294.405 135.449C294.834 135.877 295.233 136.356 295.592 136.864C295.941 137.114 296.22 137.463 296.399 137.872L301.734 149.947L327.242 175.453C327.711 175.922 327.97 176.55 327.97 177.218C327.97 177.886 327.711 178.514 327.242 178.983L290.655 215.567C290.167 216.056 289.529 216.295 288.89 216.295L288.92 216.305ZM267.281 189.712C267.94 189.712 268.588 189.951 269.047 190.42L288.91 210.282L321.967 177.228L297.885 153.147C297.666 152.928 297.486 152.669 297.367 152.39L292.231 140.753C292.081 140.604 291.952 140.424 291.842 140.235C291.573 139.756 291.254 139.337 290.895 138.978L268.678 116.773C268.448 116.653 268.199 116.483 268.019 116.304L253.899 102.185C252.114 100.4 249.213 100.4 247.418 102.185C245.633 103.97 245.633 106.871 247.418 108.666L260.56 121.808C261.029 122.277 261.288 122.905 261.288 123.573C261.288 124.241 261.029 124.869 260.56 125.338C259.583 126.315 257.978 126.335 257.01 125.368L229.578 97.937C228.71 97.0695 227.564 96.5909 226.337 96.5909C225.111 96.5909 223.964 97.0695 223.096 97.937C222.229 98.8045 221.75 99.9512 221.75 101.178C221.75 102.404 222.229 103.551 223.096 104.418L250.529 131.849C250.997 132.318 251.257 132.956 251.257 133.614C251.257 134.272 250.988 134.91 250.519 135.379C249.542 136.346 247.926 136.386 246.959 135.409L214.092 102.544C213.224 101.676 212.077 101.198 210.851 101.198C209.624 101.198 208.478 101.676 207.61 102.544C206.742 103.411 206.264 104.558 206.264 105.784C206.264 107.011 206.742 108.157 207.61 109.025L212.496 113.911C213.434 114.848 213.473 116.354 212.586 117.341C211.698 118.328 210.203 118.448 209.166 117.62C207.341 116.154 204.718 116.294 203.063 117.949C201.278 119.734 201.278 122.636 203.063 124.43L230.495 151.861C231.463 152.828 231.473 154.384 230.525 155.361C230.057 155.84 229.418 156.119 228.75 156.129C228.082 156.129 227.434 155.88 226.965 155.411L221.74 150.186C219.686 148.132 216.345 148.132 214.301 150.186C212.247 152.24 212.247 155.58 214.301 157.624L220.514 163.837C220.703 164.026 220.863 164.245 220.982 164.495L221.012 164.525L240.208 186.022C242.033 187.817 244.536 188.695 247.098 188.425C247.238 188.406 247.388 188.406 247.527 188.425L267.082 189.742C267.082 189.742 267.102 189.742 267.112 189.742C267.162 189.742 267.212 189.742 267.252 189.742L267.281 189.712Z" fill="#231815"/>
<path d="M230.196 157.555C229.558 157.555 228.92 157.315 228.431 156.827L199.543 127.94C195.813 124.211 195.813 118.139 199.543 114.409C201.348 112.605 203.751 111.607 206.304 111.607C208.856 111.607 211.26 112.605 213.065 114.409L242.791 144.133C243.768 145.111 243.768 146.686 242.791 147.663C241.813 148.64 240.238 148.64 239.261 147.663L209.534 117.939C208.667 117.072 207.52 116.593 206.294 116.593C205.067 116.593 203.92 117.072 203.053 117.939C201.268 119.724 201.268 122.626 203.053 124.42L231.941 153.307C232.918 154.284 232.918 155.86 231.941 156.837C231.453 157.325 230.814 157.565 230.176 157.565L230.196 157.555Z" fill="#231815"/>
<path d="M232.44 159.818C231.802 159.818 231.163 159.579 230.675 159.09L219.795 148.212C218.818 147.235 218.818 145.659 219.795 144.682C220.773 143.705 222.348 143.705 223.325 144.682L234.205 155.56C235.182 156.538 235.182 158.113 234.205 159.09C233.716 159.579 233.078 159.818 232.44 159.818Z" fill="#231815"/>
<path d="M206.543 96.6108C203.781 99.3728 203.781 103.85 206.543 106.612C209.305 109.374 213.782 109.374 216.545 106.612L243.977 79.1812L244.017 79.221L211.15 112.086C208.388 114.848 208.388 119.325 211.15 122.087C213.912 124.849 218.389 124.849 221.152 122.087L226.048 117.191C223.814 119.973 223.984 124.042 226.556 126.624C229.319 129.386 233.796 129.386 236.558 126.624L263.991 99.1933L264.011 99.2133L258.785 104.438C255.754 107.469 255.754 112.375 258.785 115.406C261.817 118.438 266.723 118.438 269.754 115.406L275.967 109.194C276.176 109.095 276.376 108.965 276.555 108.786L298.114 89.5412C300.567 87.0883 301.614 83.7779 301.275 80.5871L302.622 60.7245L302.582 60.6946L324.211 39.0671L287.624 2.46288L261.787 28.2982L249.282 33.8123L249.412 33.9319C248.774 34.2909 248.165 34.7396 247.627 35.288L225.35 57.5636C225.17 57.7431 225.041 57.9525 224.941 58.1619L210.821 72.2811C208.059 75.0431 208.059 79.5202 210.821 82.2822C213.583 85.0442 218.06 85.0442 220.823 82.2822L233.965 69.1402L233.995 69.1701L206.563 96.6008L206.543 96.6108Z" fill="#CFF2F4"/>
<path d="M231.562 131.181C229.109 131.181 226.666 130.244 224.802 128.379C223.635 127.212 222.827 125.816 222.388 124.341C220.653 125.826 218.469 126.644 216.156 126.644C213.603 126.644 211.2 125.647 209.395 123.842C205.825 120.272 205.676 114.559 208.936 110.81C207.381 110.371 205.955 109.543 204.778 108.367C201.049 104.638 201.049 98.5651 204.778 94.8359L213.144 86.4701C211.639 86.0413 210.223 85.2337 209.036 84.0471C205.307 80.3179 205.307 74.2454 209.036 70.5162L222.897 56.6562C223.086 56.3372 223.306 56.058 223.565 55.7987L245.842 33.5231C246.271 33.0943 246.75 32.6955 247.258 32.3365C247.517 31.9875 247.856 31.7083 248.265 31.5289L260.341 26.1943L285.859 0.697964C286.796 -0.239328 288.452 -0.239328 289.389 0.697964L325.976 37.2822C326.444 37.7509 326.704 38.3791 326.704 39.0471C326.704 39.7152 326.444 40.3434 325.976 40.812L305.055 61.7316L303.788 80.5472C304.147 84.5556 302.731 88.4643 299.889 91.3061C299.86 91.336 299.82 91.3759 299.79 91.4058L278.271 110.62C278.041 110.84 277.782 111.039 277.493 111.219L271.53 117.181C269.595 119.116 267.022 120.183 264.28 120.183C261.538 120.183 258.965 119.116 257.03 117.181C255.694 115.845 254.767 114.2 254.328 112.405L238.333 128.399C236.469 130.264 234.015 131.191 231.572 131.201L231.562 131.181ZM226.048 114.699C226.646 114.699 227.235 114.908 227.713 115.337C228.7 116.224 228.82 117.72 227.992 118.757C226.527 120.581 226.666 123.204 228.322 124.859C230.107 126.644 233.008 126.644 234.793 124.859L262.226 97.4284C263.203 96.4512 264.779 96.4512 265.756 97.4284C266.733 98.4056 266.743 100.001 265.776 100.968L260.551 106.193C259.553 107.19 259.005 108.506 259.005 109.912C259.005 111.318 259.553 112.634 260.551 113.632C261.548 114.629 262.864 115.177 264.27 115.177C265.676 115.177 267.002 114.629 267.99 113.632L274.202 107.42C274.391 107.23 274.611 107.071 274.86 106.951C274.87 106.941 274.88 106.931 274.89 106.921L296.389 87.7265C298.184 85.9017 299.062 83.399 298.793 80.8364C298.773 80.6968 298.773 80.5472 298.793 80.4076L300.109 60.8641C300.109 60.8641 300.109 60.8441 300.109 60.8342C300.069 60.1262 300.308 59.4183 300.817 58.9097L320.681 39.0471L287.624 5.99266L263.542 30.0731C263.323 30.2924 263.063 30.4719 262.784 30.5916L251.147 35.7267C250.998 35.8763 250.818 36.0059 250.629 36.1156C250.15 36.3848 249.731 36.7039 249.372 37.0629L227.165 59.2687C227.045 59.508 226.876 59.7473 226.696 59.9268L212.576 74.046C210.791 75.8308 210.791 78.7324 212.576 80.5273C214.361 82.3121 217.263 82.3121 219.048 80.5273L232.191 67.3852C232.659 66.9166 233.278 66.6175 233.966 66.6573C234.634 66.6573 235.272 66.9266 235.731 67.4052C236.688 68.3824 236.708 69.9678 235.731 70.935L208.298 98.3657C206.513 100.151 206.513 103.052 208.298 104.847C209.166 105.714 210.312 106.193 211.539 106.193C212.765 106.193 213.912 105.714 214.78 104.847L242.212 77.4162C243.18 76.449 244.755 76.4391 245.732 77.4063C246.201 77.8749 246.49 78.533 246.49 79.1911C246.49 79.8492 246.251 80.5173 245.782 80.9859L212.915 113.851C211.13 115.636 211.13 118.537 212.915 120.332C213.783 121.2 214.929 121.678 216.156 121.678C217.382 121.678 218.529 121.2 219.397 120.332L224.293 115.436C224.782 114.948 225.42 114.708 226.058 114.708L226.048 114.699Z" fill="#231815"/>
<path d="M231.563 131.231C229.01 131.231 226.607 130.234 224.802 128.429C222.997 126.624 222 124.221 222 121.668C222 119.116 222.997 116.713 224.802 114.908L254.528 85.1838C255.505 84.2066 257.08 84.2066 258.058 85.1838C259.035 86.161 259.035 87.7364 258.058 88.7136L228.332 118.438C227.464 119.305 226.985 120.452 226.985 121.678C226.985 122.905 227.464 124.051 228.332 124.919C229.199 125.786 230.346 126.265 231.572 126.265C232.799 126.265 233.946 125.786 234.813 124.919L263.702 96.0325C264.679 95.0553 266.255 95.0553 267.232 96.0325C268.209 97.0096 268.209 98.5851 267.232 99.5623L238.343 128.449C236.538 130.254 234.135 131.251 231.582 131.251L231.563 131.231Z" fill="#231815"/>
<path d="M256.841 108.895C256.203 108.895 255.565 108.656 255.076 108.167C254.099 107.19 254.099 105.615 255.076 104.638L265.955 93.769C266.933 92.7918 268.508 92.7918 269.485 93.769C270.463 94.7462 270.463 96.3216 269.485 97.2988L258.606 108.167C258.118 108.656 257.479 108.895 256.841 108.895Z" fill="#231815"/>
<path d="M232.161 121.369C234.923 118.607 234.923 114.13 232.161 111.368C229.399 108.606 224.921 108.606 222.159 111.368L194.727 138.799L194.687 138.759L227.554 105.894C230.316 103.132 230.316 98.6549 227.554 95.8929C224.792 93.1309 220.314 93.1309 217.552 95.8929L212.656 100.789C214.89 98.0068 214.72 93.9385 212.147 91.356C209.385 88.594 204.908 88.594 202.146 91.356L174.713 118.787L174.693 118.767L179.918 113.542C182.95 110.511 182.95 105.605 179.918 102.574C176.887 99.5423 171.981 99.5423 168.949 102.574L162.737 108.786C162.528 108.885 162.328 109.015 162.149 109.194L140.589 128.439C138.136 130.892 137.089 134.202 137.428 137.393L136.082 157.256L136.122 157.285L114.493 178.913L151.08 215.497L176.917 189.662L189.422 184.148L189.292 184.028C189.93 183.669 190.538 183.221 191.077 182.672L213.354 160.396C213.533 160.217 213.663 160.008 213.763 159.798L227.883 145.679C230.645 142.917 230.645 138.44 227.883 135.678C225.121 132.916 220.643 132.916 217.881 135.678L204.738 148.82L204.708 148.79L232.141 121.359L232.161 121.369Z" fill="#CFF2F4"/>
<path d="M151.08 218C150.441 218 149.803 217.761 149.315 217.272L112.728 180.688C112.259 180.219 112 179.591 112 178.923C112 178.255 112.259 177.627 112.728 177.158L133.649 156.239L134.915 137.423C134.556 133.415 135.972 129.506 138.814 126.664C138.844 126.634 138.884 126.594 138.914 126.564L160.433 107.35C160.663 107.13 160.922 106.931 161.211 106.752L167.174 100.789C169.109 98.8544 171.681 97.7875 174.424 97.7875C177.166 97.7875 179.739 98.8544 181.673 100.789C183.009 102.125 183.937 103.77 184.376 105.565L200.37 89.5712C202.175 87.7664 204.579 86.7693 207.131 86.7693C209.684 86.7693 212.087 87.7664 213.892 89.5712C215.059 90.7379 215.867 92.1338 216.305 93.6096C220.055 90.3889 225.739 90.5484 229.299 94.1081C232.869 97.6778 233.018 103.391 229.757 107.15C231.283 107.579 232.719 108.397 233.916 109.583C237.645 113.313 237.645 119.385 233.916 123.114L225.549 131.48C227.085 131.919 228.491 132.746 229.648 133.903C233.377 137.632 233.377 143.705 229.648 147.434L215.777 161.304C215.587 161.623 215.368 161.902 215.109 162.161L192.832 184.437C192.403 184.866 191.924 185.265 191.416 185.624C191.156 185.973 190.817 186.252 190.409 186.431L178.333 191.766L152.825 217.272C152.336 217.761 151.698 218 151.06 218H151.08ZM118.023 178.933L151.08 211.987L175.162 187.907C175.381 187.688 175.64 187.508 175.919 187.389L187.557 182.253C187.706 182.104 187.886 181.974 188.075 181.865C188.554 181.595 188.973 181.276 189.332 180.917L211.539 158.711C211.659 158.482 211.828 158.233 212.008 158.053L226.128 143.934C227.913 142.149 227.913 139.248 226.128 137.453C225.26 136.585 224.113 136.107 222.887 136.107C221.66 136.107 220.514 136.585 219.646 137.453L206.503 150.595C205.526 151.572 203.95 151.572 202.973 150.595C201.996 149.618 201.976 148.022 202.953 147.045L230.386 119.614C232.171 117.83 232.171 114.928 230.386 113.133C228.601 111.348 225.699 111.348 223.914 113.133L196.481 140.564C195.514 141.531 193.939 141.541 192.961 140.574C192.493 140.105 192.204 139.447 192.204 138.789C192.204 138.131 192.443 137.463 192.911 136.994L225.779 104.129C227.564 102.344 227.564 99.4427 225.779 97.6479C223.994 95.863 221.092 95.863 219.307 97.6479L214.411 102.544C213.473 103.481 211.968 103.521 210.98 102.633C209.993 101.746 209.874 100.25 210.701 99.2134C212.167 97.3886 212.028 94.7662 210.372 93.111C209.505 92.2435 208.358 91.7649 207.131 91.7649C205.905 91.7649 204.758 92.2435 203.891 93.111L176.458 120.542C175.989 121.01 175.361 121.26 174.673 121.27C174.005 121.27 173.367 120.99 172.898 120.512C171.951 119.535 171.941 117.959 172.908 116.992L178.133 111.767C180.187 109.713 180.187 106.373 178.133 104.329C177.136 103.331 175.82 102.783 174.414 102.783C173.008 102.783 171.681 103.331 170.694 104.329L164.482 110.541C164.292 110.73 164.063 110.89 163.824 111.009C163.814 111.019 163.804 111.029 163.794 111.039L142.294 130.234C140.5 132.058 139.622 134.561 139.891 137.124C139.911 137.263 139.911 137.413 139.891 137.553L138.575 157.096C138.575 157.096 138.575 157.116 138.575 157.126C138.615 157.834 138.376 158.542 137.867 159.05L118.003 178.913L118.023 178.933Z" fill="#231815"/>
<path d="M182.421 133.534C181.783 133.534 181.145 133.295 180.656 132.806C179.679 131.829 179.679 130.254 180.656 129.276L210.382 99.5523C211.25 98.6848 211.728 97.5381 211.728 96.3117C211.728 95.0852 211.25 93.9385 210.382 93.071C209.515 92.2035 208.368 91.7249 207.141 91.7249C205.915 91.7249 204.768 92.2035 203.9 93.071L175.012 121.958C174.035 122.935 172.459 122.935 171.482 121.958C170.505 120.98 170.505 119.405 171.482 118.428L200.37 89.5412C202.175 87.7364 204.578 86.7393 207.131 86.7393C209.684 86.7393 212.087 87.7364 213.892 89.5412C215.697 91.346 216.694 93.7491 216.694 96.3017C216.694 98.8543 215.697 101.257 213.892 103.062L184.166 132.786C183.678 133.275 183.039 133.514 182.401 133.514L182.421 133.534Z" fill="#231815"/>
<path d="M170.983 124.939C170.345 124.939 169.707 124.7 169.218 124.211C168.241 123.234 168.241 121.658 169.218 120.681L180.098 109.813C181.075 108.835 182.65 108.835 183.628 109.813C184.605 110.79 184.605 112.365 183.628 113.342L172.748 124.211C172.26 124.7 171.621 124.939 170.983 124.939Z" fill="#231815"/>
</g>
<defs>
<radialGradient id="paint0_radial_822_2430" cx="0" cy="0" r="1" gradientUnits="userSpaceOnUse" gradientTransform="translate(101 108) rotate(90) scale(101)">
<stop stop-color="#FFFF00" stop-opacity="0.5"/>
<stop offset="1" stop-color="#FFFF00" stop-opacity="0"/>
</radialGradient>
<clipPath id="clip0_822_2430">
<rect width="216" height="218" fill="white" transform="translate(112)"/>
</clipPath>
</defs>
</svg>
