<svg width="32" height="32" viewBox="0 0 32 32" fill="none" xmlns="http://www.w3.org/2000/svg">
<mask id="mask0_343_2825" style="mask-type:alpha" maskUnits="userSpaceOnUse" x="0" y="0" width="32" height="32">
<rect width="32" height="32" fill="#D9D9D9"/>
</mask>
<g mask="url(#mask0_343_2825)">
<path d="M16.0052 29.3327C14.183 29.3327 12.4608 28.9827 10.8385 28.2827C9.21632 27.5827 7.79965 26.6271 6.58854 25.416C5.37743 24.2049 4.42188 22.7882 3.72187 21.166C3.02187 19.5438 2.67188 17.8216 2.67188 15.9993C2.67188 14.1549 3.02187 12.4271 3.72187 10.816C4.42188 9.2049 5.37743 7.79379 6.58854 6.58268C7.79965 5.37157 9.21632 4.41602 10.8385 3.71602C12.4608 3.01602 14.183 2.66602 16.0052 2.66602C17.8497 2.66602 19.5774 3.01602 21.1885 3.71602C22.7997 4.41602 24.2108 5.37157 25.4219 6.58268C26.633 7.79379 27.5885 9.2049 28.2885 10.816C28.9885 12.4271 29.3385 14.1549 29.3385 15.9993C29.3385 17.8216 28.9885 19.5438 28.2885 21.166C27.5885 22.7882 26.633 24.2049 25.4219 25.416C24.2108 26.6271 22.7997 27.5827 21.1885 28.2827C19.5774 28.9827 17.8497 29.3327 16.0052 29.3327ZM16.0052 26.5993C16.583 25.7993 17.083 24.966 17.5052 24.0993C17.9274 23.2327 18.2719 22.3105 18.5385 21.3327H13.4719C13.7385 22.3105 14.083 23.2327 14.5052 24.0993C14.9274 24.966 15.4274 25.7993 16.0052 26.5993ZM12.5385 26.066C12.1385 25.3327 11.7885 24.5716 11.4885 23.7827C11.1885 22.9938 10.9385 22.1771 10.7385 21.3327H6.80521C7.44965 22.4438 8.25521 23.4105 9.22187 24.2327C10.1885 25.0549 11.2941 25.666 12.5385 26.066ZM19.4719 26.066C20.7163 25.666 21.8219 25.0549 22.7885 24.2327C23.7552 23.4105 24.5608 22.4438 25.2052 21.3327H21.2719C21.0719 22.1771 20.8219 22.9938 20.5219 23.7827C20.2219 24.5716 19.8719 25.3327 19.4719 26.066ZM5.67187 18.666H10.2052C10.1385 18.2216 10.0885 17.7827 10.0552 17.3493C10.0219 16.916 10.0052 16.466 10.0052 15.9993C10.0052 15.5327 10.0219 15.0827 10.0552 14.6493C10.0885 14.216 10.1385 13.7771 10.2052 13.3327H5.67187C5.56076 13.7771 5.47743 14.216 5.42187 14.6493C5.36632 15.0827 5.33854 15.5327 5.33854 15.9993C5.33854 16.466 5.36632 16.916 5.42187 17.3493C5.47743 17.7827 5.56076 18.2216 5.67187 18.666ZM12.8719 18.666H19.1385C19.2052 18.2216 19.2552 17.7827 19.2885 17.3493C19.3219 16.916 19.3385 16.466 19.3385 15.9993C19.3385 15.5327 19.3219 15.0827 19.2885 14.6493C19.2552 14.216 19.2052 13.7771 19.1385 13.3327H12.8719C12.8052 13.7771 12.7552 14.216 12.7219 14.6493C12.6885 15.0827 12.6719 15.5327 12.6719 15.9993C12.6719 16.466 12.6885 16.916 12.7219 17.3493C12.7552 17.7827 12.8052 18.2216 12.8719 18.666ZM21.8052 18.666H26.3385C26.4497 18.2216 26.533 17.7827 26.5885 17.3493C26.6441 16.916 26.6719 16.466 26.6719 15.9993C26.6719 15.5327 26.6441 15.0827 26.5885 14.6493C26.533 14.216 26.4497 13.7771 26.3385 13.3327H21.8052C21.8719 13.7771 21.9219 14.216 21.9552 14.6493C21.9885 15.0827 22.0052 15.5327 22.0052 15.9993C22.0052 16.466 21.9885 16.916 21.9552 17.3493C21.9219 17.7827 21.8719 18.2216 21.8052 18.666ZM21.2719 10.666H25.2052C24.5608 9.5549 23.7552 8.58824 22.7885 7.76602C21.8219 6.94379 20.7163 6.33268 19.4719 5.93268C19.8719 6.66602 20.2219 7.42713 20.5219 8.21602C20.8219 9.0049 21.0719 9.82157 21.2719 10.666ZM13.4719 10.666H18.5385C18.2719 9.68824 17.9274 8.76602 17.5052 7.89935C17.083 7.03268 16.583 6.19935 16.0052 5.39935C15.4274 6.19935 14.9274 7.03268 14.5052 7.89935C14.083 8.76602 13.7385 9.68824 13.4719 10.666ZM6.80521 10.666H10.7385C10.9385 9.82157 11.1885 9.0049 11.4885 8.21602C11.7885 7.42713 12.1385 6.66602 12.5385 5.93268C11.2941 6.33268 10.1885 6.94379 9.22187 7.76602C8.25521 8.58824 7.44965 9.5549 6.80521 10.666Z" fill="white"/>
</g>
</svg>
