<svg width="32" height="32" viewBox="0 0 32 32" fill="none" xmlns="http://www.w3.org/2000/svg">
<mask id="mask0_299_1927" style="mask-type:alpha" maskUnits="userSpaceOnUse" x="0" y="0" width="32" height="32">
<rect width="32" height="32" fill="#D9D9D9"/>
</mask>
<g mask="url(#mask0_299_1927)">
<path d="M16.0013 29.3327C14.1791 29.3327 12.4569 28.9827 10.8346 28.2827C9.21241 27.5827 7.79575 26.6271 6.58464 25.416C5.37352 24.2049 4.41797 22.7882 3.71797 21.166C3.01797 19.5438 2.66797 17.8216 2.66797 15.9993C2.66797 14.1549 3.01797 12.4271 3.71797 10.816C4.41797 9.2049 5.37352 7.79379 6.58464 6.58268C7.79575 5.37157 9.21241 4.41602 10.8346 3.71602C12.4569 3.01602 14.1791 2.66602 16.0013 2.66602C17.8457 2.66602 19.5735 3.01602 21.1846 3.71602C22.7957 4.41602 24.2069 5.37157 25.418 6.58268C26.6291 7.79379 27.5846 9.2049 28.2846 10.816C28.9846 12.4271 29.3346 14.1549 29.3346 15.9993C29.3346 17.8216 28.9846 19.5438 28.2846 21.166C27.5846 22.7882 26.6291 24.2049 25.418 25.416C24.2069 26.6271 22.7957 27.5827 21.1846 28.2827C19.5735 28.9827 17.8457 29.3327 16.0013 29.3327ZM16.0013 26.5993C16.5791 25.7993 17.0791 24.966 17.5013 24.0993C17.9235 23.2327 18.268 22.3105 18.5346 21.3327H13.468C13.7346 22.3105 14.0791 23.2327 14.5013 24.0993C14.9235 24.966 15.4235 25.7993 16.0013 26.5993ZM12.5346 26.066C12.1346 25.3327 11.7846 24.5716 11.4846 23.7827C11.1846 22.9938 10.9346 22.1771 10.7346 21.3327H6.8013C7.44575 22.4438 8.2513 23.4105 9.21797 24.2327C10.1846 25.0549 11.2902 25.666 12.5346 26.066ZM19.468 26.066C20.7124 25.666 21.818 25.0549 22.7846 24.2327C23.7513 23.4105 24.5569 22.4438 25.2013 21.3327H21.268C21.068 22.1771 20.818 22.9938 20.518 23.7827C20.218 24.5716 19.868 25.3327 19.468 26.066ZM5.66797 18.666H10.2013C10.1346 18.2216 10.0846 17.7827 10.0513 17.3493C10.018 16.916 10.0013 16.466 10.0013 15.9993C10.0013 15.5327 10.018 15.0827 10.0513 14.6493C10.0846 14.216 10.1346 13.7771 10.2013 13.3327H5.66797C5.55686 13.7771 5.47352 14.216 5.41797 14.6493C5.36241 15.0827 5.33464 15.5327 5.33464 15.9993C5.33464 16.466 5.36241 16.916 5.41797 17.3493C5.47352 17.7827 5.55686 18.2216 5.66797 18.666ZM12.868 18.666H19.1346C19.2013 18.2216 19.2513 17.7827 19.2846 17.3493C19.318 16.916 19.3346 16.466 19.3346 15.9993C19.3346 15.5327 19.318 15.0827 19.2846 14.6493C19.2513 14.216 19.2013 13.7771 19.1346 13.3327H12.868C12.8013 13.7771 12.7513 14.216 12.718 14.6493C12.6846 15.0827 12.668 15.5327 12.668 15.9993C12.668 16.466 12.6846 16.916 12.718 17.3493C12.7513 17.7827 12.8013 18.2216 12.868 18.666ZM21.8013 18.666H26.3346C26.4457 18.2216 26.5291 17.7827 26.5846 17.3493C26.6402 16.916 26.668 16.466 26.668 15.9993C26.668 15.5327 26.6402 15.0827 26.5846 14.6493C26.5291 14.216 26.4457 13.7771 26.3346 13.3327H21.8013C21.868 13.7771 21.918 14.216 21.9513 14.6493C21.9846 15.0827 22.0013 15.5327 22.0013 15.9993C22.0013 16.466 21.9846 16.916 21.9513 17.3493C21.918 17.7827 21.868 18.2216 21.8013 18.666ZM21.268 10.666H25.2013C24.5569 9.5549 23.7513 8.58824 22.7846 7.76602C21.818 6.94379 20.7124 6.33268 19.468 5.93268C19.868 6.66602 20.218 7.42713 20.518 8.21602C20.818 9.0049 21.068 9.82157 21.268 10.666ZM13.468 10.666H18.5346C18.268 9.68824 17.9235 8.76602 17.5013 7.89935C17.0791 7.03268 16.5791 6.19935 16.0013 5.39935C15.4235 6.19935 14.9235 7.03268 14.5013 7.89935C14.0791 8.76602 13.7346 9.68824 13.468 10.666ZM6.8013 10.666H10.7346C10.9346 9.82157 11.1846 9.0049 11.4846 8.21602C11.7846 7.42713 12.1346 6.66602 12.5346 5.93268C11.2902 6.33268 10.1846 6.94379 9.21797 7.76602C8.2513 8.58824 7.44575 9.5549 6.8013 10.666Z" fill="#1C1B1F"/>
</g>
</svg>
