<svg width="33" height="32" viewBox="0 0 33 32" fill="none" xmlns="http://www.w3.org/2000/svg">
<mask id="mask0_605_3594" style="mask-type:alpha" maskUnits="userSpaceOnUse" x="0" y="0" width="33" height="32">
<rect x="0.199219" width="32.0394" height="32" fill="#D9D9D9"/>
</mask>
<g mask="url(#mask0_605_3594)">
<path d="M6.87308 28.3926C6.13884 28.3926 5.51029 28.1311 4.98742 27.608C4.46456 27.085 4.20312 26.4562 4.20312 25.7217V7.02475C4.20312 6.29022 4.46456 5.66143 4.98742 5.13836C5.51029 4.61529 6.13884 4.35376 6.87308 4.35376H16.2179V7.02475H6.87308V25.7217H25.5628V16.3732H28.2327V25.7217C28.2327 26.4562 27.9713 27.085 27.4484 27.608C26.9255 28.1311 26.297 28.3926 25.5628 28.3926H6.87308ZM13.1475 21.3145L11.2785 19.4448L23.6938 7.02475H18.8879V4.35376H28.2327V13.7022H25.5628V8.89444L13.1475 21.3145Z" fill="white"/>
</g>
</svg>
