<svg width="32" height="32" viewBox="0 0 32 32" fill="none" xmlns="http://www.w3.org/2000/svg">
<mask id="mask0_371_2649" style="mask-type:alpha" maskUnits="userSpaceOnUse" x="0" y="0" width="32" height="32">
<rect width="32" height="32" fill="#D9D9D9"/>
</mask>
<g mask="url(#mask0_371_2649)">
<path d="M27.3984 27.2667L19.7318 19.6C19.0207 20.1778 18.2318 20.6111 17.3651 20.9C16.4984 21.1889 15.5984 21.3333 14.6651 21.3333C13.7318 21.3333 12.8429 21.1944 11.9984 20.9167C11.154 20.6389 10.3762 20.2444 9.6651 19.7333L11.5984 17.8C12.0429 18.0667 12.5207 18.2778 13.0318 18.4333C13.5429 18.5889 14.0873 18.6667 14.6651 18.6667C16.3318 18.6667 17.7484 18.0833 18.9151 16.9167C20.0818 15.75 20.6651 14.3333 20.6651 12.6667C20.6651 11 20.0818 9.58333 18.9151 8.41667C17.7484 7.25 16.3318 6.66667 14.6651 6.66667C13.1318 6.66667 11.804 7.18333 10.6818 8.21667C9.55955 9.25 8.90955 10.5333 8.73177 12.0667L10.3984 10.4L12.2651 12.2667L7.33177 17.2L2.39844 12.2667L4.2651 10.4L6.0651 12.1333C6.19844 9.84444 7.08733 7.91667 8.73177 6.35C10.3762 4.78333 12.354 4 14.6651 4C17.0873 4 19.1373 4.83889 20.8151 6.51667C22.4929 8.19444 23.3318 10.2444 23.3318 12.6667C23.3318 13.6 23.1873 14.5111 22.8984 15.4C22.6095 16.2889 22.1762 17.0667 21.5984 17.7333L29.2651 25.4L27.3984 27.2667Z" fill="#222222"/>
</g>
</svg>
