<svg width="33" height="32" viewBox="0 0 33 32" fill="none" xmlns="http://www.w3.org/2000/svg">
<mask id="mask0_605_3586" style="mask-type:alpha" maskUnits="userSpaceOnUse" x="0" y="0" width="33" height="32">
<rect x="0.25" width="32.0394" height="32" fill="#D9D9D9"/>
</mask>
<g mask="url(#mask0_605_3586)">
<path d="M27.6832 27.5575L20.007 19.8784C19.2951 20.4572 18.5052 20.8912 17.6375 21.1805C16.7697 21.4699 15.8686 21.6146 14.9341 21.6146C13.9996 21.6146 13.1097 21.4755 12.2642 21.1972C11.4187 20.919 10.64 20.5239 9.92797 20.012L11.8637 18.0755C12.3087 18.3426 12.787 18.5541 13.2988 18.7099C13.8105 18.8657 14.3556 18.9436 14.9341 18.9436C16.6029 18.9436 18.0213 18.3593 19.1894 17.1908C20.3575 16.0222 20.9415 14.6032 20.9415 12.9339C20.9415 11.2645 20.3575 9.84555 19.1894 8.677C18.0213 7.50844 16.6029 6.92416 14.9341 6.92416C13.3989 6.92416 12.0695 7.44166 10.9459 8.47667C9.82228 9.51168 9.17148 10.7971 8.99348 12.3329L10.6622 10.6635L12.5312 12.5332L7.59176 17.4746L2.65234 12.5332L4.52131 10.6635L6.32353 12.3997C6.45703 10.1071 7.34701 8.17619 8.99348 6.60698C10.64 5.03778 12.6202 4.25317 14.9341 4.25317C17.3593 4.25317 19.4119 5.09342 21.0917 6.77392C22.7716 8.45441 23.6115 10.5077 23.6115 12.9339C23.6115 13.8687 23.4669 14.7813 23.1776 15.6716C22.8884 16.562 22.4545 17.341 21.876 18.0088L29.5521 25.6878L27.6832 27.5575Z" fill="white"/>
</g>
</svg>
