<svg width="738" height="605" viewBox="0 0 738 605" fill="none" xmlns="http://www.w3.org/2000/svg">
<g clip-path="url(#clip0_509_4766)">
<path d="M477.073 200.75L468.727 100.123C467.99 95.1254 470.47 90.2282 474.928 87.8132L483.81 83.0502C486.525 81.5744 489.943 82.6477 491.317 85.3982L527.013 169.79L477.073 200.75Z" fill="#CFF2F4"/>
<path d="M476 202.896L467.487 100.224C466.683 94.8235 469.465 89.3562 474.358 86.7063L483.24 81.9433C484.849 81.0713 486.726 80.9035 488.468 81.4402C490.211 82.0104 491.619 83.1844 492.457 84.828L528.621 170.26L476 202.863V202.896ZM486.424 83.654C485.72 83.654 485.05 83.8217 484.413 84.1571L475.531 88.9201C471.543 91.0668 469.331 95.4944 469.967 99.9219L478.145 198.569L525.437 169.254L490.144 85.8678C489.675 84.9286 488.77 84.1571 487.664 83.8217C487.228 83.6875 486.793 83.6205 486.39 83.6205L486.424 83.654Z" fill="black"/>
<path d="M477.576 201.354L469.23 100.727C468.493 95.7293 470.973 90.8321 475.431 88.4171L477.04 89.088C479.754 87.6121 481.866 88.9202 483.274 91.6707L517.963 175.459L477.542 201.387L477.576 201.354Z" fill="white"/>
<path d="M528.756 170.327L475.934 203.064L467.421 100.224C466.616 94.7901 469.398 89.2892 474.358 86.6058L483.24 81.8428C484.883 80.9707 486.793 80.7695 488.569 81.3397C490.346 81.9099 491.787 83.1174 492.625 84.7945L528.823 170.327H528.756ZM478.28 198.402L525.337 169.22L494.703 96.7691L492.29 98.0772C492.29 98.0772 482.872 102.807 478.984 106.698C476.269 109.381 474.157 127.594 473.387 139.032L478.313 198.402H478.28Z" fill="#16110D"/>
<path d="M147.17 270.014C141.674 266.727 136.579 266.291 132.758 268.237H132.691C132.591 268.27 132.524 268.337 132.423 268.371L73.099 294.903C73.099 294.903 72.9314 295.003 72.8309 295.07L72.4622 295.272C68.9094 297.452 66.5968 301.779 66.3287 307.883C65.7589 320.764 74.3056 336.595 85.4331 343.237C90.9968 346.558 96.1584 346.994 100.013 344.947V345.048L155.114 309.695C155.181 309.661 155.248 309.628 155.315 309.594L155.617 309.426C159.203 307.28 161.583 302.919 161.851 296.747C162.42 283.867 158.298 276.689 147.137 270.014H147.17Z" fill="white"/>
<path d="M163.225 296.814C162.957 302.617 160.946 307.145 157.494 309.795L155.985 310.802L100.75 346.289L99.4765 346.759C98.0353 347.329 96.4935 347.597 94.8512 347.597C91.7006 347.597 88.2485 346.524 84.7627 344.444C73.2666 337.568 64.3847 321.133 64.988 307.85C65.2561 302.114 67.2336 297.586 70.6523 294.936L70.9874 294.601L72.5627 293.695L133.127 266.492L133.194 266.559C137.451 264.882 142.612 265.687 147.908 268.84C159.572 275.817 163.862 283.632 163.258 296.781L163.225 296.814ZM100.415 343.27L104.839 340.419L106.683 332.168V324.252L160.51 293.158C160.443 291.079 160.208 289.167 159.806 287.389L105.342 318.818L103.096 314.491L158.365 283.129C156.22 278.467 152.399 274.777 146.433 271.188C141.54 268.27 136.914 267.666 133.362 269.444L132.122 270.081L73.6017 296.211L73.166 296.479C69.8814 298.492 67.9374 302.55 67.6693 307.984C67.0995 320.395 75.3781 335.69 86.1369 342.13C91.0974 345.115 95.7897 345.685 99.3759 343.807L100.381 343.27H100.415Z" fill="#16110D"/>
<path d="M143.349 248.648C142.478 248.648 121.295 248.447 116.1 263.407C113.218 271.725 107.151 279.44 102.694 285.075C98.9734 289.804 97.1635 292.186 97.0965 294.031C97.0294 295.439 97.6998 296.278 98.236 296.714C99.1074 297.385 100.281 297.586 101.353 297.586C102.56 297.586 103.666 297.318 104.001 297.251L132.322 282.358C137.92 279.406 141.74 273.905 142.511 267.666L144.891 248.682H143.383L143.349 248.648Z" fill="#16110D"/>
<path d="M95.9578 347.933C97.2314 347.698 99.6111 346.859 100.751 346.256C105.141 343.874 107.756 338.876 108.057 332.202C108.661 318.885 99.7786 302.416 88.249 295.506C81.244 291.314 74.5072 291.314 69.9825 295.406L61.1006 305.636L65.022 311.674C66.0275 324.319 74.4402 338.373 84.7632 344.545C85.5006 344.981 86.305 345.384 87.1764 345.786L90.327 350.012L96.0248 347.933H95.9578ZM70.988 298.223L71.122 298.056C74.7083 294.198 80.5737 294.098 86.8077 297.821C97.5665 304.261 105.879 319.623 105.309 332.067C105.041 337.736 102.963 341.929 99.41 343.874C98.5385 344.344 97.6001 344.679 96.3935 344.88L90.9303 346.759L88.9193 343.673L88.5506 343.505C87.7462 343.136 86.9083 342.734 86.0704 342.231C76.3506 336.428 68.4407 323.045 67.6363 311.137V310.802L64.4187 305.871L70.9544 298.223H70.988Z" fill="#16110D"/>
<path d="M96.1253 336.897C95.589 348.537 87.0088 353.065 76.9203 347.061C66.8318 341.023 59.123 326.701 59.6258 315.095C60.1621 303.456 68.7423 298.928 78.8307 304.932C88.9192 310.969 96.628 325.292 96.1253 336.897Z" fill="#FCD500"/>
<path d="M92.6394 332.202C92.1701 342.432 84.6289 346.423 75.7471 341.124C66.8987 335.824 60.0948 323.212 60.5306 312.982C60.9998 302.752 68.541 298.76 77.4229 304.06C86.2712 309.359 93.0751 321.971 92.6394 332.202Z" fill="#FCF000"/>
<path d="M90.7958 349.778C94.8513 347.631 97.231 343.069 97.4991 336.965C98.0354 324.889 89.9914 309.997 79.5678 303.758C74.2386 300.571 69.0771 300.035 65.0216 302.181C60.9661 304.328 58.5864 308.89 58.3183 314.994C57.782 327.07 65.826 341.962 76.2496 348.201C79.4337 350.113 82.5507 351.086 85.4332 351.086C87.3436 351.086 89.1535 350.65 90.7958 349.778ZM78.1266 306.106C87.8128 311.909 95.2535 325.694 94.7507 336.864C94.5161 341.962 92.6392 345.719 89.4887 347.396C86.3046 349.107 82.0815 348.57 77.6238 345.887C67.9375 340.084 60.4969 326.298 60.9996 315.129C61.2342 310.03 63.1112 306.273 66.2617 304.596C67.5018 303.959 68.876 303.624 70.3507 303.624C72.7304 303.624 75.3782 304.462 78.1266 306.106Z" fill="#16110D"/>
<path d="M84.1934 340.788C86.6401 339.48 88.0813 336.763 88.2154 333.107C88.5506 326.063 83.8247 317.342 77.7247 313.686C74.5407 311.774 71.4572 311.472 69.0104 312.781C66.5637 314.089 65.1225 316.806 64.9885 320.462C64.6533 327.506 69.3791 336.227 75.4791 339.883C77.3561 341.023 79.233 341.593 80.9423 341.593C82.1154 341.593 83.1879 341.325 84.1934 340.788Z" fill="#16110D"/>
<path d="M79.87 88.1153L66.564 95.4275C62.2404 97.9767 60.2294 103.176 61.7376 107.972L164.667 400.527L284.622 327.975L154.545 194.813L89.0536 90.4297C87.1766 87.2432 83.0541 86.2034 79.8365 88.0818L79.87 88.1153Z" fill="#CFF2F4"/>
<path d="M163.997 402.405L163.494 400.93L60.565 108.375C58.8556 102.974 61.0677 97.2052 65.9276 94.3206L79.2336 87.0084C83.021 84.7946 87.9144 86.0357 90.1265 89.7924L155.584 194.142L286.634 328.21L163.997 402.372V402.405ZM83.2891 88.4172C82.3507 88.4172 81.3787 88.6519 80.5073 89.1886H80.4738L67.1677 96.5344C63.3468 98.7817 61.604 103.343 62.9446 107.603L165.338 398.649L282.645 327.74L153.674 195.719L88.015 91.1341C86.976 89.3899 85.1661 88.4507 83.2891 88.4507V88.4172Z" fill="black"/>
<path d="M75.1779 100.761L69.7818 103.947C65.4581 106.496 63.4471 111.695 64.9554 116.492L167.885 409.047L279.964 340.621L149.886 207.458L84.395 103.075C82.518 99.8885 78.3955 98.8487 75.1779 100.727V100.761Z" fill="white"/>
<path d="M286.834 328.244L163.963 402.539L60.4639 108.408C58.7211 102.941 60.9667 97.138 65.8601 94.2534L79.1661 86.9412C81.0096 85.8679 83.1881 85.5325 85.2661 86.0691C87.3442 86.6058 89.1205 87.914 90.2266 89.7588L155.617 193.974L286.801 328.244H286.834ZM165.404 398.481L282.477 327.707L153.405 195.551L98.9074 108.677C94.9189 110.857 81.8139 118.337 78.1942 124.039C75.6134 128.131 78.0936 145.305 79.7694 154.998L165.438 398.514L165.404 398.481Z" fill="#16110D"/>
<path d="M399.181 468.081C393.685 464.794 388.59 464.358 384.769 466.303H384.702C384.602 466.337 384.534 466.404 384.434 466.437L325.11 492.969C325.11 492.969 324.942 493.07 324.842 493.137L324.473 493.338C320.92 495.518 318.608 499.845 318.339 505.95C317.77 518.83 326.316 534.662 337.444 541.303C343.008 544.624 348.169 545.06 352.023 543.014V543.115L407.125 507.761C407.192 507.728 407.259 507.694 407.326 507.661L407.627 507.493C411.214 505.346 413.593 500.986 413.861 494.814C414.431 481.934 410.309 474.756 399.148 468.081H399.181Z" fill="white"/>
<path d="M415.269 494.881C415.001 500.684 412.99 505.212 409.538 507.862L408.029 508.868L352.794 544.356L351.52 544.825C350.079 545.395 348.537 545.664 346.895 545.664C343.745 545.664 340.292 544.59 336.807 542.511C325.311 535.635 316.429 519.199 317.032 505.916C317.3 500.181 319.278 495.652 322.696 493.003L323.031 492.667L324.607 491.761L385.171 464.559L385.238 464.626C389.495 462.949 394.656 463.754 399.952 466.907C411.616 473.884 415.906 481.699 415.302 494.847L415.269 494.881ZM352.459 541.337L356.883 538.486L358.726 530.234V522.318L412.554 491.225C412.487 489.145 412.252 487.233 411.85 485.456L357.386 516.885L355.14 512.558L410.409 481.196C408.264 476.533 404.443 472.844 398.477 469.255C393.584 466.337 388.958 465.733 385.406 467.511L384.166 468.148L325.646 494.277L325.21 494.545C321.925 496.558 319.981 500.617 319.713 506.05C319.143 518.461 327.422 533.756 338.181 540.196C343.141 543.182 347.834 543.752 351.42 541.873L352.425 541.337H352.459Z" fill="#16110D"/>
<path d="M395.36 446.748C394.489 446.748 373.306 446.547 368.111 461.506C365.229 469.825 359.162 477.54 354.704 483.175C350.984 487.904 349.174 490.286 349.107 492.13C349.04 493.539 349.71 494.378 350.247 494.814C351.118 495.485 352.291 495.686 353.364 495.686C354.57 495.686 355.676 495.418 356.012 495.351L384.333 480.458C389.93 477.506 393.751 472.005 394.522 465.766L396.902 446.781H395.393L395.36 446.748Z" fill="#16110D"/>
<path d="M348.002 546.033C349.275 545.798 351.655 544.959 352.795 544.356C357.185 541.974 359.8 536.976 360.101 530.301C360.704 516.985 351.823 500.516 340.293 493.606C333.288 489.414 326.551 489.414 322.026 493.506L313.145 503.736L317.066 509.774C318.071 522.419 326.484 536.473 336.807 542.645C337.545 543.081 338.349 543.484 339.22 543.886L342.371 548.112L348.069 546.033H348.002ZM323.032 496.323L323.166 496.156C326.752 492.298 332.618 492.198 338.852 495.921C349.61 502.361 357.923 517.723 357.353 530.167C357.085 535.836 355.007 540.029 351.454 541.974C350.582 542.444 349.644 542.779 348.437 542.98L342.974 544.859L340.963 541.773L340.595 541.605C339.79 541.236 338.952 540.834 338.114 540.331C328.395 534.528 320.485 521.144 319.68 509.237V508.902L316.463 503.971L322.998 496.323H323.032Z" fill="#16110D"/>
<path d="M348.169 534.964C347.633 546.603 339.053 551.131 328.964 545.127C318.876 539.09 311.167 524.767 311.67 513.161C312.206 501.522 320.786 496.994 330.875 502.998C340.963 509.036 348.672 523.358 348.169 534.964Z" fill="#FCD500"/>
<path d="M344.683 530.302C344.214 540.532 336.673 544.523 327.791 539.224C318.943 533.924 312.139 521.312 312.574 511.082C313.044 500.851 320.585 496.86 329.467 502.16C338.315 507.459 345.119 520.071 344.683 530.302Z" fill="#FCF000"/>
<path d="M342.807 547.844C346.862 545.697 349.242 541.136 349.51 535.031C350.046 522.956 342.002 508.063 331.579 501.824C326.249 498.638 321.088 498.101 317.032 500.248C312.977 502.394 310.597 506.956 310.329 513.061C309.793 525.136 317.837 540.029 328.26 546.268C331.444 548.179 334.561 549.152 337.444 549.152C339.354 549.152 341.164 548.716 342.807 547.844ZM330.137 504.172C339.824 509.975 347.264 523.761 346.761 534.93C346.527 540.029 344.65 543.785 341.499 545.463C338.315 547.173 334.092 546.637 329.635 543.953C319.948 538.15 312.508 524.365 313.01 513.195C313.245 508.097 315.122 504.34 318.272 502.663C319.513 502.025 320.887 501.69 322.361 501.69C324.741 501.69 327.389 502.529 330.137 504.172Z" fill="#16110D"/>
<path d="M336.237 538.888C338.684 537.58 340.125 534.863 340.259 531.207C340.595 524.163 335.869 515.442 329.769 511.786C326.585 509.874 323.501 509.572 321.054 510.881C318.608 512.189 317.166 514.906 317.032 518.562C316.697 525.606 321.423 534.326 327.523 537.983C329.4 539.123 331.277 539.693 332.986 539.693C334.159 539.693 335.232 539.425 336.237 538.888Z" fill="#16110D"/>
<path d="M94.2149 522.587L84.7298 527.92L84.5957 543.517C84.5957 544.557 84.8638 545.429 85.3666 546.066L85.6682 546.368C85.9028 546.569 86.1375 546.704 86.305 546.737L88.316 547.878L89.3886 546.1L91.299 545.027C93.243 543.953 94.7512 541.102 94.7847 538.586L94.8518 530.536L97.0638 524.197L94.2485 522.587H94.2149Z" fill="#16110D"/>
<path d="M92.9409 545.563L90.3602 547.039C88.6508 548.012 87.2767 546.938 87.3102 544.691L87.4442 529.463L96.2256 524.499L96.0915 539.727C96.0915 541.974 94.6838 544.59 92.9409 545.563Z" fill="#FCD500"/>
<path d="M90.6955 547.643L93.2762 546.167C95.2202 545.094 96.7284 542.242 96.7619 539.727L96.896 523.325L86.7405 529.06L86.6064 544.658C86.6064 546.1 87.1092 547.207 87.9806 547.743C88.3158 547.945 88.718 548.045 89.1202 548.045C89.6229 548.045 90.1592 547.878 90.6619 547.609L90.6955 547.643ZM95.5218 525.706L95.3878 539.76C95.3878 541.773 94.0806 544.188 92.6059 545.026L90.0251 546.502C89.6564 546.704 89.1202 546.905 88.6845 546.67C88.2152 546.402 87.9806 545.697 87.9806 544.758L88.1147 529.933L95.5218 525.74V525.706Z" fill="#16110D"/>
<path d="M91.2985 557.504L92.8068 553.781L89.3546 551.836C89.3546 551.836 89.0529 551.668 88.9188 551.601L88.6172 551.433C87.3771 550.964 85.8353 551.332 84.3606 552.641C81.5452 555.156 79.9699 560.221 80.8749 563.911C81.2436 565.487 82.0144 566.527 82.9864 567.03L83.5562 567.399L86.6062 569.143L88.0809 565.454C89.9579 563.475 91.1644 560.389 91.2985 557.471V557.504Z" fill="#FCD500"/>
<path d="M91.6342 568.573C90.4611 569.613 89.221 570.183 88.0144 570.183C87.6457 570.183 87.277 570.116 86.9083 570.015C86.7072 569.948 86.5061 569.814 86.3385 569.714C86.2715 569.714 86.2045 569.714 86.171 569.647L82.6517 567.6C81.4787 566.963 80.6407 565.756 80.2385 564.045C79.3001 560.154 80.9424 554.787 83.9254 552.104C85.2995 550.863 86.8078 550.326 88.182 550.595L89.2545 550.997C89.4891 551.098 89.6567 551.198 89.7907 551.299L93.0418 553.144C94.1479 553.781 94.9523 554.989 95.3545 556.632C96.2929 560.523 94.6506 565.89 91.6677 568.573H91.6342ZM83.9254 566.829L84.0594 566.896C83.9589 566.628 83.8583 566.393 83.7913 566.125C82.8528 562.234 84.4951 556.867 87.4781 554.184C88.2155 553.513 88.9528 553.077 89.7237 552.842L89.0199 552.439C89.0199 552.439 88.7852 552.305 88.7182 552.272L88.3495 552.104C88.0814 552.003 87.7798 551.936 87.4781 551.936C86.6402 551.936 85.7017 552.339 84.7968 553.177C82.149 555.559 80.6743 560.322 81.5122 563.777C81.8138 565.085 82.4506 565.99 83.2885 566.46L83.9254 566.863V566.829Z" fill="#16110D"/>
<path d="M90.2936 564.347C89.0535 565.454 87.7128 565.051 87.3106 563.408C86.9084 561.764 87.6123 559.517 88.8524 558.41C90.0925 557.303 91.4332 557.705 91.8354 559.349C92.2376 560.993 91.5337 563.24 90.2936 564.347Z" fill="#FCF000"/>
<path d="M100.784 562.569L102.292 558.846L98.8399 556.9C98.8399 556.9 98.5383 556.733 98.4042 556.666L98.1025 556.498C96.8624 556.028 95.3207 556.397 93.8459 557.705C91.0306 560.221 89.4553 565.286 90.3602 568.976C90.7289 570.552 91.4998 571.592 92.4718 572.095L93.0416 572.464L96.0916 574.208L97.5663 570.519C99.4432 568.54 100.65 565.454 100.784 562.536V562.569Z" fill="#FCD500"/>
<path d="M101.12 573.672C99.9464 574.711 98.7063 575.282 97.4997 575.282C97.131 575.282 96.7624 575.214 96.3937 575.114C96.1926 575.047 95.9915 574.913 95.8239 574.812C95.7569 574.812 95.6898 574.812 95.6563 574.745L92.1371 572.699C90.964 572.062 90.1261 570.854 89.7239 569.143C88.7854 565.252 90.4277 559.886 93.4107 557.202C94.7849 555.961 96.2931 555.425 97.6673 555.693L98.7398 556.095C98.9744 556.196 99.142 556.297 99.2761 556.397L102.527 558.242C103.633 558.879 104.438 560.087 104.84 561.731C105.778 565.621 104.136 570.988 101.153 573.672H101.12ZM93.4107 571.927L93.5448 571.994C93.4442 571.726 93.3437 571.491 93.2766 571.223C92.3382 567.332 93.9805 561.965 96.9635 559.282C97.7008 558.611 98.4382 558.175 99.2091 557.94L98.5052 557.538C98.5052 557.538 98.2706 557.404 98.2036 557.37L97.8349 557.202C97.5668 557.102 97.2651 557.035 96.9635 557.035C96.1255 557.035 95.1871 557.437 94.2821 558.276C91.6343 560.657 90.1596 565.42 90.9975 568.875C91.2992 570.183 91.936 571.089 92.7739 571.558L93.4107 571.961V571.927Z" fill="#16110D"/>
<path d="M99.7458 569.445C98.5057 570.552 97.165 570.15 96.7628 568.506C96.3606 566.862 97.0644 564.615 98.3046 563.508C99.5447 562.401 100.885 562.804 101.288 564.447C101.69 566.091 100.986 568.338 99.7458 569.445Z" fill="#FCF000"/>
<path d="M99.5101 552.171L96.0579 551.802L95.2535 551.332C94.3821 550.829 93.1419 550.762 92.3711 551.198L90.5612 552.138L86.0029 552.674V555.425C86.07 555.861 86.3716 556.297 86.8744 556.599L90.2595 558.611C90.7288 558.913 91.3321 559.047 91.9018 559.047C92.3711 559.047 92.8068 558.947 93.1419 558.745L98.5716 555.894C99.1079 555.659 99.4431 555.123 99.4766 554.485C99.4766 554.485 99.4766 554.318 99.4766 554.251V552.171H99.5101Z" fill="#16110D"/>
<path d="M87.1425 552.339L92.7062 549.421C93.276 549.119 94.2815 549.152 94.9183 549.555L98.3035 551.567C98.9403 551.97 99.0073 552.54 98.4375 552.842L92.8738 555.76C92.304 556.062 91.2985 556.028 90.6617 555.626L87.2766 553.613C86.6397 553.211 86.5727 552.641 87.1425 552.339Z" fill="#FCD500"/>
<path d="M93.1758 556.364L98.7731 553.446C99.2423 553.177 99.5104 552.775 99.5104 552.305C99.5104 551.802 99.2088 551.299 98.639 550.997L95.2538 548.984C94.3824 548.448 93.1423 548.414 92.3714 548.85L86.8077 551.768C86.3384 552.037 86.0703 552.439 86.0703 552.909C86.0703 553.412 86.372 553.915 86.9417 554.217L90.3269 556.23C90.7961 556.498 91.3994 556.666 91.9692 556.666C92.4384 556.666 92.8742 556.565 93.2093 556.397L93.1758 556.364ZM93.0417 550.024C93.3769 549.823 94.0808 549.857 94.5835 550.125L97.9687 552.137L98.1027 552.238L92.539 555.156C92.2038 555.324 91.4665 555.324 90.9972 555.056L87.6121 553.043C87.6121 553.043 87.478 552.942 87.4445 552.942L93.0417 550.024Z" fill="#16110D"/>
<path d="M92.4721 553.58C91.6342 553.58 90.9639 552.909 90.9639 552.07V531.341C90.9639 530.503 91.6342 529.832 92.4721 529.832C93.31 529.832 93.9804 530.503 93.9804 531.341V552.07C93.9804 552.909 93.31 553.58 92.4721 553.58Z" fill="#FCD500"/>
<path d="M94.6511 552.07V531.341C94.6511 530.134 93.6791 529.161 92.4725 529.161C91.2659 529.161 90.2939 530.134 90.2939 531.341V552.07C90.2939 553.278 91.2659 554.251 92.4725 554.251C93.6791 554.251 94.6511 553.278 94.6511 552.07ZM93.2769 531.341V552.07C93.2769 552.506 92.9082 552.875 92.4725 552.875C92.0368 552.875 91.6681 552.506 91.6681 552.07V531.341C91.6681 530.905 92.0368 530.536 92.4725 530.536C92.9082 530.536 93.2769 530.905 93.2769 531.341Z" fill="#16110D"/>
<path d="M100.449 525.74L90.9641 531.073L90.8301 546.67C90.8301 547.71 91.0982 548.582 91.601 549.219V549.32L91.9026 549.521C92.1372 549.722 92.3718 549.857 92.5394 549.89L94.5504 551.031L95.6229 549.253L97.5334 548.179C99.4773 547.106 100.986 544.255 101.019 541.739L101.086 533.689L103.298 527.35L100.483 525.74H100.449Z" fill="#16110D"/>
<path d="M99.1421 548.75L96.5613 550.225C94.852 551.198 93.4778 550.125 93.5113 547.878L93.6454 532.649L102.427 527.685L102.293 542.913C102.293 545.161 100.885 547.777 99.1421 548.75Z" fill="#FCD500"/>
<path d="M96.8966 550.796L99.4774 549.32C101.421 548.247 102.93 545.395 102.963 542.88L103.097 526.478L92.9417 532.213L92.8076 547.81C92.8076 549.253 93.3104 550.36 94.1818 550.896C94.517 551.098 94.9192 551.198 95.3214 551.198C95.8241 551.198 96.3604 551.03 96.8631 550.762L96.8966 550.796ZM101.723 528.859L101.589 542.913C101.589 544.926 100.282 547.341 98.8071 548.179L96.2263 549.655C95.8576 549.857 95.3214 550.058 94.8856 549.823C94.4164 549.555 94.1818 548.85 94.1818 547.911L94.3159 533.085L101.723 528.893V528.859Z" fill="#16110D"/>
<path d="M61.8713 420.518C23.6289 455.301 -2.44691 524.968 2.68112 540.163C9.552 560.59 28.5894 553.68 52.4196 548.146C102.292 536.54 251.407 455.301 344.516 401.466C437.625 347.631 477.845 326.063 499.999 309.527C538.241 280.983 590.494 181.06 603.096 148.021C612.346 123.838 587.31 124.844 564.016 133.934C540.722 143.057 398.578 220.875 277.181 287.959C155.785 355.044 107.621 378.859 61.8378 420.451L61.8713 420.518Z" fill="white"/>
<path d="M518.198 183.677C519.271 177.103 516.355 171.903 511.193 167.744C458.74 194.645 376.39 241.067 279.661 294.5C158.264 361.584 110.068 385.399 64.3176 426.992C64.3176 426.992 47.3918 444.199 59.5918 450.84C71.7918 457.482 93.2424 454.463 164.565 415.118C235.855 375.773 466.985 243.248 466.985 243.248C466.985 243.248 513.204 214.603 518.198 183.677Z" fill="#CFF2F4"/>
<path d="M163.594 409.214C234.079 370.305 463.7 238.652 466.047 237.277C467.957 236.103 512.869 207.961 517.897 176.767C518.969 170.193 516.422 164.39 510.389 159.56L509.685 158.99L508.881 159.392C469.13 179.786 411.616 211.718 344.985 248.681C323.434 260.656 300.81 273.201 277.315 286.182C260.49 295.473 245.072 303.925 230.895 311.741C141.875 360.612 101.253 382.917 61.6699 418.941C61.2342 419.378 51.0116 429.91 52.2517 438.228C52.6874 441.113 54.3633 443.36 57.2792 444.937C60.5638 446.714 64.4853 447.821 69.6468 447.821C84.7292 447.821 110.604 438.396 163.56 409.181L163.594 409.214ZM515.215 176.365C510.389 206.318 465.075 234.694 464.672 234.963C462.36 236.304 232.772 367.924 162.286 406.833C92.5386 445.339 70.4177 448.962 58.6534 442.555C56.5083 441.381 55.3352 439.838 55.0336 437.826C53.9946 430.849 63.6138 420.954 63.6473 420.887C102.929 385.165 143.484 362.893 232.269 314.122C246.48 306.34 261.897 297.854 278.689 288.563C302.184 275.582 324.808 263.038 346.359 251.063C412.521 214.334 469.7 182.603 509.383 162.243C514.176 166.335 516.087 170.964 515.215 176.331V176.365Z" fill="#16110D"/>
<path d="M145.361 456.677L143.015 458.052C140.904 459.259 139.194 457.985 139.194 455.167V449.331C139.194 446.513 140.87 443.26 142.982 442.052L145.328 440.677C147.439 439.469 149.149 440.744 149.149 443.562V449.398C149.149 452.215 147.473 455.469 145.361 456.677Z" fill="#DDDDDD"/>
<path d="M164.433 445.641L162.087 447.016C159.975 448.224 158.266 446.949 158.266 444.132V438.295C158.266 435.478 159.941 432.224 162.053 431.017L164.399 429.642C166.511 428.434 168.22 429.709 168.22 432.526V438.363C168.22 441.18 166.544 444.434 164.433 445.641Z" fill="#DDDDDD"/>
<path d="M178.777 437.356L176.431 438.731C174.32 439.939 172.61 438.664 172.61 435.847V430.01C172.61 427.193 174.286 423.939 176.398 422.732L178.744 421.357C180.855 420.149 182.565 421.424 182.565 424.241V430.078C182.565 432.895 180.889 436.149 178.777 437.356Z" fill="#DDDDDD"/>
<path d="M193.524 428.937L191.178 430.312C189.067 431.52 187.357 430.245 187.357 427.428V421.591C187.357 418.774 189.033 415.52 191.145 414.313L193.491 412.938C195.602 411.73 197.312 413.005 197.312 415.822V421.659C197.312 424.476 195.636 427.73 193.524 428.937Z" fill="#DDDDDD"/>
<path d="M207.869 420.619L205.523 421.994C203.411 423.201 201.702 421.927 201.702 419.109V413.273C201.702 410.455 203.378 407.202 205.49 405.994L207.836 404.619C209.947 403.412 211.657 404.686 211.657 407.504V413.34C211.657 416.158 209.981 419.411 207.869 420.619Z" fill="#DDDDDD"/>
<path d="M222.617 412.233L220.271 413.608C218.16 414.816 216.45 413.541 216.45 410.724V404.887C216.45 402.07 218.126 398.816 220.238 397.609L222.584 396.233C224.695 395.026 226.405 396.301 226.405 399.118V404.954C226.405 407.772 224.729 411.026 222.617 412.233Z" fill="#DDDDDD"/>
<path d="M236.962 403.915L234.616 405.29C232.504 406.497 230.795 405.223 230.795 402.405V396.569C230.795 393.751 232.471 390.498 234.582 389.29L236.928 387.915C239.04 386.708 240.749 387.982 240.749 390.8V396.636C240.749 399.454 239.073 402.707 236.962 403.915Z" fill="#DDDDDD"/>
<path d="M251.676 395.529L249.33 396.904C247.218 398.112 245.509 396.837 245.509 394.02V388.183C245.509 385.366 247.185 382.112 249.296 380.905L251.642 379.53C253.754 378.322 255.463 379.597 255.463 382.414V388.251C255.463 391.068 253.787 394.322 251.676 395.529Z" fill="#DDDDDD"/>
<path d="M266.021 387.211L263.674 388.586C261.563 389.793 259.854 388.519 259.854 385.701V379.865C259.854 377.047 261.529 373.794 263.641 372.586L265.987 371.211C268.099 370.004 269.808 371.278 269.808 374.096V379.932C269.808 382.75 268.132 386.003 266.021 387.211Z" fill="#DDDDDD"/>
<path d="M280.768 378.624L278.421 379.999C276.31 381.207 274.601 379.932 274.601 377.115V371.278C274.601 368.461 276.276 365.207 278.388 364L280.734 362.624C282.846 361.417 284.555 362.691 284.555 365.509V371.345C284.555 374.163 282.879 377.416 280.768 378.624Z" fill="#DDDDDD"/>
<path d="M295.113 370.305L292.767 371.681C290.656 372.888 288.946 371.614 288.946 368.796V362.96C288.946 360.142 290.622 356.889 292.734 355.681L295.08 354.306C297.191 353.098 298.901 354.373 298.901 357.19V363.027C298.901 365.844 297.225 369.098 295.113 370.305Z" fill="#DDDDDD"/>
<path d="M309.86 361.92L307.514 363.295C305.403 364.503 303.693 363.228 303.693 360.41V354.574C303.693 351.757 305.369 348.503 307.481 347.295L309.827 345.92C311.938 344.713 313.648 345.987 313.648 348.805V354.641C313.648 357.459 311.972 360.712 309.86 361.92Z" fill="#DDDDDD"/>
<path d="M324.205 353.601L321.859 354.977C319.747 356.184 318.038 354.91 318.038 352.092V346.256C318.038 343.438 319.714 340.185 321.825 338.977L324.172 337.602C326.283 336.394 327.992 337.669 327.992 340.486V346.323C327.992 349.14 326.317 352.394 324.205 353.601Z" fill="#DDDDDD"/>
<path d="M338.953 345.216L336.607 346.591C334.495 347.799 332.786 346.524 332.786 343.706V337.87C332.786 335.053 334.462 331.799 336.573 330.591L338.92 329.216C341.031 328.009 342.741 329.283 342.741 332.101V337.937C342.741 340.755 341.065 344.008 338.953 345.216Z" fill="#DDDDDD"/>
<path d="M353.298 336.897L350.952 338.273C348.84 339.48 347.131 338.206 347.131 335.388V329.552C347.131 326.734 348.807 323.481 350.918 322.273L353.264 320.898C355.376 319.69 357.085 320.965 357.085 323.782V329.619C357.085 332.436 355.409 335.69 353.298 336.897Z" fill="#DDDDDD"/>
<path d="M368.045 328.478L365.699 329.854C363.587 331.061 361.878 329.787 361.878 326.969V321.133C361.878 318.315 363.554 315.062 365.665 313.854L368.011 312.479C370.123 311.271 371.832 312.546 371.832 315.363V321.2C371.832 324.017 370.156 327.271 368.045 328.478Z" fill="#DDDDDD"/>
<path d="M382.357 320.193L380.01 321.569C377.899 322.776 376.189 321.502 376.189 318.684V312.848C376.189 310.03 377.865 306.777 379.977 305.569L382.323 304.194C384.435 302.986 386.144 304.261 386.144 307.078V312.915C386.144 315.732 384.468 318.986 382.357 320.193Z" fill="#DDDDDD"/>
<path d="M397.104 311.774L394.757 313.15C392.646 314.357 390.937 313.082 390.937 310.265V304.429C390.937 301.611 392.612 298.357 394.724 297.15L397.07 295.775C399.182 294.567 400.891 295.842 400.891 298.659V304.496C400.891 307.313 399.215 310.567 397.104 311.774Z" fill="#DDDDDD"/>
<path d="M411.449 303.489L409.103 304.865C406.992 306.072 405.282 304.798 405.282 301.98V296.144C405.282 293.326 406.958 290.073 409.07 288.865L411.416 287.49C413.527 286.282 415.237 287.557 415.237 290.374V296.211C415.237 299.028 413.561 302.282 411.449 303.489Z" fill="#DDDDDD"/>
<path d="M426.196 295.07L423.85 296.446C421.739 297.653 420.029 296.378 420.029 293.561V287.725C420.029 284.907 421.705 281.653 423.817 280.446L426.163 279.071C428.274 277.863 429.984 279.138 429.984 281.955V287.792C429.984 290.609 428.308 293.863 426.196 295.07Z" fill="#DDDDDD"/>
<path d="M440.541 286.752L438.195 288.127C436.083 289.335 434.374 288.06 434.374 285.242V279.406C434.374 276.589 436.05 273.335 438.161 272.127L440.507 270.752C442.619 269.545 444.328 270.819 444.328 273.637V279.473C444.328 282.291 442.653 285.544 440.541 286.752Z" fill="#DDDDDD"/>
<path d="M455.288 278.366L452.942 279.742C450.83 280.949 449.121 279.675 449.121 276.857V271.021C449.121 268.203 450.797 264.949 452.908 263.742L455.255 262.367C457.366 261.159 459.076 262.434 459.076 265.251V271.088C459.076 273.905 457.4 277.159 455.288 278.366Z" fill="#DDDDDD"/>
<path d="M141.205 475.125L148.109 471.133C151.763 469.02 154.645 463.62 154.645 458.79V431.989C154.645 429.306 153.707 427.226 152.064 426.287C150.657 425.482 148.914 425.583 147.137 426.589L140.233 430.581C136.58 432.694 133.697 438.094 133.697 442.924V469.724C133.697 472.408 134.636 474.487 136.278 475.427C136.915 475.796 137.585 475.963 138.323 475.963C139.227 475.963 140.233 475.661 141.205 475.125ZM151.126 427.964C152.165 428.568 152.735 430.044 152.735 432.023V458.823C152.735 462.882 150.187 467.779 147.171 469.523L140.266 473.515C139.462 473.984 138.256 474.42 137.25 473.817C136.211 473.213 135.641 471.737 135.641 469.758V442.958C135.641 438.899 138.188 434.002 141.205 432.258L148.109 428.266C148.646 427.964 149.349 427.663 150.02 427.663C150.388 427.663 150.757 427.73 151.092 427.931L151.126 427.964Z" fill="#16110D"/>
<path d="M162.756 442.757L165.102 441.381C167.616 439.939 169.593 436.216 169.593 432.929V427.092C169.593 425.113 168.856 423.57 167.582 422.832C166.443 422.195 165.069 422.262 163.728 423.034L161.382 424.409C158.868 425.851 156.891 429.574 156.891 432.862V438.698C156.891 440.677 157.628 442.22 158.902 442.958C159.404 443.26 159.974 443.394 160.544 443.394C161.248 443.394 162.019 443.193 162.756 442.757ZM166.208 425.214C166.51 425.382 166.845 425.985 166.845 427.126V432.962C166.845 435.277 165.437 438.094 163.728 439.067L161.382 440.442C161.147 440.576 160.611 440.845 160.242 440.643C159.941 440.476 159.605 439.872 159.605 438.731V432.895C159.605 430.581 161.013 427.763 162.722 426.79L165.069 425.415C165.27 425.315 165.605 425.147 165.907 425.147C166.007 425.147 166.108 425.147 166.208 425.214Z" fill="#16110D"/>
<path d="M177.101 434.438L179.447 433.063C181.961 431.621 183.938 427.897 183.938 424.61V418.774C183.938 416.795 183.201 415.252 181.927 414.514C180.788 413.877 179.413 413.944 178.073 414.715L175.727 416.09C173.213 417.533 171.235 421.256 171.235 424.543V430.379C171.235 432.358 171.973 433.901 173.246 434.639C173.749 434.941 174.319 435.075 174.922 435.075C175.626 435.075 176.397 434.874 177.134 434.438H177.101ZM180.553 416.895C180.855 417.063 181.19 417.667 181.19 418.807V424.644C181.19 426.958 179.782 429.776 178.073 430.748L175.727 432.124C175.492 432.258 174.956 432.526 174.587 432.325C174.285 432.157 173.95 431.553 173.95 430.413V424.577C173.95 422.262 175.358 419.445 177.067 418.472L179.413 417.097C179.413 417.097 179.916 416.828 180.251 416.828C180.352 416.828 180.452 416.828 180.553 416.895Z" fill="#16110D"/>
<path d="M191.849 426.053L194.195 424.677C196.709 423.235 198.686 419.512 198.686 416.225V410.388C198.686 408.409 197.949 406.866 196.675 406.129C195.536 405.491 194.161 405.558 192.821 406.33L190.475 407.705C187.961 409.147 185.983 412.87 185.983 416.158V421.994C185.983 423.973 186.721 425.516 187.994 426.254C188.497 426.556 189.067 426.69 189.637 426.69C190.341 426.69 191.111 426.489 191.849 426.053ZM195.301 408.51C195.603 408.678 195.938 409.281 195.938 410.422V416.258C195.938 418.573 194.53 421.357 192.821 422.363L190.475 423.738C190.24 423.872 189.67 424.141 189.335 423.939C189.033 423.772 188.698 423.168 188.698 422.027V416.191C188.698 413.877 190.106 411.059 191.815 410.086L194.161 408.711C194.363 408.611 194.698 408.443 194.999 408.443C195.1 408.443 195.2 408.443 195.301 408.51Z" fill="#16110D"/>
<path d="M206.194 417.734L208.54 416.359C211.053 414.917 213.031 411.193 213.031 407.906V402.07C213.031 400.091 212.294 398.548 211.02 397.81C209.88 397.173 208.506 397.24 207.165 398.011L204.819 399.386C202.306 400.829 200.328 404.552 200.328 407.839V413.675C200.328 415.654 201.065 417.197 202.339 417.935C202.842 418.237 203.412 418.371 203.981 418.371C204.685 418.371 205.456 418.17 206.194 417.734ZM209.646 400.192C209.947 400.359 210.283 400.963 210.283 402.103V407.94C210.283 410.254 208.875 413.072 207.165 414.044L204.819 415.42C204.551 415.587 204.015 415.822 203.68 415.621C203.378 415.453 203.043 414.849 203.043 413.709V407.873C203.043 405.558 204.451 402.741 206.16 401.768L208.506 400.393C208.674 400.292 209.009 400.124 209.344 400.124C209.445 400.124 209.545 400.124 209.646 400.192Z" fill="#16110D"/>
<path d="M220.941 409.315L223.287 407.94C225.8 406.497 227.778 402.774 227.778 399.487V393.651C227.778 391.672 227.041 390.129 225.767 389.391C224.627 388.754 223.253 388.821 221.913 389.592L219.566 390.967C217.053 392.41 215.075 396.133 215.075 399.42V405.256C215.075 407.235 215.813 408.778 217.086 409.516C217.589 409.818 218.159 409.952 218.729 409.952C219.432 409.952 220.203 409.751 220.941 409.315ZM224.393 391.772C224.694 391.94 225.03 392.544 225.03 393.684V399.521C225.03 401.835 223.622 404.653 221.913 405.625L219.566 407.001C219.298 407.168 218.762 407.403 218.427 407.202C218.125 407.034 217.79 406.43 217.79 405.29V399.454C217.79 397.139 219.198 394.322 220.907 393.349L223.253 391.974C223.253 391.974 223.756 391.705 224.091 391.705C224.192 391.705 224.292 391.705 224.393 391.772Z" fill="#16110D"/>
<path d="M235.285 401.03L237.631 399.655C240.145 398.213 242.123 394.489 242.123 391.202V385.366C242.123 383.387 241.385 381.844 240.112 381.106C238.972 380.469 237.598 380.536 236.257 381.307L233.911 382.683C231.397 384.125 229.42 387.848 229.42 391.135V396.971C229.42 398.95 230.157 400.493 231.431 401.231C231.934 401.533 232.503 401.667 233.073 401.667C233.777 401.667 234.548 401.466 235.285 401.03ZM238.738 383.488C239.039 383.655 239.374 384.259 239.374 385.399V391.236C239.374 393.55 237.967 396.368 236.257 397.34L233.911 398.716C233.677 398.85 233.14 399.118 232.772 398.917C232.47 398.749 232.135 398.145 232.135 397.005V391.169C232.135 388.854 233.542 386.037 235.252 385.064L237.598 383.689C237.799 383.588 238.134 383.42 238.436 383.42C238.536 383.42 238.637 383.42 238.738 383.488Z" fill="#16110D"/>
<path d="M249.999 392.611L252.345 391.236C254.859 389.793 256.837 386.07 256.837 382.783V376.947C256.837 374.968 256.099 373.425 254.826 372.687C253.686 372.05 252.312 372.117 250.971 372.888L248.625 374.263C246.111 375.706 244.134 379.429 244.134 382.716V388.552C244.134 390.531 244.871 392.074 246.145 392.812C246.648 393.114 247.217 393.248 247.787 393.248C248.491 393.248 249.262 393.047 249.999 392.611ZM253.451 375.068C253.753 375.236 254.088 375.84 254.088 376.98V382.817C254.088 385.131 252.681 387.949 250.971 388.921L248.625 390.296C248.39 390.431 247.854 390.699 247.485 390.498C247.184 390.33 246.849 389.726 246.849 388.586V382.75C246.849 380.435 248.256 377.618 249.966 376.645L252.312 375.27C252.513 375.169 252.848 375.001 253.15 375.001C253.25 375.001 253.351 375.001 253.451 375.068Z" fill="#16110D"/>
<path d="M264.345 384.326L266.691 382.951C269.205 381.508 271.182 377.785 271.182 374.498V368.662C271.182 366.683 270.445 365.14 269.171 364.402C268.032 363.765 266.658 363.832 265.317 364.603L262.971 365.978C260.457 367.421 258.479 371.144 258.479 374.431V380.267C258.479 382.246 259.217 383.789 260.49 384.527C260.993 384.829 261.563 384.963 262.133 384.963C262.837 384.963 263.608 384.762 264.345 384.326ZM267.797 366.783C268.099 366.951 268.434 367.555 268.434 368.695V374.532C268.434 376.846 267.026 379.664 265.317 380.636L262.971 382.012C262.703 382.179 262.166 382.414 261.831 382.213C261.529 382.045 261.194 381.441 261.194 380.301V374.465C261.194 372.15 262.602 369.333 264.311 368.36L266.658 366.985C266.859 366.884 267.194 366.716 267.495 366.716C267.596 366.716 267.697 366.716 267.797 366.783Z" fill="#16110D"/>
<path d="M279.092 375.739L281.438 374.364C283.952 372.922 285.929 369.199 285.929 365.911V360.075C285.929 358.096 285.192 356.553 283.918 355.815C282.779 355.178 281.405 355.245 280.064 356.017L277.718 357.392C275.204 358.834 273.227 362.557 273.227 365.844V371.681C273.227 373.66 273.964 375.203 275.238 375.941C275.74 376.242 276.31 376.377 276.88 376.377C277.584 376.377 278.355 376.175 279.092 375.739ZM282.544 358.197C282.846 358.364 283.181 358.968 283.181 360.109V365.945C283.181 368.259 281.773 371.077 280.064 372.05L277.718 373.425C277.45 373.593 276.913 373.827 276.578 373.626C276.277 373.458 275.941 372.855 275.941 371.714V365.878C275.941 363.564 277.349 360.746 279.058 359.773L281.405 358.398C281.606 358.264 281.941 358.13 282.243 358.13C282.343 358.13 282.444 358.13 282.544 358.197Z" fill="#16110D"/>
<path d="M293.437 367.421L295.783 366.046C298.297 364.603 300.274 360.88 300.274 357.593V351.757C300.274 349.778 299.537 348.235 298.263 347.497C297.123 346.859 295.749 346.927 294.409 347.698L292.062 349.073C289.549 350.516 287.571 354.239 287.571 357.526V363.362C287.571 365.341 288.309 366.884 289.582 367.622C290.085 367.924 290.655 368.058 291.225 368.058C291.928 368.058 292.699 367.857 293.437 367.421ZM296.889 349.878C297.191 350.046 297.526 350.65 297.526 351.79V357.627C297.526 359.941 296.118 362.758 294.409 363.731L292.062 365.106C291.794 365.274 291.258 365.509 290.923 365.308C290.621 365.14 290.286 364.536 290.286 363.396V357.559C290.286 355.245 291.694 352.427 293.403 351.455L295.749 350.08C295.95 349.979 296.286 349.811 296.587 349.811C296.688 349.811 296.788 349.811 296.889 349.878Z" fill="#16110D"/>
<path d="M308.184 359.002L310.53 357.626C313.044 356.184 315.021 352.461 315.021 349.174V343.337C315.021 341.358 314.284 339.816 313.01 339.078C311.871 338.44 310.496 338.507 309.156 339.279L306.81 340.654C304.296 342.096 302.318 345.82 302.318 349.107V354.943C302.318 356.922 303.056 358.465 304.329 359.203C304.832 359.505 305.402 359.639 306.005 359.639C306.709 359.639 307.48 359.438 308.217 359.002H308.184ZM311.636 341.459C311.938 341.627 312.273 342.231 312.273 343.371V349.207C312.273 351.522 310.865 354.339 309.156 355.312L306.81 356.687C306.541 356.855 306.005 357.09 305.67 356.888C305.368 356.721 305.033 356.117 305.033 354.977V349.14C305.033 346.826 306.441 344.008 308.15 343.036L310.496 341.66C310.697 341.56 311.033 341.392 311.334 341.392C311.435 341.392 311.535 341.392 311.636 341.459Z" fill="#16110D"/>
<path d="M322.529 350.717L324.876 349.342C327.389 347.899 329.367 344.176 329.367 340.889V335.053C329.367 333.074 328.629 331.531 327.356 330.793C326.216 330.156 324.842 330.223 323.501 330.994L321.155 332.369C318.642 333.812 316.664 337.535 316.664 340.822V346.658C316.664 348.637 317.401 350.18 318.675 350.918C319.178 351.22 319.748 351.354 320.351 351.354C321.055 351.354 321.826 351.153 322.563 350.717H322.529ZM325.982 333.174C326.283 333.342 326.618 333.946 326.618 335.086V340.923C326.618 343.237 325.211 346.054 323.501 347.027L321.155 348.402C320.921 348.537 320.384 348.805 320.016 348.604C319.714 348.436 319.379 347.832 319.379 346.692V340.855C319.379 338.541 320.787 335.724 322.496 334.751L324.842 333.376C325.043 333.241 325.378 333.107 325.68 333.107C325.781 333.107 325.881 333.107 325.982 333.174Z" fill="#16110D"/>
<path d="M337.277 342.298L339.623 340.922C342.136 339.48 344.114 335.757 344.114 332.47V326.633C344.114 324.654 343.377 323.112 342.103 322.374C340.963 321.736 339.589 321.803 338.249 322.575L335.902 323.95C333.389 325.392 331.411 329.116 331.411 332.403V338.239C331.411 340.218 332.149 341.761 333.422 342.499C333.925 342.801 334.495 342.935 335.064 342.935C335.768 342.935 336.539 342.734 337.277 342.298ZM340.729 324.755C341.03 324.923 341.366 325.527 341.366 326.667V332.503C341.366 334.818 339.958 337.635 338.249 338.608L335.902 339.983C335.634 340.151 335.098 340.386 334.763 340.184C334.461 340.017 334.126 339.413 334.126 338.273V332.436C334.126 330.122 335.534 327.304 337.243 326.332L339.589 324.956C339.79 324.856 340.125 324.688 340.427 324.688C340.528 324.688 340.628 324.688 340.729 324.755Z" fill="#16110D"/>
<path d="M351.621 334.013L353.967 332.638C356.481 331.195 358.459 327.472 358.459 324.185V318.349C358.459 316.37 357.721 314.827 356.448 314.089C355.308 313.451 353.934 313.518 352.593 314.29L350.247 315.665C347.733 317.108 345.756 320.831 345.756 324.118V329.954C345.756 331.933 346.493 333.476 347.767 334.214C348.27 334.516 348.839 334.65 349.409 334.65C350.113 334.65 350.884 334.449 351.621 334.013ZM355.073 316.47C355.375 316.638 355.71 317.242 355.71 318.382V324.218C355.71 326.533 354.303 329.35 352.593 330.323L350.247 331.698C349.979 331.866 349.476 332.101 349.108 331.9C348.806 331.732 348.471 331.128 348.471 329.988V324.151C348.471 321.837 349.878 319.019 351.588 318.047L353.934 316.671C353.934 316.671 354.437 316.403 354.772 316.403C354.872 316.403 354.973 316.403 355.073 316.47Z" fill="#16110D"/>
<path d="M366.368 325.594L368.714 324.218C371.228 322.776 373.206 319.053 373.206 315.766V309.929C373.206 307.951 372.468 306.408 371.195 305.67C370.055 305.032 368.681 305.099 367.34 305.871L364.994 307.246C362.48 308.688 360.503 312.412 360.503 315.699V321.535C360.503 323.514 361.24 325.057 362.514 325.795C363.017 326.097 363.586 326.231 364.19 326.231C364.894 326.231 365.664 326.03 366.402 325.594H366.368ZM369.821 308.051C370.122 308.219 370.457 308.823 370.457 309.963V315.799C370.457 318.114 369.05 320.931 367.34 321.904L364.994 323.279C364.726 323.447 364.19 323.682 363.855 323.481C363.553 323.313 363.218 322.709 363.218 321.569V315.732C363.218 313.418 364.625 310.6 366.335 309.628L368.681 308.252C368.681 308.252 369.184 307.984 369.519 307.984C369.619 307.984 369.72 307.984 369.821 308.051Z" fill="#16110D"/>
<path d="M380.681 317.275L383.027 315.9C385.541 314.458 387.518 310.734 387.518 307.447V301.611C387.518 299.632 386.781 298.089 385.507 297.351C384.368 296.714 382.993 296.781 381.653 297.552L379.307 298.928C376.793 300.37 374.815 304.093 374.815 307.38V313.217C374.815 315.196 375.553 316.739 376.826 317.476C377.329 317.778 377.899 317.912 378.469 317.912C379.173 317.912 379.943 317.711 380.681 317.275ZM384.133 299.733C384.435 299.9 384.77 300.504 384.77 301.645V307.481C384.77 309.795 383.362 312.613 381.653 313.586L379.307 314.961C379.038 315.129 378.536 315.363 378.167 315.162C377.865 314.994 377.53 314.391 377.53 313.25V307.414C377.53 305.099 378.938 302.282 380.647 301.309L382.993 299.934C383.195 299.833 383.53 299.666 383.831 299.666C383.932 299.666 384.032 299.666 384.133 299.733Z" fill="#16110D"/>
<path d="M395.428 308.89L397.774 307.514C400.288 306.072 402.265 302.349 402.265 299.062V293.226C402.265 291.247 401.528 289.704 400.254 288.966C399.115 288.328 397.741 288.395 396.4 289.167L394.054 290.542C391.54 291.984 389.562 295.708 389.562 298.995V304.831C389.562 306.81 390.3 308.353 391.573 309.091C392.076 309.393 392.646 309.527 393.216 309.527C393.92 309.527 394.691 309.326 395.428 308.89ZM398.88 291.347C399.182 291.515 399.517 292.119 399.517 293.259V299.095C399.517 301.41 398.109 304.227 396.4 305.2L394.054 306.575C393.786 306.743 393.249 306.978 392.914 306.777C392.613 306.609 392.277 306.005 392.277 304.865V299.028C392.277 296.714 393.685 293.896 395.394 292.924L397.741 291.548C397.741 291.548 398.243 291.28 398.578 291.28C398.679 291.28 398.78 291.28 398.88 291.347Z" fill="#16110D"/>
<path d="M409.773 300.571L412.119 299.196C414.632 297.754 416.61 294.03 416.61 290.743V284.907C416.61 282.928 415.873 281.385 414.599 280.647C413.459 280.01 412.085 280.077 410.745 280.848L408.398 282.224C405.885 283.666 403.907 287.389 403.907 290.676V296.513C403.907 298.492 404.645 300.035 405.918 300.772C406.421 301.074 406.991 301.209 407.561 301.209C408.264 301.209 409.035 301.007 409.773 300.571ZM413.225 283.029C413.526 283.196 413.862 283.8 413.862 284.941V290.777C413.862 293.091 412.454 295.909 410.745 296.882L408.398 298.257C408.13 298.425 407.594 298.659 407.259 298.458C406.957 298.29 406.622 297.687 406.622 296.546V290.71C406.622 288.395 408.03 285.578 409.739 284.605L412.085 283.23C412.286 283.096 412.622 282.962 412.923 282.962C413.024 282.962 413.124 282.962 413.225 283.029Z" fill="#16110D"/>
<path d="M424.52 292.186L426.866 290.81C429.38 289.368 431.357 285.645 431.357 282.358V276.522C431.357 274.543 430.62 273 429.346 272.262C428.207 271.624 426.832 271.691 425.492 272.463L423.145 273.838C420.632 275.28 418.654 279.004 418.654 282.291V288.127C418.654 290.106 419.392 291.649 420.665 292.387C421.168 292.689 421.738 292.823 422.308 292.823C423.011 292.823 423.782 292.622 424.52 292.186ZM427.972 274.643C428.274 274.811 428.609 275.415 428.609 276.555V282.391C428.609 284.706 427.201 287.523 425.492 288.496L423.145 289.871C422.877 290.039 422.375 290.274 422.006 290.073C421.704 289.905 421.369 289.301 421.369 288.161V282.324C421.369 280.01 422.777 277.192 424.486 276.22L426.832 274.844C427.033 274.744 427.369 274.576 427.67 274.576C427.771 274.576 427.871 274.576 427.972 274.643Z" fill="#16110D"/>
<path d="M438.865 283.867L441.212 282.492C443.725 281.05 445.703 277.327 445.703 274.039V268.203C445.703 266.224 444.965 264.681 443.692 263.943C442.552 263.306 441.178 263.373 439.837 264.144L437.491 265.52C434.977 266.962 433 270.685 433 273.972V279.809C433 281.788 433.737 283.331 435.011 284.068C435.514 284.37 436.084 284.505 436.653 284.505C437.357 284.505 438.128 284.303 438.865 283.867ZM442.318 266.325C442.619 266.492 442.954 267.096 442.954 268.237V274.073C442.954 276.387 441.547 279.205 439.837 280.178L437.491 281.553C437.223 281.721 436.72 281.955 436.352 281.754C436.05 281.586 435.715 280.983 435.715 279.842V274.006C435.715 271.691 437.122 268.874 438.832 267.901L441.178 266.526C441.379 266.392 441.714 266.258 442.016 266.258C442.116 266.258 442.217 266.258 442.318 266.325Z" fill="#16110D"/>
<path d="M453.612 275.448L455.959 274.073C458.472 272.631 460.45 268.907 460.45 265.62V259.784C460.45 257.805 459.712 256.262 458.439 255.524C457.299 254.887 455.925 254.954 454.584 255.725L452.238 257.101C449.725 258.543 447.747 262.266 447.747 265.553V271.39C447.747 273.369 448.484 274.912 449.758 275.649C450.261 275.951 450.831 276.085 451.4 276.085C452.104 276.085 452.875 275.884 453.612 275.448ZM457.065 257.906C457.366 258.073 457.701 258.677 457.701 259.818V265.654C457.701 267.968 456.294 270.786 454.584 271.759L452.238 273.134C451.97 273.301 451.434 273.536 451.099 273.335C450.797 273.167 450.462 272.564 450.462 271.423V265.587C450.462 263.272 451.87 260.455 453.579 259.482L455.925 258.107C456.126 258.006 456.461 257.839 456.763 257.839C456.864 257.839 456.964 257.839 457.065 257.906Z" fill="#16110D"/>
<path d="M143.685 453.792L146.031 452.417C148.545 450.974 150.522 447.251 150.522 443.964V438.128C150.522 436.149 149.785 434.606 148.511 433.868C147.372 433.23 145.997 433.298 144.657 434.069L142.311 435.444C139.797 436.887 137.819 440.61 137.819 443.897V449.733C137.819 451.712 138.557 453.255 139.83 453.993C140.333 454.295 140.903 454.429 141.506 454.429C142.21 454.429 142.981 454.228 143.718 453.792H143.685ZM147.137 436.249C147.439 436.417 147.774 437.021 147.774 438.161V443.997C147.774 446.312 146.366 449.129 144.657 450.102L142.311 451.477C142.042 451.645 141.506 451.88 141.171 451.679C140.869 451.511 140.534 450.907 140.534 449.767V443.93C140.534 441.616 141.942 438.798 143.651 437.826L145.997 436.45C146.198 436.35 146.534 436.182 146.835 436.182C146.936 436.182 147.036 436.182 147.137 436.249Z" fill="#16110D"/>
<path d="M94.7848 471.703V466.773C94.8853 464.223 93.0419 462.714 91.0309 463.754C83.2886 467.712 66.9325 477.573 46.6551 485.389C38.477 488.542 30.232 489.514 24.9028 485.389C20.0765 481.665 24.7017 470.395 25.8413 468.55C21.3166 475.46 17.8979 482.94 14.6133 490.051C13.6413 492.131 13.2726 494.512 13.9094 496.726C15.3171 501.724 20.244 504.541 26.5787 505.212C40.555 506.654 73.2001 490.822 87.3441 481.431C90.8969 479.049 93.7793 475.829 94.8183 471.67L94.7848 471.703Z" fill="#CFF2F4"/>
<path d="M99.1085 461.205V466.404C98.0024 470.496 95.2205 474.152 91.031 476.936C77.4568 485.959 46.9568 501.053 31.4386 501.053C30.7013 501.053 30.0309 501.019 29.3606 500.952C22.054 500.181 16.993 496.726 15.5183 491.493C14.848 489.112 15.1161 486.428 16.3227 483.879L16.5908 483.275C19.8419 476.265 23.1936 468.986 27.6513 462.177L29.9639 463.62C28.8914 465.364 26.3441 472.206 27.3161 476.299L27.5507 476.902C27.8188 477.607 28.221 478.143 28.6903 478.512C29.8298 479.418 31.204 480.055 32.7123 480.458L34.2875 480.86C36.3656 481.162 38.5776 481.095 40.7562 480.76L41.2254 480.659C43.7057 480.223 46.2864 479.485 48.8672 478.479C56.9447 475.359 65.2903 471.569 74.4068 466.907L79.1996 464.458C82.0821 462.949 84.7299 461.506 87.0425 460.265C89.5227 458.89 91.6343 457.75 93.3436 456.878C94.6508 456.207 96.0249 456.24 97.131 456.945C98.4046 457.75 99.142 459.326 99.0749 461.171L99.1085 461.205ZM96.3936 461.171C96.4271 460.131 96.0584 459.527 95.7233 459.293C95.4216 459.091 95.053 459.125 94.6172 459.36C92.9414 460.232 90.8299 461.372 88.3832 462.714C84.8304 464.659 80.5738 466.974 75.7139 469.456L66.6645 482.034L66.2958 482.202C58.3859 485.556 45.8172 491.694 37.5051 492.265L35.1925 492.432L39.248 483.778C37.0359 483.98 34.9914 483.879 33.1145 483.51L30.6007 488.743C29.6958 490.621 30.7013 488.441 29.3941 491.124L28.8579 492.231L27.6848 491.829C24.6683 490.755 22.3892 489.112 20.8474 486.931L20.3782 486.261L24.7353 477.473C24.3666 476.231 24.2326 474.856 24.3331 473.447C22.4562 477.104 20.7469 480.827 19.0375 484.483L18.7694 485.087C17.8644 487.032 17.6298 489.078 18.1326 490.822C19.7414 496.491 26.0425 497.967 29.6287 498.336C43.5046 499.778 75.9485 483.778 89.4892 474.756C92.003 473.078 95.2205 470.227 96.3601 465.968V461.205L96.3936 461.171Z" fill="#16110D"/>
<path d="M18.9697 544.959C18.9697 549.521 15.7521 551.399 11.7637 549.085C7.7752 546.804 4.55762 541.236 4.55762 536.674C4.55762 532.113 7.7752 530.234 11.7637 532.549C15.7521 534.83 18.9697 540.398 18.9697 544.959Z" fill="#FFEECC"/>
<path d="M7.30661 514.134C6.6698 513.296 6.03298 512.289 5.4632 511.35C5.4632 511.417 5.4632 511.451 5.42969 511.518C5.73134 512.189 6.30112 513.162 7.34013 514.134H7.30661Z" fill="#16110D"/>
<path d="M19.1372 521.01C11.6966 521.01 7.43998 515.375 5.56305 512.055L5.29492 511.551L5.4625 511.015C12.568 489.85 25.5724 459.662 38.7779 444.132C55.0669 424.979 75.7466 402.975 105.375 384.997C106.783 384.058 140.936 361.853 146.366 358.666C151.796 355.446 293.537 277.259 299.57 273.939L482.536 173.547L548.866 139.502C549.838 138.965 573.768 125.951 591.934 126.487L593.878 126.554L593.007 128.299C587.175 140.139 577.187 160.466 575.88 163.25C574.137 166.973 551.949 204.976 551.011 206.586L550.776 206.955L550.374 207.123C550.374 207.123 537.939 211.852 534.454 213.093L533.616 213.395C530.432 214.502 527.884 215.374 527.08 220.54C526.108 226.778 518.935 248.782 509.986 261.327C501.239 273.603 424.687 315.095 421.436 316.873L176.162 455.268C163.794 461.238 55.7373 513.262 52.2515 514.268C43.3362 516.818 27.4158 521.01 19.1372 521.01ZM8.00976 511.283C9.75262 514.168 13.3054 518.495 19.1372 518.495C24.9691 518.495 36.4988 516.147 51.4472 511.887C54.6983 510.881 141.741 469.087 175.023 453.054L420.229 314.692C421.034 314.256 499.529 271.691 507.975 259.885C516.723 247.642 523.695 226.242 524.633 220.171C525.672 213.462 529.46 212.154 532.811 211.014L533.649 210.712C536.733 209.605 546.922 205.747 549.1 204.909C551.48 200.817 572.059 165.597 573.634 162.176C574.874 159.493 583.991 140.978 589.89 128.969C572.595 129.372 550.307 141.548 550.072 141.682L483.743 175.727L300.81 276.085C299.335 276.89 153.036 357.593 147.673 360.779C142.31 363.966 107.118 386.842 106.749 387.076C77.3889 404.921 56.9103 426.723 40.7219 445.708C27.8515 460.836 15.1153 490.286 8.04328 511.216L8.00976 511.283Z" fill="black"/>
<path d="M601.085 129.674C598.37 128.433 595.253 127.829 591.901 127.729C587.511 136.651 576.182 159.728 574.774 162.713C573.032 166.436 549.939 205.949 549.939 205.949C549.939 205.949 537.538 210.678 534.052 211.919C530.566 213.16 526.846 213.898 525.874 220.372C524.868 226.846 517.696 248.447 508.982 260.623C500.301 272.798 420.833 315.766 420.833 315.766L175.526 454.161C175.526 454.161 55.3691 512.055 51.8834 513.061C48.3977 514.067 28.5559 519.769 19.1043 519.769C12.2334 519.769 8.27842 514.369 6.6026 511.451C3.85425 519.635 2.01084 526.31 1.47457 529.966C-0.502901 542.88 9.41798 550.595 9.41798 550.595C28.5224 567.735 105.007 528.725 129.072 517.556C153.17 506.386 283.248 436.551 283.248 436.551C283.248 436.551 481.129 324.252 504.691 306.106C528.287 287.959 567.267 220.875 570.719 214.167C574.171 207.458 595.052 167.208 602.761 151.074C610.47 134.94 601.018 129.707 601.018 129.707L601.085 129.674Z" fill="#FCF000"/>
<path d="M24.2657 556.095C17.6294 556.095 12.1997 554.72 8.61347 551.534C8.24479 551.265 -1.81016 543.282 0.267864 529.798C0.871161 525.941 2.74809 519.098 5.46292 511.082L6.36787 508.398L7.74204 510.847C9.35084 513.732 12.9706 518.528 19.1377 518.528C25.3047 518.528 36.4992 516.18 51.4476 511.92C54.6987 510.914 141.741 469.121 175.023 453.087L420.23 314.726C421.034 314.29 499.53 271.725 507.976 259.918C516.724 247.675 523.695 226.275 524.634 220.204C525.673 213.496 529.46 212.188 532.812 211.047L533.65 210.745C536.733 209.638 546.922 205.781 549.101 204.943C551.48 200.85 572.059 165.631 573.635 162.21C574.942 159.392 584.93 139.066 590.762 127.192L591.13 126.454H591.935C595.622 126.588 598.873 127.292 601.588 128.533H601.688C601.688 128.533 612.078 134.571 603.967 151.577C596.996 166.201 579.232 200.616 571.925 214.737C568.473 221.412 529.225 288.865 505.529 307.078C482.135 325.057 285.896 436.484 283.918 437.625C282.577 438.329 153.505 507.593 129.642 518.662C127.429 519.702 124.782 520.943 121.765 522.386C97.03 534.159 50.8778 556.095 24.2322 556.095H24.2657ZM7.0382 514.335C4.82611 521.145 3.28435 526.813 2.7816 530.167C0.938194 542.175 9.8871 549.32 10.2558 549.622C27.0476 564.682 92.7064 533.488 120.726 520.138C123.743 518.696 126.39 517.455 128.603 516.415C152.366 505.38 281.404 436.149 282.711 435.444C284.655 434.337 480.76 322.977 503.987 305.099C527.348 287.121 566.228 220.238 569.68 213.596C576.986 199.509 594.75 165.128 601.688 150.537C608.559 136.114 601.185 131.25 600.515 130.814C598.303 129.808 595.689 129.238 592.672 129.037C586.807 140.978 577.188 160.499 575.914 163.25C574.171 166.973 551.983 204.976 551.045 206.586L550.81 206.955L550.408 207.123C550.408 207.123 537.973 211.852 534.487 213.093L533.65 213.395C530.466 214.502 527.918 215.374 527.114 220.54C526.142 226.778 518.969 248.782 510.02 261.327C501.273 273.603 424.721 315.095 421.47 316.873L176.196 455.268C163.828 461.238 55.7712 513.262 52.2855 514.268C43.3701 516.818 27.4498 521.01 19.1712 521.01C13.2723 521.01 9.35084 517.455 7.0382 514.302V514.335Z" fill="black"/>
<path d="M223.956 437.155C226.637 426.421 313.981 377.852 343.978 361.115C350.078 357.694 357.419 357.325 363.82 360.109L522.722 420.585L732.234 477.439C737.094 478.613 738.233 484.986 734.077 487.737L718.76 497.9C709.912 503.77 699.32 506.453 688.696 505.514L277.515 468.383C264.98 467.242 252.679 464.056 241.485 458.421C232.033 453.691 221.207 448.09 223.956 437.189V437.155Z" fill="#CFF2F4"/>
<path d="M692.852 506.99C691.411 506.99 690.003 506.923 688.562 506.788L277.382 469.657C264.109 468.45 251.842 465.062 240.882 459.561C231.43 454.832 219.666 448.928 222.716 436.887C225.163 427.092 287.437 391.269 341.398 361.115L343.342 360.041C349.744 356.486 357.587 356.084 364.323 358.968L523.192 419.445L732.603 476.265C735.318 476.902 737.329 479.049 737.798 481.833C738.301 484.584 737.128 487.267 734.781 488.843L719.464 499.007C711.588 504.239 702.304 507.023 692.886 507.023L692.852 506.99ZM225.163 437.49C222.817 446.815 231.028 451.779 242.022 457.314C252.713 462.681 264.679 466.001 277.616 467.175L688.797 504.306C699.053 505.246 709.443 502.596 718.057 496.894L733.374 486.73C735.15 485.556 735.552 483.644 735.284 482.269C735.049 480.894 734.044 479.217 731.932 478.714L522.387 421.86L363.351 361.316C357.285 358.7 350.28 359.035 344.549 362.255L342.605 363.329C314.183 379.194 227.643 427.528 225.129 437.524L225.163 437.49Z" fill="black"/>
<path d="M237.397 441.683C240.078 430.95 311.032 393.248 341.03 376.477C347.13 373.056 354.47 372.687 360.871 375.471L520.544 431.922L721.006 482.236C725.866 483.41 725.162 485.12 721.006 487.871L707.834 496.759C698.986 502.629 688.395 505.313 677.77 504.373L284.554 469.02C272.019 467.879 266.12 468.55 254.892 462.915C245.441 458.186 234.615 452.584 237.363 441.683H237.397Z" fill="white"/>
<path d="M734.815 488.877L719.498 499.074C711.622 504.306 702.304 507.09 692.853 507.09C691.411 507.09 689.97 507.023 688.562 506.889L631.015 501.69L277.415 469.758C264.143 468.55 251.842 465.163 240.882 459.628C231.9 455.134 219.6 448.928 222.65 436.853C225.13 427.025 287.403 391.169 341.398 361.014L343.309 359.941C349.744 356.352 357.62 355.949 364.391 358.867L523.226 419.344L725.9 474.32L732.603 476.131C735.351 476.802 737.396 478.948 737.899 481.766C738.401 484.584 737.228 487.3 734.849 488.877H734.815ZM592.571 495.485H592.27C610.905 495.72 648.477 494.881 657.761 489.615C668.017 483.812 685.479 471.167 690.506 467.544L522.354 421.927L363.318 361.383C357.185 358.733 350.381 359.069 344.616 362.289L342.706 363.362C314.284 379.228 227.778 427.528 225.264 437.49C222.951 446.748 231.129 451.712 242.089 457.213C252.747 462.58 264.713 465.867 277.65 467.041L592.571 495.485Z" fill="#16110D"/>
<path d="M532.107 223.726C528.119 223.827 525.672 219.433 527.884 216.112C537.839 201.085 573.634 177.27 576.617 175.493C580.338 173.279 596.962 178.377 596.962 178.377L699.757 207.995C702.706 208.833 703.276 212.758 700.695 214.401L689.166 221.781C684.105 225.001 678.206 226.678 672.173 226.544L532.141 223.76L532.107 223.726Z" fill="#CFF2F4"/>
<path d="M672.776 227.785C672.575 227.785 672.34 227.785 672.139 227.785L532.107 225.001C529.828 225.135 527.683 223.827 526.577 221.814C525.471 219.802 525.572 217.353 526.845 215.441C536.8 200.414 572.461 176.532 575.98 174.453C579.969 172.071 594.482 176.331 597.33 177.203L700.092 206.821C701.936 207.358 703.243 208.867 703.544 210.745C703.812 212.624 702.975 214.468 701.366 215.475L689.836 222.854C684.742 226.108 678.843 227.818 672.81 227.818L672.776 227.785ZM532.107 222.485L672.139 225.269C677.938 225.403 683.535 223.793 688.428 220.707L699.958 213.328C700.729 212.825 701.131 211.986 700.997 211.047C700.863 210.142 700.26 209.437 699.355 209.169L596.56 179.551C589.856 177.505 579.433 175.224 577.221 176.566C573.735 178.612 538.61 202.125 528.89 216.783C528.119 217.957 528.052 219.366 528.722 220.573C529.393 221.781 530.633 222.552 532.04 222.452L532.107 222.485Z" fill="black"/>
<path d="M541.291 224.062C537.302 224.162 532.107 222.384 532.107 222.384C542.967 208.9 573.299 187.735 578.93 185.186C582.885 183.408 599.275 188.071 599.275 188.071L686.484 213.194C689.434 214.032 693.523 213.06 690.942 214.737L679.413 222.116C674.352 225.336 671.704 225.504 665.671 225.37L541.257 224.062H541.291Z" fill="white"/>
<path d="M703.511 212.523C703.243 213.731 702.506 214.837 701.399 215.542L689.87 222.888C684.742 226.175 678.843 227.885 672.776 227.885C672.575 227.885 672.341 227.885 672.14 227.885L532.141 225.101C529.862 225.101 527.65 223.894 526.51 221.881C525.371 219.835 525.471 217.353 526.778 215.374C536.733 200.314 572.428 176.432 575.947 174.352C580.003 171.971 594.515 176.197 597.398 177.103L700.159 206.687C700.629 206.821 701.064 207.022 701.466 207.257C702.64 207.995 703.477 209.236 703.679 210.678C703.746 211.148 703.746 211.651 703.679 212.121C703.679 212.255 703.578 212.389 703.545 212.523H703.511ZM532.141 222.384L622.837 224.196C630.747 223.357 650.052 220.909 656.99 216.313C661.816 213.127 672.14 206.318 677.435 202.964L596.593 179.685C589.924 177.639 579.533 175.358 577.321 176.666C573.836 178.713 538.71 202.226 529.024 216.85C528.287 217.99 528.22 219.366 528.89 220.54C529.56 221.714 530.7 222.418 532.108 222.384H532.141Z" fill="#16110D"/>
<path d="M491.15 188.339C491.15 188.339 541.794 29.0474 547.894 22.5067C552.251 17.8444 569.78 7.44629 579.433 1.87829C582.148 0.301808 585.499 2.44851 585.198 5.56793L572.528 143.795C572.059 148.86 569.143 153.388 564.719 155.904L498.155 193.907C498.155 193.907 490.178 198.1 491.117 188.306L491.15 188.339Z" fill="white"/>
<path d="M586.539 5.70205L573.869 143.929C573.367 149.43 570.183 154.361 565.39 157.111L504.054 192.129L504.122 192.196L502.513 193.001L498.826 195.115C498.524 195.282 496.714 196.188 494.737 196.188C493.798 196.188 492.826 195.987 491.955 195.417C490.614 194.511 489.844 192.934 489.709 190.687C489.676 189.949 489.709 189.111 489.776 188.239L489.843 187.97C495.039 171.635 540.755 28.2088 546.889 21.6346C551.346 16.8716 568.741 6.50706 578.729 0.771352C580.003 0.033424 581.478 -0.134287 582.852 0.301761C583.321 0.43593 583.757 0.637183 584.159 0.90552C585.801 1.94533 586.74 3.82369 586.572 5.76913L586.539 5.70205ZM580.103 46.0197C552.452 92.8111 506.233 173.614 503.183 181.295C501.373 185.823 502.245 188.607 502.513 189.882L564.049 154.763C568.105 152.449 570.752 148.323 571.188 143.695L580.137 46.0197H580.103Z" fill="#16110D"/>
<path d="M576.719 30.1207C576.719 36.7285 572.06 44.7451 566.329 48.0657C560.597 51.3529 555.938 48.703 555.938 42.0952C555.938 35.4874 560.597 27.4709 566.329 24.1502C572.06 20.863 576.719 23.5129 576.719 30.1207Z" fill="#CFF2F4"/>
<path d="M114.677 551.591L133.513 544.078L121.883 537.906L113.604 536.363L114.677 551.591Z" fill="#FCD500"/>
<path d="M113.001 536.095L121.983 537.168L134.351 544.279L114.744 552.631L113.001 536.095ZM121.782 538.644L114.174 536.598L114.677 551.558L132.642 543.843L121.816 538.644H121.782Z" fill="#16110D"/>
<path d="M165.723 577.52L159.556 581.176V583.49L165.723 579.733V577.52Z" fill="#FCF000"/>
<path d="M196.021 594.123L242.072 567.926L234.632 563.7L188.58 589.897L196.021 594.123Z" fill="#FCD500"/>
<path d="M242.072 567.926V572.455L196.021 598.651V594.123L242.072 567.926Z" fill="#FCD500"/>
<path d="M196.021 595.766L242.072 569.57L234.632 565.478L188.58 591.674L196.021 595.766Z" fill="#FCF000"/>
<path d="M188.044 594.827L195.485 598.986L196.021 599.288L196.557 598.986L242.609 572.79V568.295V567.658L242.073 567.356L234.632 563.13L188.58 589.326L188.044 589.628V590.265V594.894V594.827ZM240.966 567.926L223.035 578.123L196.021 593.486L189.686 589.863L234.632 564.304L240.966 567.926ZM196.557 597.712V594.425L224.141 578.727L241.503 568.866V572.119L196.557 597.712Z" fill="#16110D"/>
<path d="M235.269 557.73L230.275 544.883L230.174 544.816L178.626 578.224L187.843 584.966L235.269 557.73Z" fill="#FCD500"/>
<path d="M158.215 504.532L113.202 530.292L178.626 578.224L230.175 544.816L158.215 504.532Z" fill="#FCF000"/>
<path d="M235.806 552.933L235.504 563.532L235.236 563.667L188.883 590.333L189.151 578.794L187.14 571.717L113.068 530.124L113.873 529.655L160.26 503.123L160.528 503.257L233.393 544.044L233.862 544.313L233.996 544.916L235.772 552.866L235.806 552.933ZM115.28 530.158L187.609 570.777L207.786 559.038L232.32 544.749L160.293 504.431L115.28 530.191V530.158ZM190.022 577.955L234.566 552.396L233.024 545.554L207.853 560.212L188.246 571.65L190.022 577.955ZM234.633 553.604L194.849 576.413L190.223 579.062L190.022 588.454L234.465 562.895L234.666 553.57L234.633 553.604Z" fill="#16110D"/>
<path d="M166.393 579.264L181.174 571.381L170.817 563.868L164.751 569.235L166.393 579.264Z" fill="#FCD500"/>
<path d="M164.147 569.033L170.784 563.163L182.179 571.448L165.991 580.102L164.147 569.033ZM170.851 564.539L165.321 569.436L166.862 577.721L166.963 578.358L180.135 571.314L170.851 564.572V564.539Z" fill="#16110D"/>
<path d="M177.956 570.174L178.492 569.905C178.659 569.838 178.861 569.771 179.062 569.738C181.877 569.201 185.095 573.025 186.134 578.257C187.106 583.121 186.134 587.515 183.653 588.555L178.09 591.808L172.358 573.561L177.956 570.207V570.174Z" fill="#FCD500"/>
<path d="M169.677 583.658C170.716 588.89 173.699 592.68 176.649 592.68C176.85 592.68 177.084 592.681 177.285 592.613C177.486 592.58 177.721 592.513 177.922 592.412H177.956C178.19 592.312 178.425 592.177 178.66 592.01L183.955 589.024C186.569 587.884 187.743 583.423 186.67 578.157C185.564 572.622 182.112 568.597 178.961 569.201C178.76 569.234 178.525 569.302 178.291 569.402L177.688 569.738L172.66 572.756C172.325 572.891 172.023 573.058 171.755 573.293C169.711 575.004 168.839 579.062 169.744 583.658H169.677ZM183.452 588.052L180.335 589.863C180.503 589.528 180.637 589.159 180.771 588.756C181.408 586.676 181.441 584.094 180.939 581.477C180.034 576.815 177.587 573.36 174.973 572.622L178.76 570.375C178.76 570.375 179.028 570.274 179.162 570.241C179.296 570.241 179.464 570.207 179.598 570.207C181.978 570.207 184.726 573.83 185.597 578.358C186.502 582.953 185.597 587.146 183.452 588.052Z" fill="#16110D"/>
<path d="M171.889 583.222C171.219 579.867 172.191 576.949 174.101 576.58C176.012 576.211 177.989 578.559 178.66 581.913C178.961 583.456 178.928 584.999 178.559 586.207C178.157 587.515 177.42 588.354 176.448 588.521C176.314 588.521 176.179 588.555 176.045 588.555C174.269 588.555 172.493 586.307 171.889 583.188V583.222ZM174.269 577.419C172.895 577.687 172.191 580.27 172.727 583.054C173.297 585.838 174.906 587.985 176.314 587.716C176.95 587.582 177.453 586.978 177.755 585.972C178.09 584.865 178.123 583.49 177.822 582.081C177.286 579.465 175.811 577.419 174.504 577.419C174.437 577.419 174.336 577.419 174.269 577.419Z" fill="#FCF000"/>
<path d="M171.889 583.222C171.588 581.679 171.621 580.136 171.99 578.928C172.392 577.62 173.129 576.782 174.101 576.614C174.47 576.547 174.906 576.614 175.341 576.782L176.112 577.184L175.341 577.553C174.269 578.023 173.498 580.203 174.068 583.087C174.503 585.301 175.643 587.146 176.85 587.616L177.654 587.85L176.783 588.421C176.783 588.421 176.581 588.521 176.447 588.555C176.313 588.555 176.179 588.588 176.045 588.588C174.269 588.588 172.492 586.341 171.889 583.222ZM172.794 579.163C172.459 580.27 172.425 581.645 172.727 583.054C173.163 585.201 174.202 586.945 175.308 587.515C174.336 586.542 173.598 584.999 173.23 583.188C172.761 580.807 173.129 578.593 174.101 577.419C173.565 577.62 173.096 578.224 172.794 579.13V579.163Z" fill="#FCF000"/>
<path d="M125.134 541.025L125.671 540.757C125.838 540.69 126.039 540.623 126.24 540.589C129.056 540.053 132.273 543.877 133.312 549.109C134.284 553.973 133.312 558.367 130.832 559.407L125.268 562.66L119.537 544.413L125.134 541.059V541.025Z" fill="#FCF000"/>
<path d="M116.889 554.51C117.928 559.742 120.911 563.532 123.86 563.532C124.062 563.532 124.296 563.532 124.497 563.465C124.698 563.432 124.933 563.365 125.134 563.264H125.168C125.402 563.163 125.637 563.029 125.871 562.862L131.167 559.876C133.781 558.736 134.954 554.275 133.882 549.009C132.776 543.474 129.324 539.449 126.173 540.053C125.972 540.086 125.737 540.153 125.503 540.254L124.899 540.59L119.872 543.608C119.537 543.743 119.235 543.91 118.967 544.145C116.923 545.856 116.051 549.914 116.956 554.51H116.889ZM130.664 558.904L127.547 560.715C127.715 560.379 127.849 560.01 127.983 559.608C128.62 557.528 128.687 554.946 128.151 552.329C127.246 547.667 124.799 544.212 122.185 543.474L125.972 541.227C125.972 541.227 126.24 541.126 126.374 541.093C126.508 541.093 126.676 541.059 126.81 541.059C129.19 541.059 131.938 544.682 132.809 549.21C133.714 553.805 132.809 557.998 130.664 558.904Z" fill="#16110D"/>
<path d="M119.101 554.074C118.431 550.719 119.403 547.801 121.313 547.432C123.224 547.063 125.201 549.411 125.872 552.765C126.173 554.308 126.14 555.851 125.771 557.059C125.369 558.367 124.631 559.205 123.659 559.373C123.525 559.373 123.391 559.407 123.257 559.407C121.481 559.407 119.705 557.159 119.101 554.04V554.074ZM121.481 548.271C120.107 548.539 119.403 551.122 119.939 553.906C120.509 556.69 122.118 558.836 123.525 558.568C124.162 558.434 124.665 557.83 124.967 556.824C125.302 555.717 125.335 554.342 125.034 552.933C124.497 550.317 123.023 548.271 121.716 548.271C121.649 548.271 121.548 548.271 121.481 548.271Z" fill="#FCF000"/>
<path d="M119.101 554.073C118.799 552.531 118.833 550.988 119.202 549.78C119.604 548.472 120.341 547.633 121.313 547.466C121.682 547.399 122.118 547.466 122.553 547.633L123.324 548.036L122.553 548.405C121.481 548.874 120.71 551.055 121.28 553.939C121.715 556.153 122.855 557.998 124.062 558.467L124.866 558.702L123.994 559.273C123.994 559.273 123.793 559.373 123.659 559.407C123.525 559.407 123.391 559.44 123.257 559.44C121.481 559.44 119.704 557.193 119.101 554.073ZM120.006 550.015C119.671 551.122 119.637 552.497 119.939 553.906C120.375 556.052 121.414 557.797 122.52 558.367C121.548 557.394 120.81 555.851 120.442 554.04C119.972 551.658 120.341 549.445 121.313 548.271C120.777 548.472 120.308 549.076 120.04 549.981L120.006 550.015Z" fill="#FCF000"/>
<path d="M165.722 577.52L130.664 558.937L125.066 562.392L159.555 581.176L165.722 577.52Z" fill="#FCD500"/>
<path d="M164.415 578.526L130.664 560.614L125.066 564.069L158.248 582.182L164.415 578.526Z" fill="#FCF000"/>
<path d="M189.352 579.23V591.741L188.38 592.345L183.252 589.695V589.192C183.252 589.192 183.788 575.373 176.18 570.342C174.437 569.201 172.861 568.899 171.588 569.436C168.303 570.845 166.895 573.964 166.895 576.681V577.687L166.225 577.754V579.935L160.058 583.725L159.589 583.993L159.12 583.725L124.631 565.042V562.09L125.1 561.822L130.597 558.434C130.597 558.434 131.435 545.856 122.654 540.59C121.078 539.65 119.47 539.885 118.196 540.489C113.906 542.602 114.911 549.243 115.079 551.96L114.844 552.631L112.565 550.887L111.124 537.906L113.135 530.158L187.642 571.381L189.385 579.23H189.352ZM162.605 578.828L164.784 577.52L130.664 559.44L125.972 562.325L140.216 570.107L159.522 580.639L162.572 578.828H162.605ZM165.287 578.325L162.974 579.7L160.058 581.444V582.685L165.287 579.465V578.358V578.325Z" fill="#16110D"/>
<path d="M158.45 513.286L131.469 528.514L187.81 560.614L158.45 513.286Z" fill="#16110D"/>
<path d="M255.547 567.155C255.513 563.13 253 558.501 249.983 556.79L239.325 550.786L181.14 457.942C180.738 457.304 180.336 456.667 179.866 456.13C179.732 455.963 179.565 455.795 179.397 455.627C179.397 455.627 179.364 455.594 179.33 455.56C179.196 455.426 179.062 455.292 178.928 455.158C178.895 455.124 178.827 455.091 178.794 455.023C178.693 454.923 178.559 454.822 178.425 454.722C178.358 454.655 178.291 454.621 178.224 454.554C178.124 454.487 178.023 454.42 177.923 454.353C177.822 454.286 177.755 454.218 177.654 454.185C177.621 454.185 177.587 454.118 177.52 454.118L164.952 447.04C163.544 446.235 162.27 446.235 161.298 446.839L156.338 449.724L160.36 455.359C161.231 457.774 162.773 459.921 164.549 461.162L219.751 538.074L220.589 539.147L234.264 560.95C234.264 560.95 234.398 561.151 234.465 561.251C234.465 561.251 234.498 561.319 234.532 561.352C234.666 561.52 234.8 561.721 234.934 561.889C234.934 561.922 235.001 561.956 235.001 561.989C235.135 562.157 235.269 562.291 235.403 562.459C235.437 562.493 235.47 562.526 235.504 562.593C235.638 562.727 235.772 562.862 235.906 562.996C235.94 563.029 236.007 563.096 236.04 563.13C236.174 563.23 236.275 563.365 236.409 563.465C236.476 563.499 236.509 563.566 236.576 563.599C236.677 563.7 236.811 563.767 236.912 563.868C236.979 563.901 237.046 563.968 237.113 564.002C237.213 564.069 237.314 564.136 237.448 564.203C237.481 564.203 237.515 564.27 237.582 564.27L243.246 567.457L248.843 574.434L253.502 571.717C253.67 571.65 253.837 571.549 254.005 571.415C255.01 570.677 255.614 569.201 255.614 567.155H255.547Z" fill="#DDDDDD"/>
<path d="M253.871 572.555C254.139 572.421 254.34 572.32 254.541 572.186C255.849 571.213 256.519 569.436 256.519 567.188C256.485 562.828 253.804 557.897 250.486 556.019L240.029 550.149L181.978 457.506C181.576 456.801 181.107 456.164 180.604 455.56C180.436 455.359 180.269 455.191 180.034 454.923C179.867 454.755 179.733 454.621 179.431 454.353C179.297 454.218 179.163 454.118 179.029 454.017L165.421 446.235C163.745 445.296 162.103 445.229 160.829 446.034L154.964 449.455L159.522 455.795C160.494 458.344 162.036 460.524 163.846 461.832L219.014 538.644L219.818 539.617L233.493 561.419L233.795 561.822C233.929 562.023 234.063 562.191 234.297 562.493C234.432 562.66 234.566 562.828 234.834 563.13C234.968 563.298 235.102 563.432 235.404 563.7L236.375 564.505L236.61 564.673L242.61 568.094L248.575 575.574L253.871 572.488V572.555ZM161.801 447.678C162.706 447.107 163.745 447.476 164.483 447.913L177.152 455.057L177.655 455.392L178.224 454.621L177.856 455.527C177.856 455.527 178.057 455.694 178.291 455.896C178.425 455.996 178.526 456.13 178.727 456.298C178.861 456.432 179.029 456.6 179.163 456.768C179.599 457.271 180.001 457.841 180.369 458.478L238.554 551.323L249.547 557.629C252.262 559.172 254.608 563.532 254.642 567.188C254.642 568.832 254.206 570.073 253.435 570.677C253.335 570.744 253.234 570.811 253.033 570.912L249.078 573.226L243.984 566.887L237.951 563.398L236.577 562.325C236.577 562.325 236.342 562.09 236.141 561.855C236.007 561.721 235.906 561.553 235.705 561.319C235.571 561.151 235.471 561.017 235.303 560.748L221.394 538.577L165.354 460.658L165.119 460.424C163.544 459.317 162.136 457.338 161.298 455.057L157.746 450.059L161.868 447.678H161.801Z" fill="#16110D"/>
<path d="M245.089 559.642L234.431 553.637L176.246 460.793C175.844 460.155 175.442 459.518 174.973 458.981C174.839 458.814 174.671 458.646 174.504 458.478C174.504 458.478 174.47 458.445 174.437 458.411C174.302 458.277 174.168 458.143 174.034 458.009C174.001 457.975 173.934 457.942 173.9 457.875C173.766 457.774 173.666 457.673 173.532 457.573C173.465 457.506 173.398 457.472 173.33 457.405C173.23 457.338 173.129 457.271 173.029 457.204C172.928 457.137 172.861 457.07 172.761 457.036C172.727 457.036 172.694 456.969 172.627 456.969L160.058 449.892C157.008 448.181 154.595 450.059 154.628 454.051C154.662 458.076 157.176 462.705 160.192 464.415L170.817 470.386L229.337 563.767C229.337 563.767 229.471 563.968 229.538 564.069C229.538 564.069 229.571 564.136 229.605 564.17C229.739 564.337 229.873 564.539 230.007 564.706C230.007 564.74 230.074 564.773 230.074 564.807C230.208 564.975 230.342 565.109 230.476 565.277C230.51 565.31 230.543 565.344 230.577 565.411C230.711 565.545 230.845 565.679 230.979 565.813C231.012 565.847 231.079 565.914 231.113 565.947C231.247 566.048 231.348 566.182 231.482 566.283C231.549 566.316 231.582 566.383 231.649 566.417C231.75 566.518 231.884 566.585 231.984 566.685C232.051 566.719 232.118 566.786 232.185 566.82C232.286 566.887 232.387 566.954 232.521 567.021C232.554 567.021 232.588 567.088 232.655 567.088L245.223 574.165C248.273 575.876 250.687 573.998 250.653 570.006C250.62 566.015 248.106 561.352 245.089 559.642Z" fill="#CFF2F4"/>
<path d="M249.313 575.239C250.821 574.367 251.659 572.455 251.625 570.006C251.592 565.646 248.91 560.715 245.592 558.837L235.135 552.967L177.085 460.323C176.682 459.619 176.213 458.948 175.844 458.579L175.71 458.378C175.543 458.177 175.375 458.009 175.141 457.74C175.007 457.606 174.839 457.439 174.537 457.17L173.934 456.667C173.934 456.667 173.699 456.499 173.599 456.432L160.561 449.087C158.919 448.181 157.31 448.08 156.036 448.852C154.562 449.724 153.69 451.636 153.724 454.084C153.757 458.478 156.438 463.376 159.757 465.254L170.18 471.124L228.566 564.304L228.7 564.505L228.834 564.706C228.968 564.908 229.102 565.075 229.337 565.377C229.471 565.545 229.605 565.713 229.873 566.015C230.007 566.182 230.141 566.316 230.443 566.585C230.577 566.719 230.711 566.853 230.845 566.954L231.046 567.121C231.046 567.121 231.314 567.323 231.448 567.423L231.683 567.591C231.683 567.591 231.951 567.759 232.219 567.926L244.788 575.004C245.693 575.507 246.564 575.775 247.402 575.775C248.073 575.775 248.743 575.608 249.313 575.272V575.239ZM230.376 563.6L230.175 563.298L171.655 469.916L160.662 463.61C157.947 462.067 155.601 457.707 155.567 454.051C155.567 452.273 156.07 450.965 156.941 450.428C157.813 449.925 158.852 450.294 159.589 450.697L172.258 457.841L173.364 458.68C173.364 458.68 173.632 458.914 173.8 459.082C173.934 459.25 174.102 459.384 174.236 459.552C174.671 460.055 175.074 460.625 175.442 461.262L233.627 554.107L244.62 560.413C247.335 561.956 249.681 566.316 249.715 569.973C249.715 571.75 249.212 573.058 248.341 573.562C247.469 574.098 246.43 573.696 245.693 573.293L232.99 566.149C232.99 566.149 232.823 566.048 232.554 565.847C232.454 565.78 232.353 565.679 232.085 565.478C231.985 565.377 231.884 565.277 231.616 565.075C231.515 564.975 231.381 564.841 231.18 564.606C231.046 564.472 230.946 564.337 230.745 564.069C230.61 563.901 230.51 563.734 230.342 563.532L230.376 563.6Z" fill="#16110D"/>
<path d="M159.019 459.753L140.887 470.419L152.115 479.174L173.297 467.132L159.019 459.753Z" fill="#FCD500"/>
<path d="M174.236 467.669V466.562L158.986 458.713L139.211 470.352L152.014 480.348L174.236 467.702V467.669ZM159.053 460.826L171.32 467.166L152.182 478.067L142.563 470.554L159.053 460.86V460.826Z" fill="#16110D"/>
<path d="M173.297 467.132V473.338L153.153 485.178L152.114 479.174L173.297 467.132Z" fill="#FCF000"/>
<path d="M173.297 473.338L179.296 476.692L158.516 488.465L153.153 485.178L173.297 473.338Z" fill="#FCF000"/>
<path d="M179.263 476.625V482.863L159.12 494.67L158.081 488.7L179.263 476.625Z" fill="#FCF000"/>
<path d="M179.264 482.864L185.263 486.218L164.55 498.025L159.12 494.67L179.264 482.864Z" fill="#FCF000"/>
<path d="M185.431 486.151V492.356L165.287 504.163L164.55 498.025L185.431 486.151Z" fill="#FCF000"/>
<path d="M185.497 492.322L191.496 495.677L170.716 507.45L165.354 504.129L185.497 492.322Z" fill="#FCF000"/>
<path d="M191.496 495.677L191.463 501.848L171.319 513.655L170.28 507.685L191.496 495.677Z" fill="#FCF000"/>
<path d="M191.463 501.848L197.462 505.203L176.749 517.009L171.319 513.655L191.463 501.848Z" fill="#FCF000"/>
<path d="M197.463 505.203L197.362 511.542L177.219 523.349L176.18 517.378L197.463 505.203Z" fill="#FCF000"/>
<path d="M197.362 511.542L203.362 514.896L182.581 526.636L177.219 523.349L197.362 511.542Z" fill="#FCF000"/>
<path d="M203.361 514.829V521.034L183.218 532.875L182.146 526.871L203.361 514.829Z" fill="#FCF000"/>
<path d="M203.361 521.034L209.361 524.422L188.614 536.195L183.218 532.875L203.361 521.034Z" fill="#FCF000"/>
<path d="M209.361 524.422L209.495 530.56L189.352 542.367L188.614 536.196L209.361 524.422Z" fill="#FCF000"/>
<path d="M209.562 530.527L215.595 533.881L194.782 545.621L189.419 542.334L209.562 530.527Z" fill="#FCF000"/>
<path d="M215.561 533.814V540.019L195.418 551.86L194.379 545.856L215.561 533.814Z" fill="#FCF000"/>
<path d="M215.561 540.019L221.561 543.374L200.814 555.18L195.418 551.86L215.561 540.019Z" fill="#FCF000"/>
<path d="M221.527 543.34V549.579L201.384 561.386L200.312 555.415L221.527 543.34Z" fill="#FCF000"/>
<path d="M221.527 549.579L227.527 552.933L206.713 564.673L201.384 561.386L221.527 549.579Z" fill="#FCF000"/>
<path d="M227.527 552.933L227.493 559.105L207.35 570.912L206.311 564.908L227.527 552.933Z" fill="#FCF000"/>
<path d="M227.493 559.105L233.492 562.459L212.746 574.232L207.35 570.912L227.493 559.105Z" fill="#FCF000"/>
<path d="M233.493 562.459L233.593 567.222L213.45 579.029L212.746 574.232L233.493 562.459Z" fill="#FCF000"/>
<path d="M234.432 562.996L234.532 567.759L212.713 580.572L211.875 574.836L207.317 572.019L206.647 572.421L206.479 571.515L205.507 570.912L206.278 570.442L205.306 564.975L201.317 562.526L200.647 562.929L200.479 561.989L199.507 561.386L200.278 560.916L199.306 555.382L195.351 552.933L194.681 553.336L194.514 552.43L193.542 551.826L194.312 551.357L193.34 545.889L189.318 543.407L188.514 543.877L188.38 542.803L187.542 542.267L188.279 541.831L187.676 536.699L183.151 533.915L182.481 534.317L182.314 533.412L181.342 532.808L182.112 532.338L181.14 526.871L177.152 524.422L176.482 524.825L176.314 523.919L175.342 523.315L176.113 522.846L175.107 517.11L171.253 514.729L170.583 515.131L170.415 514.225L169.443 513.622L170.214 513.152L169.242 507.685L165.22 505.203L164.416 505.672L164.282 504.599L163.444 504.062L164.181 503.626L163.578 498.494L159.053 495.71L158.383 496.113L158.215 495.207L157.243 494.603L158.014 494.134L157.042 488.666L153.054 486.218L152.383 486.62L152.216 485.715L151.244 485.111L152.015 484.641L150.976 478.637L172.996 466.126L174.135 466.528V472.767L179.129 475.551L180.135 476.122V477.262V482.293L185.196 485.111L186.302 485.715V486.654V491.719L191.43 494.603L192.368 495.14V496.247V501.312L197.429 504.129L198.368 504.666V505.773L198.267 511.005L203.228 513.789L204.233 514.326V515.467V520.498L209.294 523.315L210.233 523.852V524.959L210.367 529.923L215.461 532.774L216.467 533.344V534.485V539.516L221.461 542.3L222.433 542.837V543.977V549.042L227.494 551.86L228.432 552.396V553.503V558.568L233.493 561.386L234.432 561.922V563.029V562.996ZM154.964 485.178L158.517 487.358L177.286 476.658L173.264 474.411L154.931 485.178H154.964ZM160.93 494.704L164.55 496.918L183.353 486.218L179.264 483.937L160.93 494.704ZM167.164 504.163L170.717 506.343L183.118 499.333L189.587 495.677L185.531 493.396L167.198 504.129L167.164 504.163ZM173.13 513.689L176.75 515.903L195.553 505.203L191.464 502.922L187.442 505.27L173.13 513.655V513.689ZM179.029 523.382L182.582 525.563L183.218 525.194L201.351 514.863L197.362 512.615L179.029 523.382ZM184.995 532.908L188.615 535.122L195.787 531.064L207.417 524.456L203.328 522.175L186.067 532.305L184.995 532.942V532.908ZM191.229 542.367L194.782 544.548L213.584 533.848L209.562 531.6L191.229 542.367ZM197.195 551.893L200.748 554.107L219.55 543.407L215.528 541.16L197.195 551.927V551.893ZM203.161 561.453L206.714 563.633L225.583 552.967L221.494 550.686L203.161 561.453ZM209.127 570.979L212.747 573.193L231.549 562.493L227.46 560.212L209.127 570.979Z" fill="#16110D"/>
<path d="M233.594 567.222L247.168 574.803L226.421 586.576L213.45 579.029L233.594 567.222Z" fill="#FCD500"/>
<path d="M249.078 574.803L233.593 566.149L211.606 579.029L226.454 587.649L249.111 574.769L249.078 574.803ZM233.593 568.329L245.257 574.836L226.454 585.536L215.327 579.062L233.627 568.329H233.593Z" fill="#16110D"/>
<path d="M227.024 583.96C226.991 579.935 224.477 575.306 221.461 573.595L210.802 567.591L152.618 474.746C152.215 474.109 151.813 473.472 151.344 472.935C151.21 472.767 151.042 472.6 150.875 472.432C150.875 472.432 150.841 472.398 150.808 472.365C150.674 472.231 150.54 472.097 150.406 471.962C150.372 471.929 150.305 471.895 150.271 471.828C150.171 471.728 150.037 471.627 149.903 471.526C149.836 471.459 149.769 471.426 149.702 471.359C149.601 471.291 149.501 471.224 149.4 471.157C149.3 471.09 149.232 471.023 149.132 470.99C149.098 470.99 149.065 470.923 148.998 470.923L136.429 463.845C135.021 463.04 133.748 463.04 132.776 463.644L127.815 466.528L131.837 472.164C132.709 474.579 134.251 476.725 136.027 477.966L191.229 554.879L192.067 555.952L205.741 577.754C205.741 577.754 205.875 577.956 205.942 578.056C205.942 578.056 205.976 578.123 206.009 578.157C206.144 578.325 206.278 578.526 206.412 578.693C206.412 578.727 206.479 578.761 206.512 578.794C206.646 578.962 206.78 579.096 206.914 579.264C206.948 579.297 206.981 579.331 207.015 579.398C207.149 579.532 207.283 579.666 207.417 579.8C207.451 579.834 207.518 579.901 207.551 579.935C207.685 580.035 207.786 580.169 207.92 580.27C207.987 580.304 208.02 580.371 208.087 580.404C208.188 580.505 208.322 580.572 208.423 580.673C208.49 580.706 208.557 580.773 208.624 580.807C208.724 580.874 208.825 580.941 208.959 581.008C208.992 581.008 209.026 581.075 209.093 581.075L214.757 584.261L220.354 591.238L225.013 588.521C225.181 588.454 225.348 588.354 225.516 588.219C226.522 587.482 227.125 586.006 227.125 583.96H227.024Z" fill="#DDDDDD"/>
<path d="M225.315 589.36C225.55 589.259 225.784 589.125 225.985 588.957C227.293 587.985 227.963 586.207 227.963 583.96C227.929 579.599 225.282 574.668 221.93 572.79L211.473 566.92L153.422 474.277C153.02 473.572 152.551 472.935 152.182 472.532L152.048 472.331C151.88 472.13 151.713 471.962 151.478 471.694C151.344 471.56 151.177 471.392 150.875 471.124L149.936 470.419C149.936 470.419 149.702 470.285 149.467 470.151L136.899 463.074C135.223 462.134 133.58 462.067 132.307 462.906L126.441 466.327L131 472.667C131.972 475.216 133.513 477.396 135.323 478.704L190.491 555.516L191.296 556.489L204.971 578.291L205.239 578.693C205.373 578.895 205.507 579.062 205.741 579.364C205.876 579.532 206.01 579.7 206.278 580.002C206.412 580.169 206.546 580.303 206.68 580.404L206.848 580.572C206.848 580.572 207.116 580.84 207.25 580.941L208.088 581.578C208.088 581.578 208.356 581.746 208.59 581.913L214.087 584.999L220.053 592.479L225.349 589.393L225.315 589.36ZM206.68 577.519L206.512 577.285L192.804 555.415L136.764 477.497L136.53 477.262C134.955 476.155 133.547 474.176 132.709 471.895L129.156 466.897L133.279 464.516C134.184 463.946 135.223 464.315 135.96 464.717L148.663 471.862L149.769 472.667C149.769 472.667 150.037 472.901 150.205 473.069C150.339 473.237 150.506 473.371 150.64 473.539C151.076 474.042 151.478 474.612 151.847 475.249L210.032 568.094L221.025 574.4C223.74 575.943 226.086 580.303 226.119 583.96C226.119 585.603 225.684 586.878 224.913 587.448C224.812 587.515 224.712 587.582 224.511 587.683L220.556 589.997L215.461 583.658L209.428 580.169L208.49 579.498C208.49 579.498 208.289 579.297 208.021 579.096C207.887 578.995 207.786 578.861 207.585 578.626C207.451 578.492 207.35 578.358 207.149 578.09C207.015 577.922 206.915 577.788 206.713 577.486L206.68 577.519Z" fill="#16110D"/>
<path d="M216.567 576.446L205.909 570.442L147.724 477.597C147.355 476.96 146.92 476.323 146.45 475.786C146.316 475.618 146.149 475.451 145.981 475.283C145.981 475.283 145.948 475.249 145.914 475.216C145.78 475.082 145.646 474.947 145.512 474.813C145.478 474.78 145.411 474.746 145.378 474.679C145.277 474.579 145.143 474.478 145.009 474.377C144.942 474.31 144.875 474.277 144.808 474.21C144.707 474.142 144.607 474.075 144.506 474.008C144.406 473.941 144.339 473.874 144.238 473.841C144.205 473.841 144.171 473.774 144.104 473.774L131.535 466.696C128.485 464.985 126.072 466.864 126.106 470.855C126.139 474.88 128.653 479.509 131.67 481.22L142.294 487.19L200.814 580.572C200.814 580.572 200.948 580.773 201.015 580.874C201.015 580.874 201.049 580.941 201.082 580.974C201.216 581.142 201.35 581.343 201.484 581.511C201.484 581.545 201.551 581.578 201.585 581.612C201.719 581.779 201.853 581.913 201.987 582.081C202.021 582.115 202.054 582.148 202.088 582.215C202.222 582.35 202.356 582.484 202.49 582.618C202.523 582.651 202.59 582.718 202.624 582.752C202.758 582.853 202.859 582.987 202.993 583.087C203.06 583.121 203.093 583.188 203.16 583.222C203.261 583.322 203.395 583.389 203.529 583.49C203.596 583.523 203.663 583.591 203.73 583.624C203.831 583.691 203.931 583.758 204.065 583.825C204.099 583.825 204.166 583.892 204.199 583.892L216.768 590.97C219.818 592.68 222.231 590.802 222.198 586.811C222.164 582.786 219.65 578.157 216.634 576.446H216.567Z" fill="#CFF2F4"/>
<path d="M220.756 592.043C222.231 591.171 223.102 589.259 223.069 586.811C223.035 582.417 220.354 577.519 217.036 575.641L206.579 569.771L148.528 477.128C148.126 476.423 147.657 475.786 147.154 475.182C146.986 474.981 146.819 474.813 146.584 474.545C146.45 474.377 146.282 474.243 145.981 473.975C145.847 473.874 145.713 473.74 145.579 473.639L132.004 465.891C130.396 464.986 128.787 464.885 127.48 465.656C125.971 466.528 125.133 468.44 125.167 470.889C125.201 475.249 127.882 480.18 131.233 482.058L141.657 487.928L200.076 581.108L200.21 581.31L200.345 581.511C200.479 581.712 200.613 581.88 200.847 582.182C200.981 582.35 201.115 582.517 201.384 582.819L201.953 583.389C201.953 583.389 202.221 583.624 202.356 583.758L202.557 583.926C202.557 583.926 202.825 584.127 202.959 584.228L216.265 591.775C217.17 592.278 218.041 592.546 218.879 592.546C219.549 592.546 220.22 592.379 220.79 592.043H220.756ZM201.819 580.404L201.618 580.102L143.098 486.721L132.138 480.415C129.424 478.872 127.077 474.511 127.044 470.855C127.044 469.078 127.547 467.769 128.418 467.233C129.29 466.73 130.329 467.099 131.066 467.501L143.735 474.646L144.841 475.484C144.841 475.484 145.076 475.719 145.277 475.887C145.411 476.021 145.545 476.155 145.579 476.155L145.713 476.356C146.148 476.859 146.551 477.43 146.919 478.067L205.104 570.912L216.097 577.218C218.812 578.76 221.158 583.121 221.192 586.777C221.192 588.555 220.689 589.863 219.818 590.366C218.946 590.869 217.907 590.5 217.17 590.098L204.501 582.953L204.031 582.651C204.031 582.651 203.83 582.517 203.562 582.282L202.657 581.377C202.657 581.377 202.423 581.108 202.221 580.84C202.087 580.672 201.987 580.505 201.819 580.303V580.404Z" fill="#16110D"/>
</g>
<defs>
<clipPath id="clip0_509_4766">
<rect width="738" height="605" fill="white"/>
</clipPath>
</defs>
</svg>
