<svg width="32" height="32" viewBox="0 0 32 32" fill="none" xmlns="http://www.w3.org/2000/svg">
<mask id="mask0_371_2617" style="mask-type:alpha" maskUnits="userSpaceOnUse" x="0" y="0" width="32" height="32">
<rect width="32" height="32" fill="#D9D9D9"/>
</mask>
<g mask="url(#mask0_371_2617)">
<path d="M2.66406 32.0009V26.6676H29.3307V32.0009H2.66406ZM5.33073 24.0009V19.0009L17.3974 6.93426L22.3974 11.9343L10.3307 24.0009H5.33073ZM7.9974 21.3343H9.1974L18.6641 11.9343L17.3974 10.6676L7.9974 20.1343V21.3343ZM23.8974 10.4676L18.8974 5.46759L21.2974 3.06759C21.5418 2.80093 21.853 2.67315 22.2307 2.68426C22.6085 2.69537 22.9196 2.82315 23.1641 3.06759L26.2974 6.20093C26.5418 6.44537 26.6641 6.75093 26.6641 7.11759C26.6641 7.48426 26.5418 7.80093 26.2974 8.06759L23.8974 10.4676Z" fill="#222222"/>
</g>
</svg>
