<svg width="159" height="32" viewBox="0 0 159 32" fill="none" xmlns="http://www.w3.org/2000/svg">
<g clip-path="url(#clip0_333_1479)">
<path d="M64.7922 8.11154H62.6943V3.95508H58.1875V14.9996H62.6943V11.2289H64.7922V8.11154Z" fill="#003894"/>
<path d="M45.1968 17.5139V15.9316H40.8672V20.2613H43.8468H45.1968H62.6965V17.5139H45.1968Z" fill="#003894"/>
<path d="M56.6002 3.95492H50.8733V2.94336H46.6381V3.95492H40.7812V6.66685H56.6002V3.95492Z" fill="#003894"/>
<path d="M53.8283 8.00977L51.199 8.02157H43.8898C41.9572 8.02157 40.3867 9.56057 40.3867 11.4932C40.3867 13.4258 41.9533 15.0041 43.8898 15.0041H53.8283C55.7609 15.0041 57.3314 13.4454 57.3314 11.5128C57.3314 9.58025 55.7648 8.00977 53.8283 8.00977ZM52.3601 12.2686L51.4352 12.2607H45.1926C44.7951 12.2607 44.4723 11.9537 44.4723 11.5561C44.4723 11.1586 44.7951 10.8555 45.1926 10.8555H52.3601C52.7538 10.8555 53.0726 11.1625 53.0726 11.5561C53.0726 11.9497 52.7538 12.2686 52.3601 12.2686Z" fill="#003894"/>
<path d="M150.465 4.00538H144.773V3.03711H140.542V4.00538H134.465V6.70943H150.465V4.00538Z" fill="#003894"/>
<path d="M158.408 7.76871H156.543V4.00586H152.457V13.4327H156.543V11.0671H158.408V7.76871Z" fill="#003894"/>
<path d="M153.803 14.6485H137.244C135.658 14.6485 134.371 15.9159 134.371 17.5021C134.371 19.0883 135.631 20.3518 137.197 20.3754L141.861 20.3911H152.457L153.803 20.3675C155.366 20.3675 156.637 19.045 156.637 17.4785C156.637 15.9119 155.37 14.6445 153.803 14.6445V14.6485ZM151.961 18.1437H144.809H139.252H138.905C138.567 18.1437 138.295 17.8563 138.295 17.5178C138.295 17.1793 138.547 16.9274 138.862 16.9038H140.657H144.935H151.965C152.304 16.9038 152.575 17.1793 152.575 17.5178C152.575 17.8563 152.3 18.1437 151.965 18.1437H151.961Z" fill="#003894"/>
<path d="M148.22 7.74219H147.85H137.057H137.018C135.435 7.76187 134.164 9.05289 134.164 10.6352C134.164 12.2175 135.435 13.5045 137.014 13.5282H138.029L145.921 13.5242H148.078C149.676 13.5282 150.975 12.2332 150.975 10.6352C150.975 9.03714 149.755 7.81697 148.224 7.74219H148.22ZM146.472 11.1508H143.245H139.214H138.868C138.529 11.1508 138.254 10.8635 138.254 10.525C138.254 10.1865 138.506 9.93456 138.824 9.91095H139.092H143.37H146.472C146.811 9.91095 147.082 10.1865 147.082 10.525C147.082 10.8635 146.807 11.1508 146.472 11.1508Z" fill="#003894"/>
<path d="M123.378 5.86752C123.378 4.85202 122.556 4.02545 121.536 4.02545L118.84 4.01758H102.281V6.70983H118.84V9.53197H112.775V7.76862H108.355V9.53197H102.277V12.2872H124.166V9.53197H123.355V7.80011L123.371 5.86358L123.378 5.86752Z" fill="#003894"/>
<path d="M94.0914 9.40995H93.2806V7.80405L93.3003 5.86752C93.3003 4.85202 92.4777 4.02545 91.4582 4.02545L88.762 4.01758H72.2031V6.70983H88.762V9.40995H72.2031V12.1652H80.9962V13.7435H85.0937V12.1652H94.0954V9.40995H94.0914Z" fill="#003894"/>
<path d="M93.494 20.3569V18.015L93.5136 16.0785C93.5136 15.059 92.691 14.2364 91.6716 14.2364L89.1722 14.2285H72.6133V16.9247H89.1722V20.3609H93.494V20.3569Z" fill="#003894"/>
<path d="M120.933 13.3887H105.433C103.485 13.3887 101.902 14.971 101.902 16.9193C101.902 18.8677 103.449 20.3516 105.339 20.4224H107.724L118.812 20.4263L120.933 20.4145C122.881 20.4145 124.464 18.8637 124.464 16.9154C124.464 14.9671 122.885 13.3848 120.933 13.3848V13.3887ZM119.733 17.6475H116.84H107.763H106.657C106.236 17.6475 105.893 17.3365 105.893 16.9154C105.893 16.4942 106.236 16.1833 106.657 16.1833L109.416 16.1754H117.099L119.729 16.1833C120.15 16.1833 120.496 16.4942 120.496 16.9154C120.496 17.3365 120.154 17.6475 119.729 17.6475H119.733Z" fill="#003894"/>
<path d="M40.8164 28.803C41.0408 28.7951 41.2021 28.7675 41.2966 28.7164C41.458 28.6337 41.5524 28.4763 41.5524 28.2401V24.7961C41.4973 24.4851 41.0604 24.2844 40.8164 24.2686V23.8868L44.1187 23.879V24.2647C43.6661 24.3395 43.6031 24.5363 43.6031 24.8354V26.0005C43.6031 26.0005 44.7643 24.9535 44.8194 24.7292C44.8981 24.3985 44.721 24.2962 44.4415 24.2804V23.8711H47.0432L47.0511 24.2804C46.626 24.3159 46.567 24.4064 46.2875 24.6032C46.008 24.8039 45.701 25.1267 44.9256 25.8903L46.874 28.5117C46.9291 28.5747 47.0944 28.7793 47.1495 28.7951C47.2046 28.8108 47.366 28.8187 47.4801 28.8305V29.2674L45.0319 29.2556L43.6346 27.3073L43.6267 28.2047C43.6267 28.4369 43.7055 28.5943 43.8668 28.677C43.9574 28.7282 43.9692 28.7951 44.1975 28.8069V29.2595H40.8203V28.8069L40.8164 28.803Z" fill="#003894"/>
<path d="M50.0452 28.7388C49.7185 28.7585 49.2186 28.2625 49.0808 27.9122C48.947 27.5777 48.7738 27.1526 48.7738 26.5976C48.7738 26.0426 48.8329 25.6254 48.9431 25.283C49.1517 24.6374 49.4272 24.2871 49.9901 24.2871C50.3955 24.2871 50.6986 24.5705 50.8481 24.9248C51.1355 25.6136 51.1866 26.2788 51.1748 26.637C51.163 27.1132 51.1315 27.6013 51.0056 27.9398C50.8245 28.4278 50.3483 28.7191 50.0491 28.7349L50.0452 28.7388ZM50.0216 23.7676C49.0297 23.7676 48.2189 24.0392 47.5891 24.5823C46.9672 25.1176 46.6562 25.8025 46.6562 26.633C46.6562 27.3887 46.9515 28.0303 47.5497 28.5617C48.1874 29.1285 49.01 29.4119 50.0216 29.4119C50.9741 29.4119 51.7652 29.1521 52.3989 28.6365C53.0484 28.1051 53.3751 27.4242 53.3751 26.5937C53.3751 25.7632 53.0484 25.0743 52.3989 24.5469C51.7692 24.0313 50.9741 23.7715 50.0216 23.7715V23.7676Z" fill="#003894"/>
<path d="M99.7795 28.7388C99.4528 28.7585 98.953 28.2625 98.8152 27.9122C98.6814 27.5777 98.5082 27.1526 98.5082 26.5976C98.5082 26.0426 98.5672 25.6254 98.6774 25.283C98.886 24.6374 99.1616 24.2871 99.7244 24.2871C100.13 24.2871 100.433 24.5705 100.582 24.9248C100.87 25.6136 100.921 26.2788 100.909 26.637C100.897 27.1132 100.866 27.6013 100.74 27.9398C100.563 28.4278 100.083 28.7191 99.7835 28.7349L99.7795 28.7388ZM99.7559 23.7676C98.764 23.7676 97.9532 24.0392 97.3274 24.5823C96.7055 25.1176 96.3945 25.8025 96.3945 26.633C96.3945 27.3887 96.6897 28.0303 97.288 28.5617C97.9257 29.1285 98.7483 29.4119 99.7598 29.4119C100.712 29.4119 101.504 29.1521 102.141 28.6365C102.791 28.1051 103.117 27.4242 103.117 26.5937C103.117 25.7632 102.791 25.0743 102.141 24.5469C101.507 24.0313 100.716 23.7715 99.7598 23.7715L99.7559 23.7676Z" fill="#003894"/>
<path d="M150.673 27.3021H149.669C149.645 27.5422 149.716 28.6679 148.295 28.7427C147.965 28.7584 147.469 28.2664 147.331 27.9161C147.197 27.5816 147.02 27.1565 147.02 26.6015C147.02 26.0465 147.079 25.6293 147.189 25.2869C147.398 24.6413 147.673 24.3107 148.236 24.291C149.208 24.2596 149.551 25.342 149.602 25.5348H150.436V24.2792C149.85 23.8817 149.11 23.7715 148.275 23.7715C147.284 23.7715 146.473 24.0431 145.843 24.5862C145.221 25.1215 144.91 25.8064 144.91 26.6369C144.91 27.3926 145.205 28.0342 145.804 28.5656C146.441 29.1324 147.264 29.4158 148.275 29.4158C149.228 29.4158 150.031 29.156 150.665 28.6404L150.676 27.3021H150.673Z" fill="#003894"/>
<path d="M55.9501 26.2917V24.4929C55.9501 24.4929 56.2768 24.4968 56.4972 24.4968C56.9026 24.4968 57.2254 24.9652 57.1939 25.3313C57.1467 25.9256 56.8869 26.1421 56.6744 26.2169C56.4264 26.3074 55.9462 26.2877 55.9462 26.2877L55.9501 26.2917ZM53.25 29.2555H56.6665V28.8265C56.3792 28.8147 56.1863 28.7635 56.0918 28.6651C55.9974 28.5706 55.9501 28.3817 55.9501 28.1022V27.2284L57.3947 29.2555H59.8547V28.8107C59.8547 28.8107 59.7208 28.9879 59.1304 28.2361L57.9811 26.6302C58.2409 26.579 58.4377 26.52 58.6384 26.3901C58.9691 26.1736 59.2052 25.776 59.2052 25.3431C59.2052 24.7566 59.0045 24.3866 58.4101 24.1072C58.0835 23.9576 57.7331 23.9064 57.4812 23.8828H53.25V24.2764C53.5295 24.3 53.7066 24.3433 53.7892 24.4063C53.9073 24.4968 53.9703 24.5047 53.9703 24.8078V28.055C53.9703 28.3502 53.9191 28.5391 53.8168 28.6257C53.7145 28.7123 53.5255 28.7871 53.25 28.7989V29.2516V29.2555Z" fill="#003894"/>
<path d="M86.4736 26.2917V24.4929C86.4736 24.4929 86.8003 24.4968 87.0207 24.4968C87.4261 24.4968 87.7488 24.9652 87.7174 25.3313C87.6701 25.9256 87.4103 26.1421 87.1978 26.2169C86.9498 26.3074 86.4696 26.2877 86.4696 26.2877L86.4736 26.2917ZM83.7734 29.2555H87.1899V28.8265C86.9026 28.8147 86.7097 28.7635 86.6153 28.6651C86.5208 28.5706 86.4736 28.3817 86.4736 28.1022V27.2284L87.9181 29.2555H90.3781V28.8107C90.3781 28.8107 90.2443 28.9879 89.6539 28.2361L88.5046 26.6302C88.7643 26.579 88.9611 26.52 89.1619 26.3901C89.4925 26.1736 89.7287 25.776 89.7287 25.3431C89.7287 24.7566 89.5279 24.3866 88.9336 24.1072C88.6108 23.9576 88.2566 23.9064 88.0047 23.8828H83.7734V24.2764C84.0529 24.3 84.234 24.3433 84.3127 24.4063C84.4308 24.4968 84.4937 24.5047 84.4937 24.8078V28.055C84.4937 28.3502 84.4426 28.5391 84.3442 28.6257C84.2418 28.7123 84.0529 28.7871 83.7774 28.7989V29.2516L83.7734 29.2555Z" fill="#003894"/>
<path d="M105.837 26.2917V24.4929C105.837 24.4929 106.164 24.4968 106.384 24.4968C106.789 24.4968 107.112 24.9652 107.081 25.3313C107.033 25.9256 106.774 26.1421 106.561 26.2169C106.313 26.3074 105.833 26.2877 105.833 26.2877L105.837 26.2917ZM103.137 29.2555H106.553V28.8265C106.266 28.8147 106.073 28.7635 105.979 28.6651C105.884 28.5706 105.833 28.3817 105.833 28.1022V27.2284L107.277 29.2555H109.737V28.8107C109.737 28.8107 109.604 28.9879 109.013 28.2361L107.864 26.6302C108.124 26.579 108.321 26.52 108.521 26.3901C108.852 26.1736 109.088 25.776 109.088 25.3431C109.088 24.7566 108.887 24.3866 108.293 24.1072C107.97 23.9576 107.616 23.9064 107.364 23.8828H103.133V24.2764C103.412 24.3 103.589 24.3433 103.672 24.4063C103.79 24.4968 103.853 24.5047 103.853 24.8078V28.055C103.853 28.3502 103.802 28.5391 103.704 28.6257C103.601 28.7123 103.412 28.7871 103.137 28.7989V29.2516V29.2555Z" fill="#003894"/>
<path d="M131.032 26.2917V24.4929C131.032 24.4929 131.359 24.4968 131.579 24.4968C131.985 24.4968 132.307 24.9652 132.276 25.3313C132.229 25.9256 131.969 26.1421 131.76 26.2169C131.512 26.3074 131.032 26.2877 131.032 26.2877V26.2917ZM128.332 29.2555H131.749V28.8265C131.461 28.8147 131.272 28.7635 131.174 28.6651C131.076 28.5667 131.028 28.3817 131.028 28.1022V27.2284L132.473 29.2555H134.933V28.8107C134.933 28.8107 134.799 28.9879 134.209 28.2361L133.059 26.6302C133.319 26.579 133.516 26.52 133.717 26.3901C134.047 26.1736 134.283 25.776 134.283 25.3431C134.283 24.7566 134.083 24.3866 133.484 24.1072C133.162 23.9576 132.807 23.9064 132.555 23.8828H128.324V24.2764C128.604 24.3 128.781 24.3433 128.863 24.4063C128.982 24.4968 129.045 24.5047 129.045 24.8078V28.055C129.045 28.3502 128.993 28.5391 128.891 28.6257C128.789 28.7123 128.6 28.7871 128.324 28.7989V29.2516L128.332 29.2555Z" fill="#003894"/>
<path d="M93.3377 26.9607L94.369 26.9883C95.904 26.9017 96.2268 26.4294 96.3331 25.6146C96.4078 25.036 96.278 24.3905 95.6797 24.115C95.3569 23.9654 95.0027 23.9142 94.7508 23.8906H90.5195V24.2842C90.799 24.3078 90.9801 24.3511 91.0588 24.4141C91.1769 24.5046 91.2398 24.5125 91.2398 24.8156V28.0628C91.2398 28.358 91.1887 28.547 91.0903 28.6336C90.9879 28.7201 90.799 28.7949 90.5235 28.8067V29.2594H93.94V28.8304C93.6526 28.8185 93.4598 28.7674 93.3653 28.669C93.2708 28.5745 93.2236 28.3856 93.2236 28.1061V26.9568V26.5553V24.4968C93.2236 24.4968 93.5503 24.5007 93.7707 24.5007C94.1761 24.5007 94.4359 25.1108 94.4359 25.3903C94.4359 25.9885 94.3296 26.3113 93.9518 26.4845C93.7864 26.5593 93.4991 26.5632 93.3417 26.5593V26.9607H93.3377Z" fill="#003894"/>
<path d="M59.6133 29.2555V28.8107C59.8495 28.8028 60.0148 28.7162 60.1132 28.6611C60.2667 28.5785 60.3415 28.425 60.3415 28.1927V24.8432C60.3297 24.5558 59.9794 24.2803 59.6133 24.2803V23.8867H65.0096V25.1777H64.3641C64.246 24.8589 64.1437 24.5716 63.4077 24.5322H62.3607V26.146H63.0377C63.3565 26.1342 63.6084 26.0791 63.6989 25.6383H64.4428V27.3504H63.6989C63.6399 26.9017 63.3486 26.8112 63.1872 26.7836L62.3607 26.7758V27.992C62.3607 28.1613 62.6716 28.8107 63.1872 28.8186C63.7107 28.8304 64.4783 28.7359 65.0687 27.6181H65.4386L65.1001 29.2633H59.6094L59.6133 29.2555Z" fill="#003894"/>
<path d="M122.352 29.2555V28.8107C122.588 28.8028 122.753 28.7162 122.851 28.6611C123.005 28.5785 123.08 28.425 123.08 28.1927V24.8432C123.068 24.5558 122.718 24.2803 122.352 24.2803V23.8867H127.748V25.1777H127.102C126.984 24.8589 126.882 24.5716 126.146 24.5322H125.099V26.146H125.776C126.095 26.1342 126.351 26.0791 126.437 25.6383H127.181V27.3504H126.437C126.378 26.9017 126.087 26.8112 125.926 26.7836L125.099 26.7758V27.992C125.099 28.1613 125.41 28.8107 125.926 28.8186C126.449 28.8304 127.217 28.7359 127.807 27.6181H128.177L127.838 29.2633H122.348L122.352 29.2555Z" fill="#003894"/>
<path d="M151.164 29.2555V28.8107C151.4 28.8028 151.566 28.7162 151.664 28.6611C151.814 28.5785 151.892 28.425 151.892 28.1927V24.8432C151.88 24.5558 151.534 24.2803 151.164 24.2803V23.8867H156.56V25.1777H155.915C155.797 24.8589 155.694 24.5716 154.958 24.5322H153.915V26.146H154.592C154.911 26.1342 155.167 26.0791 155.254 25.6383H155.998V27.3504H155.254C155.195 26.9017 154.903 26.8112 154.742 26.7836L153.915 26.7758V27.992C153.915 28.1613 154.226 28.8107 154.742 28.8186C155.265 28.8304 156.033 28.7359 156.623 27.6181H156.993L156.655 29.2633H151.164V29.2555Z" fill="#003894"/>
<path d="M66.2933 26.7089L66.8364 25.6147L67.2261 26.7089H66.2933ZM63.6719 29.2556H66.2736V28.8423C66.0453 28.8423 65.632 28.6809 65.695 28.1535L66.0256 27.3466H67.5016C67.5016 27.3466 67.8008 28.0866 67.8165 28.1692C67.9503 28.7872 67.5449 28.8226 67.3324 28.8147V29.2556H70.6662V28.8069C70.43 28.8108 70.0758 28.6652 69.9774 28.5077C69.82 28.2597 68.1944 23.875 68.1944 23.875H66.1673L66.3563 24.3355L64.6834 28.122C64.5024 28.4684 64.4079 28.7124 63.6719 28.8187V29.2634V29.2556Z" fill="#003894"/>
<path d="M75.9183 26.7089L76.4614 25.6147L76.8511 26.7089H75.9183ZM73.2969 29.2556H75.8986V28.8423C75.6703 28.8423 75.257 28.6809 75.32 28.1535L75.6467 27.3466H77.1227C77.1227 27.3466 77.4218 28.0866 77.4376 28.1692C77.5714 28.7872 77.166 28.8226 76.9535 28.8147V29.2556H80.2873V28.8069C80.0511 28.8108 79.6969 28.6652 79.5985 28.5077C79.441 28.2597 77.8154 23.875 77.8154 23.875H75.7884L75.9813 24.3355L74.3084 28.122C74.1274 28.4684 74.0329 28.7124 73.2969 28.8187V29.2634V29.2556Z" fill="#003894"/>
<path d="M79.8279 28.8186C79.7176 28.8146 79.9696 28.7871 80.1231 28.7359C80.375 28.6533 80.5009 28.4958 80.5009 28.2557V24.8392C80.5009 24.6031 80.186 24.2882 79.8121 24.2764V23.8867H83.3113V24.2764C82.9176 24.2882 82.5516 24.6031 82.5516 24.8392V28.2557C82.5516 28.4801 82.9334 28.8186 83.327 28.8186V29.2555H79.8279V28.8186Z" fill="#003894"/>
<path d="M141.13 28.8186C141.016 28.8146 141.272 28.7871 141.425 28.7359C141.677 28.6533 141.803 28.4958 141.803 28.2557V24.8392C141.803 24.6031 141.488 24.2882 141.114 24.2764V23.8867H144.613V24.2764C144.224 24.2882 143.854 24.6031 143.854 24.8392V28.2557C143.854 28.4801 144.236 28.8186 144.629 28.8186V29.2555H141.13V28.8186Z" fill="#003894"/>
<path d="M109.84 23.8867H115.465V25.284H114.776C114.756 24.9022 114.658 24.6031 114.315 24.4378C114.083 24.3236 113.933 24.3 113.646 24.2882V28.0904C113.646 28.3817 113.705 28.5785 113.827 28.6729C113.949 28.7674 114.024 28.8146 114.41 28.8146V29.2594H110.883V28.8264C111.261 28.8264 111.34 28.7792 111.462 28.6808C111.584 28.5824 111.647 28.3895 111.647 28.1022V24.2921C111.182 24.3039 111.123 24.363 110.879 24.4732C110.426 24.6818 110.454 24.9258 110.391 25.2919H109.832L109.84 23.8946V23.8867Z" fill="#003894"/>
<path d="M117.328 27.5467H118.438C118.576 28.2985 119.151 28.6803 119.635 28.6803C120.119 28.6803 120.324 28.3654 120.324 28.1607C120.324 27.9246 120.198 27.5782 119.816 27.4916C119.816 27.4916 118.056 26.7005 117.781 26.4525C117.505 26.2045 117.375 25.7125 117.375 25.3465C117.375 24.9568 117.556 24.5947 117.923 24.2601C118.285 23.9255 118.891 23.6461 119.643 23.6461C120.024 23.6461 120.658 23.6146 121.264 23.835C121.611 23.961 121.792 24.268 121.792 24.268V25.2795H121.052C120.914 24.8741 120.619 24.2759 120.119 24.2759C119.769 24.2759 119.454 24.3349 119.324 24.5986C118.899 25.4567 120.827 25.9959 120.827 25.9959C121.174 26.1258 121.607 26.3541 121.811 26.5155C122.197 26.8146 122.343 27.1728 122.244 27.7553C122.181 28.1489 121.918 28.5228 121.504 28.8771C121.091 29.2313 120.587 29.3022 119.67 29.3022C119.462 29.3022 119.241 29.2667 119.025 29.2392C118.808 29.2116 118.611 29.1802 118.399 29.1211L117.509 28.8062L117.32 27.5428L117.328 27.5467Z" fill="#003894"/>
<path d="M137.505 23.8867V24.2921C137.131 24.3079 137.033 24.359 136.95 24.5362C136.848 24.7566 136.998 24.9888 137.021 25.0321L137.966 27.3032C137.966 27.3032 139.056 24.9573 139.08 24.8943C139.119 24.792 139.139 24.7094 139.139 24.6464C139.139 24.4968 139.08 24.4023 138.962 24.3669C138.844 24.3276 138.655 24.3 138.293 24.2843V23.8907H140.717V24.2843C140.465 24.3039 140.446 24.4023 140.32 24.4929C140.194 24.5834 138.041 29.2633 138.041 29.2633H136.706L134.88 24.8589C134.77 24.6661 134.66 24.5283 134.545 24.4456C134.431 24.363 134.455 24.3118 134.215 24.2961V23.8907H137.505V23.8867Z" fill="#003894"/>
<path d="M16 0C7.16359 0 0 7.16359 0 16C0 24.8364 7.16359 32 16 32C24.8364 32 32 24.8364 32 16C32 7.16359 24.8364 0 16 0ZM16 3.75892C19.2787 3.75892 22.2583 5.04994 24.4546 7.14785C18.649 6.94317 17.9916 12.0246 17.9247 13.5006H17.9168V13.7446H14.091V9.74957H10.0841V17.7004H10.0684C9.93456 21.0578 7.3722 21.1011 7.3722 21.1011C5.20344 21.1011 4.27847 19.1567 3.90455 17.8499C3.81402 17.2477 3.76679 16.6298 3.76679 16.0039C3.76679 9.24182 9.24575 3.76285 16.0079 3.76285L16 3.75892ZM16 28.2371C12.5048 28.2371 9.35203 26.7729 7.12029 24.4231C13.3156 24.8954 14.0044 19.6054 14.0753 18.094H14.0831V17.7004H17.909V21.849H21.9159V13.8982H21.9316C22.0654 10.5407 24.6278 10.4974 24.6278 10.4974C26.5014 10.4974 27.446 11.9459 27.9105 13.1857C28.123 14.0871 28.2371 15.0317 28.2371 16C28.2371 22.7582 22.7582 28.2411 15.9961 28.2411L16 28.2371Z" fill="#57C3EA"/>
</g>
<defs>
<clipPath id="clip0_333_1479">
<rect width="158.41" height="32" fill="white"/>
</clipPath>
</defs>
</svg>
